<?xml version="1.0" encoding="utf-8" standalone="no"?>
<!DOCTYPE svg PUBLIC "-//W3C//DTD SVG 1.1//EN"
  "http://www.w3.org/Graphics/SVG/1.1/DTD/svg11.dtd">
<!-- Created with matplotlib (https://matplotlib.org/) -->
<svg height="360pt" version="1.1" viewBox="0 0 789.9 360" width="789.9pt" xmlns="http://www.w3.org/2000/svg" xmlns:xlink="http://www.w3.org/1999/xlink">
 <defs>
  <style type="text/css">
*{stroke-linecap:butt;stroke-linejoin:round;}
  </style>
 </defs>
 <g id="figure_1">
  <g id="patch_1">
   <path d="M 0 360 
L 789.9 360 
L 789.9 0 
L 0 0 
z
" style="fill:#ffffff;"/>
  </g>
  <g id="axes_1">
   <g id="patch_2">
    <path d="M 82.215425 288.06 
L 382.841258 288.06 
L 382.841258 39.44 
L 82.215425 39.44 
z
" style="fill:#ffffff;"/>
   </g>
   <g id="PathCollection_1">
    <defs>
     <path d="M 0 5.075922 
C 1.34615 5.075922 2.637347 4.541091 3.589219 3.589219 
C 4.541091 2.637347 5.075922 1.34615 5.075922 0 
C 5.075922 -1.34615 4.541091 -2.637347 3.589219 -3.589219 
C 2.637347 -4.541091 1.34615 -5.075922 0 -5.075922 
C -1.34615 -5.075922 -2.637347 -4.541091 -3.589219 -3.589219 
C -4.541091 -2.637347 -5.075922 -1.34615 -5.075922 0 
C -5.075922 1.34615 -4.541091 2.637347 -3.589219 3.589219 
C -2.637347 4.541091 -1.34615 5.075922 0 5.075922 
z
" id="m3c9264fd69" style="stroke:#1f77b4;stroke-width:3.0375;"/>
    </defs>
    <g clip-path="url(#p491112301c)">
     <use style="fill:#1f77b4;stroke:#1f77b4;stroke-width:3.0375;" x="116.035831" xlink:href="#m3c9264fd69" y="246.163278"/>
     <use style="fill:#1f77b4;stroke:#1f77b4;stroke-width:3.0375;" x="191.19229" xlink:href="#m3c9264fd69" y="168.794341"/>
     <use style="fill:#1f77b4;stroke:#1f77b4;stroke-width:3.0375;" x="266.348748" xlink:href="#m3c9264fd69" y="117.267575"/>
     <use style="fill:#1f77b4;stroke:#1f77b4;stroke-width:3.0375;" x="341.505206" xlink:href="#m3c9264fd69" y="170.685231"/>
    </g>
   </g>
   <g id="line2d_1">
    <path clip-path="url(#p491112301c)" d="M 116.035831 246.163278 
L 191.19229 168.794341 
L 266.348748 117.267575 
L 341.505206 170.685231 
" style="fill:none;stroke:#1f77b4;stroke-linecap:square;stroke-width:4.05;"/>
   </g>
   <g id="line2d_2">
    <path clip-path="url(#p491112301c)" d="M 116.035831 268.952235 
L 116.035831 223.37432 
" style="fill:none;stroke:#1f77b4;stroke-linecap:square;stroke-width:4.05;"/>
   </g>
   <g id="line2d_3">
    <path clip-path="url(#p491112301c)" d="M 112.278008 268.952235 
L 119.793654 268.952235 
" style="fill:none;stroke:#1f77b4;stroke-linecap:square;stroke-width:4.05;"/>
   </g>
   <g id="line2d_4">
    <path clip-path="url(#p491112301c)" d="M 112.278008 223.37432 
L 119.793654 223.37432 
" style="fill:none;stroke:#1f77b4;stroke-linecap:square;stroke-width:4.05;"/>
   </g>
   <g id="line2d_5">
    <path clip-path="url(#p491112301c)" d="M 191.19229 205.725581 
L 191.19229 131.863101 
" style="fill:none;stroke:#1f77b4;stroke-linecap:square;stroke-width:4.05;"/>
   </g>
   <g id="line2d_6">
    <path clip-path="url(#p491112301c)" d="M 187.434467 205.725581 
L 194.950112 205.725581 
" style="fill:none;stroke:#1f77b4;stroke-linecap:square;stroke-width:4.05;"/>
   </g>
   <g id="line2d_7">
    <path clip-path="url(#p491112301c)" d="M 187.434467 131.863101 
L 194.950112 131.863101 
" style="fill:none;stroke:#1f77b4;stroke-linecap:square;stroke-width:4.05;"/>
   </g>
   <g id="line2d_8">
    <path clip-path="url(#p491112301c)" d="M 266.348748 176.310612 
L 266.348748 58.224537 
" style="fill:none;stroke:#1f77b4;stroke-linecap:square;stroke-width:4.05;"/>
   </g>
   <g id="line2d_9">
    <path clip-path="url(#p491112301c)" d="M 262.590925 176.310612 
L 270.106571 176.310612 
" style="fill:none;stroke:#1f77b4;stroke-linecap:square;stroke-width:4.05;"/>
   </g>
   <g id="line2d_10">
    <path clip-path="url(#p491112301c)" d="M 262.590925 58.224537 
L 270.106571 58.224537 
" style="fill:none;stroke:#1f77b4;stroke-linecap:square;stroke-width:4.05;"/>
   </g>
   <g id="line2d_11">
    <path clip-path="url(#p491112301c)" d="M 341.505206 239.935287 
L 341.505206 101.435176 
" style="fill:none;stroke:#1f77b4;stroke-linecap:square;stroke-width:4.05;"/>
   </g>
   <g id="line2d_12">
    <path clip-path="url(#p491112301c)" d="M 337.747383 239.935287 
L 345.263029 239.935287 
" style="fill:none;stroke:#1f77b4;stroke-linecap:square;stroke-width:4.05;"/>
   </g>
   <g id="line2d_13">
    <path clip-path="url(#p491112301c)" d="M 337.747383 101.435176 
L 345.263029 101.435176 
" style="fill:none;stroke:#1f77b4;stroke-linecap:square;stroke-width:4.05;"/>
   </g>
   <g id="matplotlib.axis_1">
    <g id="xtick_1">
     <g id="line2d_14">
      <defs>
       <path d="M 0 0 
L 0 9 
" id="m3e0a99cd57" style="stroke:#000000;stroke-width:1.875;"/>
      </defs>
      <g>
       <use style="stroke:#000000;stroke-width:1.875;" x="119.793654" xlink:href="#m3e0a99cd57" y="288.06"/>
      </g>
     </g>
     <g id="text_1">
      <!-- lowY -->
      <defs>
       <path d="M 9.421875 75.984375 
L 18.40625 75.984375 
L 18.40625 0 
L 9.421875 0 
z
" id="DejaVuSans-108"/>
       <path d="M 30.609375 48.390625 
Q 23.390625 48.390625 19.1875 42.75 
Q 14.984375 37.109375 14.984375 27.296875 
Q 14.984375 17.484375 19.15625 11.84375 
Q 23.34375 6.203125 30.609375 6.203125 
Q 37.796875 6.203125 41.984375 11.859375 
Q 46.1875 17.53125 46.1875 27.296875 
Q 46.1875 37.015625 41.984375 42.703125 
Q 37.796875 48.390625 30.609375 48.390625 
z
M 30.609375 56 
Q 42.328125 56 49.015625 48.375 
Q 55.71875 40.765625 55.71875 27.296875 
Q 55.71875 13.875 49.015625 6.21875 
Q 42.328125 -1.421875 30.609375 -1.421875 
Q 18.84375 -1.421875 12.171875 6.21875 
Q 5.515625 13.875 5.515625 27.296875 
Q 5.515625 40.765625 12.171875 48.375 
Q 18.84375 56 30.609375 56 
z
" id="DejaVuSans-111"/>
       <path d="M 4.203125 54.6875 
L 13.1875 54.6875 
L 24.421875 12.015625 
L 35.59375 54.6875 
L 46.1875 54.6875 
L 57.421875 12.015625 
L 68.609375 54.6875 
L 77.59375 54.6875 
L 63.28125 0 
L 52.6875 0 
L 40.921875 44.828125 
L 29.109375 0 
L 18.5 0 
z
" id="DejaVuSans-119"/>
       <path d="M -0.203125 72.90625 
L 10.40625 72.90625 
L 30.609375 42.921875 
L 50.6875 72.90625 
L 61.28125 72.90625 
L 35.5 34.71875 
L 35.5 0 
L 25.59375 0 
L 25.59375 34.71875 
z
" id="DejaVuSans-89"/>
      </defs>
      <g transform="translate(100.667834 313.097422)scale(0.165 -0.165)">
       <use xlink:href="#DejaVuSans-108"/>
       <use x="27.783203" xlink:href="#DejaVuSans-111"/>
       <use x="88.964844" xlink:href="#DejaVuSans-119"/>
       <use x="170.751953" xlink:href="#DejaVuSans-89"/>
      </g>
     </g>
    </g>
    <g id="xtick_2">
     <g id="line2d_15">
      <g>
       <use style="stroke:#000000;stroke-width:1.875;" x="194.950112" xlink:href="#m3e0a99cd57" y="288.06"/>
      </g>
     </g>
     <g id="text_2">
      <!-- eqY -->
      <defs>
       <path d="M 56.203125 29.59375 
L 56.203125 25.203125 
L 14.890625 25.203125 
Q 15.484375 15.921875 20.484375 11.0625 
Q 25.484375 6.203125 34.421875 6.203125 
Q 39.59375 6.203125 44.453125 7.46875 
Q 49.3125 8.734375 54.109375 11.28125 
L 54.109375 2.78125 
Q 49.265625 0.734375 44.1875 -0.34375 
Q 39.109375 -1.421875 33.890625 -1.421875 
Q 20.796875 -1.421875 13.15625 6.1875 
Q 5.515625 13.8125 5.515625 26.8125 
Q 5.515625 40.234375 12.765625 48.109375 
Q 20.015625 56 32.328125 56 
Q 43.359375 56 49.78125 48.890625 
Q 56.203125 41.796875 56.203125 29.59375 
z
M 47.21875 32.234375 
Q 47.125 39.59375 43.09375 43.984375 
Q 39.0625 48.390625 32.421875 48.390625 
Q 24.90625 48.390625 20.390625 44.140625 
Q 15.875 39.890625 15.1875 32.171875 
z
" id="DejaVuSans-101"/>
       <path d="M 14.796875 27.296875 
Q 14.796875 17.390625 18.875 11.75 
Q 22.953125 6.109375 30.078125 6.109375 
Q 37.203125 6.109375 41.296875 11.75 
Q 45.40625 17.390625 45.40625 27.296875 
Q 45.40625 37.203125 41.296875 42.84375 
Q 37.203125 48.484375 30.078125 48.484375 
Q 22.953125 48.484375 18.875 42.84375 
Q 14.796875 37.203125 14.796875 27.296875 
z
M 45.40625 8.203125 
Q 42.578125 3.328125 38.25 0.953125 
Q 33.9375 -1.421875 27.875 -1.421875 
Q 17.96875 -1.421875 11.734375 6.484375 
Q 5.515625 14.40625 5.515625 27.296875 
Q 5.515625 40.1875 11.734375 48.09375 
Q 17.96875 56 27.875 56 
Q 33.9375 56 38.25 53.625 
Q 42.578125 51.265625 45.40625 46.390625 
L 45.40625 54.6875 
L 54.390625 54.6875 
L 54.390625 -20.796875 
L 45.40625 -20.796875 
z
" id="DejaVuSans-113"/>
      </defs>
      <g transform="translate(179.597378 313.097422)scale(0.165 -0.165)">
       <use xlink:href="#DejaVuSans-101"/>
       <use x="61.523438" xlink:href="#DejaVuSans-113"/>
       <use x="125" xlink:href="#DejaVuSans-89"/>
      </g>
     </g>
    </g>
    <g id="xtick_3">
     <g id="line2d_16">
      <g>
       <use style="stroke:#000000;stroke-width:1.875;" x="270.106571" xlink:href="#m3e0a99cd57" y="288.06"/>
      </g>
     </g>
     <g id="text_3">
      <!-- highY -->
      <defs>
       <path d="M 54.890625 33.015625 
L 54.890625 0 
L 45.90625 0 
L 45.90625 32.71875 
Q 45.90625 40.484375 42.875 44.328125 
Q 39.84375 48.1875 33.796875 48.1875 
Q 26.515625 48.1875 22.3125 43.546875 
Q 18.109375 38.921875 18.109375 30.90625 
L 18.109375 0 
L 9.078125 0 
L 9.078125 75.984375 
L 18.109375 75.984375 
L 18.109375 46.1875 
Q 21.34375 51.125 25.703125 53.5625 
Q 30.078125 56 35.796875 56 
Q 45.21875 56 50.046875 50.171875 
Q 54.890625 44.34375 54.890625 33.015625 
z
" id="DejaVuSans-104"/>
       <path d="M 9.421875 54.6875 
L 18.40625 54.6875 
L 18.40625 0 
L 9.421875 0 
z
M 9.421875 75.984375 
L 18.40625 75.984375 
L 18.40625 64.59375 
L 9.421875 64.59375 
z
" id="DejaVuSans-105"/>
       <path d="M 45.40625 27.984375 
Q 45.40625 37.75 41.375 43.109375 
Q 37.359375 48.484375 30.078125 48.484375 
Q 22.859375 48.484375 18.828125 43.109375 
Q 14.796875 37.75 14.796875 27.984375 
Q 14.796875 18.265625 18.828125 12.890625 
Q 22.859375 7.515625 30.078125 7.515625 
Q 37.359375 7.515625 41.375 12.890625 
Q 45.40625 18.265625 45.40625 27.984375 
z
M 54.390625 6.78125 
Q 54.390625 -7.171875 48.1875 -13.984375 
Q 42 -20.796875 29.203125 -20.796875 
Q 24.46875 -20.796875 20.265625 -20.09375 
Q 16.0625 -19.390625 12.109375 -17.921875 
L 12.109375 -9.1875 
Q 16.0625 -11.328125 19.921875 -12.34375 
Q 23.78125 -13.375 27.78125 -13.375 
Q 36.625 -13.375 41.015625 -8.765625 
Q 45.40625 -4.15625 45.40625 5.171875 
L 45.40625 9.625 
Q 42.625 4.78125 38.28125 2.390625 
Q 33.9375 0 27.875 0 
Q 17.828125 0 11.671875 7.65625 
Q 5.515625 15.328125 5.515625 27.984375 
Q 5.515625 40.671875 11.671875 48.328125 
Q 17.828125 56 27.875 56 
Q 33.9375 56 38.28125 53.609375 
Q 42.625 51.21875 45.40625 46.390625 
L 45.40625 54.6875 
L 54.390625 54.6875 
z
" id="DejaVuSans-103"/>
      </defs>
      <g transform="translate(247.081336 313.097422)scale(0.165 -0.165)">
       <use xlink:href="#DejaVuSans-104"/>
       <use x="63.378906" xlink:href="#DejaVuSans-105"/>
       <use x="91.162109" xlink:href="#DejaVuSans-103"/>
       <use x="154.638672" xlink:href="#DejaVuSans-104"/>
       <use x="218.017578" xlink:href="#DejaVuSans-89"/>
      </g>
     </g>
    </g>
    <g id="xtick_4">
     <g id="line2d_17">
      <g>
       <use style="stroke:#000000;stroke-width:1.875;" x="345.263029" xlink:href="#m3e0a99cd57" y="288.06"/>
      </g>
     </g>
     <g id="text_4">
      <!-- onlyY -->
      <defs>
       <path d="M 54.890625 33.015625 
L 54.890625 0 
L 45.90625 0 
L 45.90625 32.71875 
Q 45.90625 40.484375 42.875 44.328125 
Q 39.84375 48.1875 33.796875 48.1875 
Q 26.515625 48.1875 22.3125 43.546875 
Q 18.109375 38.921875 18.109375 30.90625 
L 18.109375 0 
L 9.078125 0 
L 9.078125 54.6875 
L 18.109375 54.6875 
L 18.109375 46.1875 
Q 21.34375 51.125 25.703125 53.5625 
Q 30.078125 56 35.796875 56 
Q 45.21875 56 50.046875 50.171875 
Q 54.890625 44.34375 54.890625 33.015625 
z
" id="DejaVuSans-110"/>
       <path d="M 32.171875 -5.078125 
Q 28.375 -14.84375 24.75 -17.8125 
Q 21.140625 -20.796875 15.09375 -20.796875 
L 7.90625 -20.796875 
L 7.90625 -13.28125 
L 13.1875 -13.28125 
Q 16.890625 -13.28125 18.9375 -11.515625 
Q 21 -9.765625 23.484375 -3.21875 
L 25.09375 0.875 
L 2.984375 54.6875 
L 12.5 54.6875 
L 29.59375 11.921875 
L 46.6875 54.6875 
L 56.203125 54.6875 
z
" id="DejaVuSans-121"/>
      </defs>
      <g transform="translate(322.772756 313.097422)scale(0.165 -0.165)">
       <use xlink:href="#DejaVuSans-111"/>
       <use x="61.181641" xlink:href="#DejaVuSans-110"/>
       <use x="124.560547" xlink:href="#DejaVuSans-108"/>
       <use x="152.34375" xlink:href="#DejaVuSans-121"/>
       <use x="211.523438" xlink:href="#DejaVuSans-89"/>
      </g>
     </g>
    </g>
    <g id="text_5">
     <!-- Diet -->
     <defs>
      <path d="M 19.671875 64.796875 
L 19.671875 8.109375 
L 31.59375 8.109375 
Q 46.6875 8.109375 53.6875 14.9375 
Q 60.6875 21.78125 60.6875 36.53125 
Q 60.6875 51.171875 53.6875 57.984375 
Q 46.6875 64.796875 31.59375 64.796875 
z
M 9.8125 72.90625 
L 30.078125 72.90625 
Q 51.265625 72.90625 61.171875 64.09375 
Q 71.09375 55.28125 71.09375 36.53125 
Q 71.09375 17.671875 61.125 8.828125 
Q 51.171875 0 30.078125 0 
L 9.8125 0 
z
" id="DejaVuSans-68"/>
      <path d="M 18.3125 70.21875 
L 18.3125 54.6875 
L 36.8125 54.6875 
L 36.8125 47.703125 
L 18.3125 47.703125 
L 18.3125 18.015625 
Q 18.3125 11.328125 20.140625 9.421875 
Q 21.96875 7.515625 27.59375 7.515625 
L 36.8125 7.515625 
L 36.8125 0 
L 27.59375 0 
Q 17.1875 0 13.234375 3.875 
Q 9.28125 7.765625 9.28125 18.015625 
L 9.28125 47.703125 
L 2.6875 47.703125 
L 2.6875 54.6875 
L 9.28125 54.6875 
L 9.28125 70.21875 
z
" id="DejaVuSans-116"/>
     </defs>
     <g transform="translate(214.031935 334.206094)scale(0.18 -0.18)">
      <use xlink:href="#DejaVuSans-68"/>
      <use x="77.001953" xlink:href="#DejaVuSans-105"/>
      <use x="104.785156" xlink:href="#DejaVuSans-101"/>
      <use x="166.308594" xlink:href="#DejaVuSans-116"/>
     </g>
    </g>
   </g>
   <g id="matplotlib.axis_2">
    <g id="ytick_1">
     <g id="line2d_18">
      <defs>
       <path d="M 0 0 
L -9 0 
" id="m5f6e7a9f60" style="stroke:#000000;stroke-width:1.875;"/>
      </defs>
      <g>
       <use style="stroke:#000000;stroke-width:1.875;" x="82.215425" xlink:href="#m5f6e7a9f60" y="287.44772"/>
      </g>
     </g>
     <g id="text_6">
      <!-- 0 -->
      <defs>
       <path d="M 31.78125 66.40625 
Q 24.171875 66.40625 20.328125 58.90625 
Q 16.5 51.421875 16.5 36.375 
Q 16.5 21.390625 20.328125 13.890625 
Q 24.171875 6.390625 31.78125 6.390625 
Q 39.453125 6.390625 43.28125 13.890625 
Q 47.125 21.390625 47.125 36.375 
Q 47.125 51.421875 43.28125 58.90625 
Q 39.453125 66.40625 31.78125 66.40625 
z
M 31.78125 74.21875 
Q 44.046875 74.21875 50.515625 64.515625 
Q 56.984375 54.828125 56.984375 36.375 
Q 56.984375 17.96875 50.515625 8.265625 
Q 44.046875 -1.421875 31.78125 -1.421875 
Q 19.53125 -1.421875 13.0625 8.265625 
Q 6.59375 17.96875 6.59375 36.375 
Q 6.59375 54.828125 13.0625 64.515625 
Q 19.53125 74.21875 31.78125 74.21875 
z
" id="DejaVuSans-48"/>
      </defs>
      <g transform="translate(59.2173 293.716431)scale(0.165 -0.165)">
       <use xlink:href="#DejaVuSans-48"/>
      </g>
     </g>
    </g>
    <g id="ytick_2">
     <g id="line2d_19">
      <g>
       <use style="stroke:#000000;stroke-width:1.875;" x="82.215425" xlink:href="#m5f6e7a9f60" y="224.418037"/>
      </g>
     </g>
     <g id="text_7">
      <!-- 20 -->
      <defs>
       <path d="M 19.1875 8.296875 
L 53.609375 8.296875 
L 53.609375 0 
L 7.328125 0 
L 7.328125 8.296875 
Q 12.9375 14.109375 22.625 23.890625 
Q 32.328125 33.6875 34.8125 36.53125 
Q 39.546875 41.84375 41.421875 45.53125 
Q 43.3125 49.21875 43.3125 52.78125 
Q 43.3125 58.59375 39.234375 62.25 
Q 35.15625 65.921875 28.609375 65.921875 
Q 23.96875 65.921875 18.8125 64.3125 
Q 13.671875 62.703125 7.8125 59.421875 
L 7.8125 69.390625 
Q 13.765625 71.78125 18.9375 73 
Q 24.125 74.21875 28.421875 74.21875 
Q 39.75 74.21875 46.484375 68.546875 
Q 53.21875 62.890625 53.21875 53.421875 
Q 53.21875 48.921875 51.53125 44.890625 
Q 49.859375 40.875 45.40625 35.40625 
Q 44.1875 33.984375 37.640625 27.21875 
Q 31.109375 20.453125 19.1875 8.296875 
z
" id="DejaVuSans-50"/>
      </defs>
      <g transform="translate(48.719175 230.686748)scale(0.165 -0.165)">
       <use xlink:href="#DejaVuSans-50"/>
       <use x="63.623047" xlink:href="#DejaVuSans-48"/>
      </g>
     </g>
    </g>
    <g id="ytick_3">
     <g id="line2d_20">
      <g>
       <use style="stroke:#000000;stroke-width:1.875;" x="82.215425" xlink:href="#m5f6e7a9f60" y="161.388353"/>
      </g>
     </g>
     <g id="text_8">
      <!-- 40 -->
      <defs>
       <path d="M 37.796875 64.3125 
L 12.890625 25.390625 
L 37.796875 25.390625 
z
M 35.203125 72.90625 
L 47.609375 72.90625 
L 47.609375 25.390625 
L 58.015625 25.390625 
L 58.015625 17.1875 
L 47.609375 17.1875 
L 47.609375 0 
L 37.796875 0 
L 37.796875 17.1875 
L 4.890625 17.1875 
L 4.890625 26.703125 
z
" id="DejaVuSans-52"/>
      </defs>
      <g transform="translate(48.719175 167.657064)scale(0.165 -0.165)">
       <use xlink:href="#DejaVuSans-52"/>
       <use x="63.623047" xlink:href="#DejaVuSans-48"/>
      </g>
     </g>
    </g>
    <g id="ytick_4">
     <g id="line2d_21">
      <g>
       <use style="stroke:#000000;stroke-width:1.875;" x="82.215425" xlink:href="#m5f6e7a9f60" y="98.35867"/>
      </g>
     </g>
     <g id="text_9">
      <!-- 60 -->
      <defs>
       <path d="M 33.015625 40.375 
Q 26.375 40.375 22.484375 35.828125 
Q 18.609375 31.296875 18.609375 23.390625 
Q 18.609375 15.53125 22.484375 10.953125 
Q 26.375 6.390625 33.015625 6.390625 
Q 39.65625 6.390625 43.53125 10.953125 
Q 47.40625 15.53125 47.40625 23.390625 
Q 47.40625 31.296875 43.53125 35.828125 
Q 39.65625 40.375 33.015625 40.375 
z
M 52.59375 71.296875 
L 52.59375 62.3125 
Q 48.875 64.0625 45.09375 64.984375 
Q 41.3125 65.921875 37.59375 65.921875 
Q 27.828125 65.921875 22.671875 59.328125 
Q 17.53125 52.734375 16.796875 39.40625 
Q 19.671875 43.65625 24.015625 45.921875 
Q 28.375 48.1875 33.59375 48.1875 
Q 44.578125 48.1875 50.953125 41.515625 
Q 57.328125 34.859375 57.328125 23.390625 
Q 57.328125 12.15625 50.6875 5.359375 
Q 44.046875 -1.421875 33.015625 -1.421875 
Q 20.359375 -1.421875 13.671875 8.265625 
Q 6.984375 17.96875 6.984375 36.375 
Q 6.984375 53.65625 15.1875 63.9375 
Q 23.390625 74.21875 37.203125 74.21875 
Q 40.921875 74.21875 44.703125 73.484375 
Q 48.484375 72.75 52.59375 71.296875 
z
" id="DejaVuSans-54"/>
      </defs>
      <g transform="translate(48.719175 104.627381)scale(0.165 -0.165)">
       <use xlink:href="#DejaVuSans-54"/>
       <use x="63.623047" xlink:href="#DejaVuSans-48"/>
      </g>
     </g>
    </g>
    <g id="text_10">
     <!-- # offspring per mating pair -->
     <defs>
      <path d="M 51.125 44 
L 36.921875 44 
L 32.8125 27.6875 
L 47.125 27.6875 
z
M 43.796875 71.78125 
L 38.71875 51.515625 
L 52.984375 51.515625 
L 58.109375 71.78125 
L 65.921875 71.78125 
L 60.890625 51.515625 
L 76.125 51.515625 
L 76.125 44 
L 58.984375 44 
L 54.984375 27.6875 
L 70.515625 27.6875 
L 70.515625 20.21875 
L 53.078125 20.21875 
L 48 0 
L 40.1875 0 
L 45.21875 20.21875 
L 30.90625 20.21875 
L 25.875 0 
L 18.015625 0 
L 23.09375 20.21875 
L 7.71875 20.21875 
L 7.71875 27.6875 
L 24.90625 27.6875 
L 29 44 
L 13.28125 44 
L 13.28125 51.515625 
L 30.90625 51.515625 
L 35.890625 71.78125 
z
" id="DejaVuSans-35"/>
      <path id="DejaVuSans-32"/>
      <path d="M 37.109375 75.984375 
L 37.109375 68.5 
L 28.515625 68.5 
Q 23.6875 68.5 21.796875 66.546875 
Q 19.921875 64.59375 19.921875 59.515625 
L 19.921875 54.6875 
L 34.71875 54.6875 
L 34.71875 47.703125 
L 19.921875 47.703125 
L 19.921875 0 
L 10.890625 0 
L 10.890625 47.703125 
L 2.296875 47.703125 
L 2.296875 54.6875 
L 10.890625 54.6875 
L 10.890625 58.5 
Q 10.890625 67.625 15.140625 71.796875 
Q 19.390625 75.984375 28.609375 75.984375 
z
" id="DejaVuSans-102"/>
      <path d="M 44.28125 53.078125 
L 44.28125 44.578125 
Q 40.484375 46.53125 36.375 47.5 
Q 32.28125 48.484375 27.875 48.484375 
Q 21.1875 48.484375 17.84375 46.4375 
Q 14.5 44.390625 14.5 40.28125 
Q 14.5 37.15625 16.890625 35.375 
Q 19.28125 33.59375 26.515625 31.984375 
L 29.59375 31.296875 
Q 39.15625 29.25 43.1875 25.515625 
Q 47.21875 21.78125 47.21875 15.09375 
Q 47.21875 7.46875 41.1875 3.015625 
Q 35.15625 -1.421875 24.609375 -1.421875 
Q 20.21875 -1.421875 15.453125 -0.5625 
Q 10.6875 0.296875 5.421875 2 
L 5.421875 11.28125 
Q 10.40625 8.6875 15.234375 7.390625 
Q 20.0625 6.109375 24.8125 6.109375 
Q 31.15625 6.109375 34.5625 8.28125 
Q 37.984375 10.453125 37.984375 14.40625 
Q 37.984375 18.0625 35.515625 20.015625 
Q 33.0625 21.96875 24.703125 23.78125 
L 21.578125 24.515625 
Q 13.234375 26.265625 9.515625 29.90625 
Q 5.8125 33.546875 5.8125 39.890625 
Q 5.8125 47.609375 11.28125 51.796875 
Q 16.75 56 26.8125 56 
Q 31.78125 56 36.171875 55.265625 
Q 40.578125 54.546875 44.28125 53.078125 
z
" id="DejaVuSans-115"/>
      <path d="M 18.109375 8.203125 
L 18.109375 -20.796875 
L 9.078125 -20.796875 
L 9.078125 54.6875 
L 18.109375 54.6875 
L 18.109375 46.390625 
Q 20.953125 51.265625 25.265625 53.625 
Q 29.59375 56 35.59375 56 
Q 45.5625 56 51.78125 48.09375 
Q 58.015625 40.1875 58.015625 27.296875 
Q 58.015625 14.40625 51.78125 6.484375 
Q 45.5625 -1.421875 35.59375 -1.421875 
Q 29.59375 -1.421875 25.265625 0.953125 
Q 20.953125 3.328125 18.109375 8.203125 
z
M 48.6875 27.296875 
Q 48.6875 37.203125 44.609375 42.84375 
Q 40.53125 48.484375 33.40625 48.484375 
Q 26.265625 48.484375 22.1875 42.84375 
Q 18.109375 37.203125 18.109375 27.296875 
Q 18.109375 17.390625 22.1875 11.75 
Q 26.265625 6.109375 33.40625 6.109375 
Q 40.53125 6.109375 44.609375 11.75 
Q 48.6875 17.390625 48.6875 27.296875 
z
" id="DejaVuSans-112"/>
      <path d="M 41.109375 46.296875 
Q 39.59375 47.171875 37.8125 47.578125 
Q 36.03125 48 33.890625 48 
Q 26.265625 48 22.1875 43.046875 
Q 18.109375 38.09375 18.109375 28.8125 
L 18.109375 0 
L 9.078125 0 
L 9.078125 54.6875 
L 18.109375 54.6875 
L 18.109375 46.1875 
Q 20.953125 51.171875 25.484375 53.578125 
Q 30.03125 56 36.53125 56 
Q 37.453125 56 38.578125 55.875 
Q 39.703125 55.765625 41.0625 55.515625 
z
" id="DejaVuSans-114"/>
      <path d="M 52 44.1875 
Q 55.375 50.25 60.0625 53.125 
Q 64.75 56 71.09375 56 
Q 79.640625 56 84.28125 50.015625 
Q 88.921875 44.046875 88.921875 33.015625 
L 88.921875 0 
L 79.890625 0 
L 79.890625 32.71875 
Q 79.890625 40.578125 77.09375 44.375 
Q 74.3125 48.1875 68.609375 48.1875 
Q 61.625 48.1875 57.5625 43.546875 
Q 53.515625 38.921875 53.515625 30.90625 
L 53.515625 0 
L 44.484375 0 
L 44.484375 32.71875 
Q 44.484375 40.625 41.703125 44.40625 
Q 38.921875 48.1875 33.109375 48.1875 
Q 26.21875 48.1875 22.15625 43.53125 
Q 18.109375 38.875 18.109375 30.90625 
L 18.109375 0 
L 9.078125 0 
L 9.078125 54.6875 
L 18.109375 54.6875 
L 18.109375 46.1875 
Q 21.1875 51.21875 25.484375 53.609375 
Q 29.78125 56 35.6875 56 
Q 41.65625 56 45.828125 52.96875 
Q 50 49.953125 52 44.1875 
z
" id="DejaVuSans-109"/>
      <path d="M 34.28125 27.484375 
Q 23.390625 27.484375 19.1875 25 
Q 14.984375 22.515625 14.984375 16.5 
Q 14.984375 11.71875 18.140625 8.90625 
Q 21.296875 6.109375 26.703125 6.109375 
Q 34.1875 6.109375 38.703125 11.40625 
Q 43.21875 16.703125 43.21875 25.484375 
L 43.21875 27.484375 
z
M 52.203125 31.203125 
L 52.203125 0 
L 43.21875 0 
L 43.21875 8.296875 
Q 40.140625 3.328125 35.546875 0.953125 
Q 30.953125 -1.421875 24.3125 -1.421875 
Q 15.921875 -1.421875 10.953125 3.296875 
Q 6 8.015625 6 15.921875 
Q 6 25.140625 12.171875 29.828125 
Q 18.359375 34.515625 30.609375 34.515625 
L 43.21875 34.515625 
L 43.21875 35.40625 
Q 43.21875 41.609375 39.140625 45 
Q 35.0625 48.390625 27.6875 48.390625 
Q 23 48.390625 18.546875 47.265625 
Q 14.109375 46.140625 10.015625 43.890625 
L 10.015625 52.203125 
Q 14.9375 54.109375 19.578125 55.046875 
Q 24.21875 56 28.609375 56 
Q 40.484375 56 46.34375 49.84375 
Q 52.203125 43.703125 52.203125 31.203125 
z
" id="DejaVuSans-97"/>
     </defs>
     <g transform="translate(40.975737 286.704063)rotate(-90)scale(0.18 -0.18)">
      <use xlink:href="#DejaVuSans-35"/>
      <use x="83.789062" xlink:href="#DejaVuSans-32"/>
      <use x="115.576172" xlink:href="#DejaVuSans-111"/>
      <use x="176.757812" xlink:href="#DejaVuSans-102"/>
      <use x="211.962891" xlink:href="#DejaVuSans-102"/>
      <use x="247.167969" xlink:href="#DejaVuSans-115"/>
      <use x="299.267578" xlink:href="#DejaVuSans-112"/>
      <use x="362.744141" xlink:href="#DejaVuSans-114"/>
      <use x="403.857422" xlink:href="#DejaVuSans-105"/>
      <use x="431.640625" xlink:href="#DejaVuSans-110"/>
      <use x="495.019531" xlink:href="#DejaVuSans-103"/>
      <use x="558.496094" xlink:href="#DejaVuSans-32"/>
      <use x="590.283203" xlink:href="#DejaVuSans-112"/>
      <use x="653.759766" xlink:href="#DejaVuSans-101"/>
      <use x="715.283203" xlink:href="#DejaVuSans-114"/>
      <use x="756.396484" xlink:href="#DejaVuSans-32"/>
      <use x="788.183594" xlink:href="#DejaVuSans-109"/>
      <use x="885.595703" xlink:href="#DejaVuSans-97"/>
      <use x="946.875" xlink:href="#DejaVuSans-116"/>
      <use x="986.083984" xlink:href="#DejaVuSans-105"/>
      <use x="1013.867188" xlink:href="#DejaVuSans-110"/>
      <use x="1077.246094" xlink:href="#DejaVuSans-103"/>
      <use x="1140.722656" xlink:href="#DejaVuSans-32"/>
      <use x="1172.509766" xlink:href="#DejaVuSans-112"/>
      <use x="1235.986328" xlink:href="#DejaVuSans-97"/>
      <use x="1297.265625" xlink:href="#DejaVuSans-105"/>
      <use x="1325.048828" xlink:href="#DejaVuSans-114"/>
     </g>
    </g>
   </g>
   <g id="PathCollection_2">
    <defs>
     <path d="M 0 5.075922 
C 1.34615 5.075922 2.637347 4.541091 3.589219 3.589219 
C 4.541091 2.637347 5.075922 1.34615 5.075922 0 
C 5.075922 -1.34615 4.541091 -2.637347 3.589219 -3.589219 
C 2.637347 -4.541091 1.34615 -5.075922 0 -5.075922 
C -1.34615 -5.075922 -2.637347 -4.541091 -3.589219 -3.589219 
C -4.541091 -2.637347 -5.075922 -1.34615 -5.075922 0 
C -5.075922 1.34615 -4.541091 2.637347 -3.589219 3.589219 
C -2.637347 4.541091 -1.34615 5.075922 0 5.075922 
z
" id="m2a2acc5214" style="stroke:#ff7f0e;stroke-width:3.0375;"/>
    </defs>
    <g clip-path="url(#p491112301c)">
     <use style="fill:#ff7f0e;stroke:#ff7f0e;stroke-width:3.0375;" x="118.541047" xlink:href="#m2a2acc5214" y="258.27629"/>
     <use style="fill:#ff7f0e;stroke:#ff7f0e;stroke-width:3.0375;" x="193.697505" xlink:href="#m2a2acc5214" y="174.939735"/>
     <use style="fill:#ff7f0e;stroke:#ff7f0e;stroke-width:3.0375;" x="268.853963" xlink:href="#m2a2acc5214" y="145.315784"/>
     <use style="fill:#ff7f0e;stroke:#ff7f0e;stroke-width:3.0375;" x="344.010422" xlink:href="#m2a2acc5214" y="157.13385"/>
    </g>
   </g>
   <g id="line2d_22">
    <path clip-path="url(#p491112301c)" d="M 118.541047 258.27629 
L 193.697505 174.939735 
L 268.853963 145.315784 
L 344.010422 157.13385 
" style="fill:none;stroke:#ff7f0e;stroke-linecap:square;stroke-width:4.05;"/>
   </g>
   <g id="line2d_23">
    <path clip-path="url(#p491112301c)" d="M 118.541047 276.759091 
L 118.541047 239.793489 
" style="fill:none;stroke:#ff7f0e;stroke-linecap:square;stroke-width:4.05;"/>
   </g>
   <g id="line2d_24">
    <path clip-path="url(#p491112301c)" d="M 114.783224 276.759091 
L 122.298869 276.759091 
" style="fill:none;stroke:#ff7f0e;stroke-linecap:square;stroke-width:4.05;"/>
   </g>
   <g id="line2d_25">
    <path clip-path="url(#p491112301c)" d="M 114.783224 239.793489 
L 122.298869 239.793489 
" style="fill:none;stroke:#ff7f0e;stroke-linecap:square;stroke-width:4.05;"/>
   </g>
   <g id="line2d_26">
    <path clip-path="url(#p491112301c)" d="M 193.697505 206.400956 
L 193.697505 143.478514 
" style="fill:none;stroke:#ff7f0e;stroke-linecap:square;stroke-width:4.05;"/>
   </g>
   <g id="line2d_27">
    <path clip-path="url(#p491112301c)" d="M 189.939682 206.400956 
L 197.455328 206.400956 
" style="fill:none;stroke:#ff7f0e;stroke-linecap:square;stroke-width:4.05;"/>
   </g>
   <g id="line2d_28">
    <path clip-path="url(#p491112301c)" d="M 189.939682 143.478514 
L 197.455328 143.478514 
" style="fill:none;stroke:#ff7f0e;stroke-linecap:square;stroke-width:4.05;"/>
   </g>
   <g id="line2d_29">
    <path clip-path="url(#p491112301c)" d="M 268.853963 205.333978 
L 268.853963 85.29759 
" style="fill:none;stroke:#ff7f0e;stroke-linecap:square;stroke-width:4.05;"/>
   </g>
   <g id="line2d_30">
    <path clip-path="url(#p491112301c)" d="M 265.09614 205.333978 
L 272.611786 205.333978 
" style="fill:none;stroke:#ff7f0e;stroke-linecap:square;stroke-width:4.05;"/>
   </g>
   <g id="line2d_31">
    <path clip-path="url(#p491112301c)" d="M 265.09614 85.29759 
L 272.611786 85.29759 
" style="fill:none;stroke:#ff7f0e;stroke-linecap:square;stroke-width:4.05;"/>
   </g>
   <g id="line2d_32">
    <path clip-path="url(#p491112301c)" d="M 344.010422 222.630721 
L 344.010422 91.636978 
" style="fill:none;stroke:#ff7f0e;stroke-linecap:square;stroke-width:4.05;"/>
   </g>
   <g id="line2d_33">
    <path clip-path="url(#p491112301c)" d="M 340.252599 222.630721 
L 347.768244 222.630721 
" style="fill:none;stroke:#ff7f0e;stroke-linecap:square;stroke-width:4.05;"/>
   </g>
   <g id="line2d_34">
    <path clip-path="url(#p491112301c)" d="M 340.252599 91.636978 
L 347.768244 91.636978 
" style="fill:none;stroke:#ff7f0e;stroke-linecap:square;stroke-width:4.05;"/>
   </g>
   <g id="patch_3">
    <path d="M 82.215425 288.06 
L 82.215425 39.44 
" style="fill:none;stroke:#000000;stroke-linecap:square;stroke-linejoin:miter;stroke-width:1.875;"/>
   </g>
   <g id="patch_4">
    <path d="M 82.215425 288.06 
L 382.841258 288.06 
" style="fill:none;stroke:#000000;stroke-linecap:square;stroke-linejoin:miter;stroke-width:1.875;"/>
   </g>
   <g id="PathCollection_3">
    <defs>
     <path d="M 0 5.075922 
C 1.34615 5.075922 2.637347 4.541091 3.589219 3.589219 
C 4.541091 2.637347 5.075922 1.34615 5.075922 0 
C 5.075922 -1.34615 4.541091 -2.637347 3.589219 -3.589219 
C 2.637347 -4.541091 1.34615 -5.075922 0 -5.075922 
C -1.34615 -5.075922 -2.637347 -4.541091 -3.589219 -3.589219 
C -4.541091 -2.637347 -5.075922 -1.34615 -5.075922 0 
C -5.075922 1.34615 -4.541091 2.637347 -3.589219 3.589219 
C -2.637347 4.541091 -1.34615 5.075922 0 5.075922 
z
" id="me86234675d" style="stroke:#2ca02c;stroke-width:3.0375;"/>
    </defs>
    <g clip-path="url(#p491112301c)">
     <use style="fill:#2ca02c;stroke:#2ca02c;stroke-width:3.0375;" x="121.046262" xlink:href="#me86234675d" y="263.338866"/>
     <use style="fill:#2ca02c;stroke:#2ca02c;stroke-width:3.0375;" x="196.20272" xlink:href="#me86234675d" y="202.200073"/>
     <use style="fill:#2ca02c;stroke:#2ca02c;stroke-width:3.0375;" x="271.359178" xlink:href="#me86234675d" y="173.048845"/>
     <use style="fill:#2ca02c;stroke:#2ca02c;stroke-width:3.0375;" x="346.515637" xlink:href="#me86234675d" y="148.467268"/>
    </g>
   </g>
   <g id="line2d_35">
    <path clip-path="url(#p491112301c)" d="M 121.046262 263.338866 
L 196.20272 202.200073 
L 271.359178 173.048845 
L 346.515637 148.467268 
" style="fill:none;stroke:#2ca02c;stroke-linecap:square;stroke-width:4.05;"/>
   </g>
   <g id="line2d_36">
    <path clip-path="url(#p491112301c)" d="M 121.046262 276.285868 
L 121.046262 250.391865 
" style="fill:none;stroke:#2ca02c;stroke-linecap:square;stroke-width:4.05;"/>
   </g>
   <g id="line2d_37">
    <path clip-path="url(#p491112301c)" d="M 117.288439 276.285868 
L 124.804085 276.285868 
" style="fill:none;stroke:#2ca02c;stroke-linecap:square;stroke-width:4.05;"/>
   </g>
   <g id="line2d_38">
    <path clip-path="url(#p491112301c)" d="M 117.288439 250.391865 
L 124.804085 250.391865 
" style="fill:none;stroke:#2ca02c;stroke-linecap:square;stroke-width:4.05;"/>
   </g>
   <g id="line2d_39">
    <path clip-path="url(#p491112301c)" d="M 196.20272 237.791968 
L 196.20272 166.608179 
" style="fill:none;stroke:#2ca02c;stroke-linecap:square;stroke-width:4.05;"/>
   </g>
   <g id="line2d_40">
    <path clip-path="url(#p491112301c)" d="M 192.444897 237.791968 
L 199.960543 237.791968 
" style="fill:none;stroke:#2ca02c;stroke-linecap:square;stroke-width:4.05;"/>
   </g>
   <g id="line2d_41">
    <path clip-path="url(#p491112301c)" d="M 192.444897 166.608179 
L 199.960543 166.608179 
" style="fill:none;stroke:#2ca02c;stroke-linecap:square;stroke-width:4.05;"/>
   </g>
   <g id="line2d_42">
    <path clip-path="url(#p491112301c)" d="M 271.359178 239.530223 
L 271.359178 106.567466 
" style="fill:none;stroke:#2ca02c;stroke-linecap:square;stroke-width:4.05;"/>
   </g>
   <g id="line2d_43">
    <path clip-path="url(#p491112301c)" d="M 267.601356 239.530223 
L 275.117001 239.530223 
" style="fill:none;stroke:#2ca02c;stroke-linecap:square;stroke-width:4.05;"/>
   </g>
   <g id="line2d_44">
    <path clip-path="url(#p491112301c)" d="M 267.601356 106.567466 
L 275.117001 106.567466 
" style="fill:none;stroke:#2ca02c;stroke-linecap:square;stroke-width:4.05;"/>
   </g>
   <g id="line2d_45">
    <path clip-path="url(#p491112301c)" d="M 346.515637 209.956754 
L 346.515637 86.977782 
" style="fill:none;stroke:#2ca02c;stroke-linecap:square;stroke-width:4.05;"/>
   </g>
   <g id="line2d_46">
    <path clip-path="url(#p491112301c)" d="M 342.757814 209.956754 
L 350.27346 209.956754 
" style="fill:none;stroke:#2ca02c;stroke-linecap:square;stroke-width:4.05;"/>
   </g>
   <g id="line2d_47">
    <path clip-path="url(#p491112301c)" d="M 342.757814 86.977782 
L 350.27346 86.977782 
" style="fill:none;stroke:#2ca02c;stroke-linecap:square;stroke-width:4.05;"/>
   </g>
   <g id="text_11">
    <!-- Popn = MC -->
    <defs>
     <path d="M 19.671875 64.796875 
L 19.671875 37.40625 
L 32.078125 37.40625 
Q 38.96875 37.40625 42.71875 40.96875 
Q 46.484375 44.53125 46.484375 51.125 
Q 46.484375 57.671875 42.71875 61.234375 
Q 38.96875 64.796875 32.078125 64.796875 
z
M 9.8125 72.90625 
L 32.078125 72.90625 
Q 44.34375 72.90625 50.609375 67.359375 
Q 56.890625 61.8125 56.890625 51.125 
Q 56.890625 40.328125 50.609375 34.8125 
Q 44.34375 29.296875 32.078125 29.296875 
L 19.671875 29.296875 
L 19.671875 0 
L 9.8125 0 
z
" id="DejaVuSans-80"/>
     <path d="M 10.59375 45.40625 
L 73.1875 45.40625 
L 73.1875 37.203125 
L 10.59375 37.203125 
z
M 10.59375 25.484375 
L 73.1875 25.484375 
L 73.1875 17.1875 
L 10.59375 17.1875 
z
" id="DejaVuSans-61"/>
     <path d="M 9.8125 72.90625 
L 24.515625 72.90625 
L 43.109375 23.296875 
L 61.8125 72.90625 
L 76.515625 72.90625 
L 76.515625 0 
L 66.890625 0 
L 66.890625 64.015625 
L 48.09375 14.015625 
L 38.1875 14.015625 
L 19.390625 64.015625 
L 19.390625 0 
L 9.8125 0 
z
" id="DejaVuSans-77"/>
     <path d="M 64.40625 67.28125 
L 64.40625 56.890625 
Q 59.421875 61.53125 53.78125 63.8125 
Q 48.140625 66.109375 41.796875 66.109375 
Q 29.296875 66.109375 22.65625 58.46875 
Q 16.015625 50.828125 16.015625 36.375 
Q 16.015625 21.96875 22.65625 14.328125 
Q 29.296875 6.6875 41.796875 6.6875 
Q 48.140625 6.6875 53.78125 8.984375 
Q 59.421875 11.28125 64.40625 15.921875 
L 64.40625 5.609375 
Q 59.234375 2.09375 53.4375 0.328125 
Q 47.65625 -1.421875 41.21875 -1.421875 
Q 24.65625 -1.421875 15.125 8.703125 
Q 5.609375 18.84375 5.609375 36.375 
Q 5.609375 53.953125 15.125 64.078125 
Q 24.65625 74.21875 41.21875 74.21875 
Q 47.75 74.21875 53.53125 72.484375 
Q 59.328125 70.75 64.40625 67.28125 
z
" id="DejaVuSans-67"/>
    </defs>
    <g transform="translate(183.191467 33.44)scale(0.18 -0.18)">
     <use xlink:href="#DejaVuSans-80"/>
     <use x="56.677734" xlink:href="#DejaVuSans-111"/>
     <use x="117.859375" xlink:href="#DejaVuSans-112"/>
     <use x="181.335938" xlink:href="#DejaVuSans-110"/>
     <use x="244.714844" xlink:href="#DejaVuSans-32"/>
     <use x="276.501953" xlink:href="#DejaVuSans-61"/>
     <use x="360.291016" xlink:href="#DejaVuSans-32"/>
     <use x="392.078125" xlink:href="#DejaVuSans-77"/>
     <use x="478.357422" xlink:href="#DejaVuSans-67"/>
    </g>
   </g>
   <g id="PathCollection_4">
    <defs>
     <path d="M 0 5.075922 
C 1.34615 5.075922 2.637347 4.541091 3.589219 3.589219 
C 4.541091 2.637347 5.075922 1.34615 5.075922 0 
C 5.075922 -1.34615 4.541091 -2.637347 3.589219 -3.589219 
C 2.637347 -4.541091 1.34615 -5.075922 0 -5.075922 
C -1.34615 -5.075922 -2.637347 -4.541091 -3.589219 -3.589219 
C -4.541091 -2.637347 -5.075922 -1.34615 -5.075922 0 
C -5.075922 1.34615 -4.541091 2.637347 -3.589219 3.589219 
C -2.637347 4.541091 -1.34615 5.075922 0 5.075922 
z
" id="mdb13f7f31c" style="stroke:#d62728;stroke-width:3.0375;"/>
    </defs>
    <g clip-path="url(#p491112301c)">
     <use style="fill:#d62728;stroke:#d62728;stroke-width:3.0375;" x="123.551477" xlink:href="#mdb13f7f31c" y="254.278349"/>
     <use style="fill:#d62728;stroke:#d62728;stroke-width:3.0375;" x="198.707935" xlink:href="#mdb13f7f31c" y="151.382391"/>
     <use style="fill:#d62728;stroke:#d62728;stroke-width:3.0375;" x="273.864394" xlink:href="#mdb13f7f31c" y="153.746004"/>
    </g>
   </g>
   <g id="line2d_48">
    <path clip-path="url(#p491112301c)" d="M 123.551477 254.278349 
L 198.707935 151.382391 
L 273.864394 153.746004 
" style="fill:none;stroke:#d62728;stroke-linecap:square;stroke-width:4.05;"/>
   </g>
   <g id="line2d_49">
    <path clip-path="url(#p491112301c)" d="M 123.551477 272.909292 
L 123.551477 235.647406 
" style="fill:none;stroke:#d62728;stroke-linecap:square;stroke-width:4.05;"/>
   </g>
   <g id="line2d_50">
    <path clip-path="url(#p491112301c)" d="M 119.793654 272.909292 
L 127.3093 272.909292 
" style="fill:none;stroke:#d62728;stroke-linecap:square;stroke-width:4.05;"/>
   </g>
   <g id="line2d_51">
    <path clip-path="url(#p491112301c)" d="M 119.793654 235.647406 
L 127.3093 235.647406 
" style="fill:none;stroke:#d62728;stroke-linecap:square;stroke-width:4.05;"/>
   </g>
   <g id="line2d_52">
    <path clip-path="url(#p491112301c)" d="M 198.707935 196.71826 
L 198.707935 106.046522 
" style="fill:none;stroke:#d62728;stroke-linecap:square;stroke-width:4.05;"/>
   </g>
   <g id="line2d_53">
    <path clip-path="url(#p491112301c)" d="M 194.950112 196.71826 
L 202.465758 196.71826 
" style="fill:none;stroke:#d62728;stroke-linecap:square;stroke-width:4.05;"/>
   </g>
   <g id="line2d_54">
    <path clip-path="url(#p491112301c)" d="M 194.950112 106.046522 
L 202.465758 106.046522 
" style="fill:none;stroke:#d62728;stroke-linecap:square;stroke-width:4.05;"/>
   </g>
   <g id="line2d_55">
    <path clip-path="url(#p491112301c)" d="M 273.864394 208.198724 
L 273.864394 99.293284 
" style="fill:none;stroke:#d62728;stroke-linecap:square;stroke-width:4.05;"/>
   </g>
   <g id="line2d_56">
    <path clip-path="url(#p491112301c)" d="M 270.106571 208.198724 
L 277.622217 208.198724 
" style="fill:none;stroke:#d62728;stroke-linecap:square;stroke-width:4.05;"/>
   </g>
   <g id="line2d_57">
    <path clip-path="url(#p491112301c)" d="M 270.106571 99.293284 
L 277.622217 99.293284 
" style="fill:none;stroke:#d62728;stroke-linecap:square;stroke-width:4.05;"/>
   </g>
   <g id="line2d_58">
    <path clip-path="url(#p491112301c)" d="M 0 0 
" style="fill:none;stroke:#d62728;stroke-linecap:square;stroke-width:4.05;"/>
   </g>
   <g id="line2d_59">
    <path clip-path="url(#p491112301c)" d="M 0 0 
" style="fill:none;stroke:#d62728;stroke-linecap:square;stroke-width:4.05;"/>
   </g>
   <g id="line2d_60">
    <path clip-path="url(#p491112301c)" d="M 0 0 
" style="fill:none;stroke:#d62728;stroke-linecap:square;stroke-width:4.05;"/>
   </g>
  </g>
  <g id="axes_2">
   <g id="patch_5">
    <path d="M 411.475167 288.06 
L 712.101 288.06 
L 712.101 39.44 
L 411.475167 39.44 
z
" style="fill:#ffffff;"/>
   </g>
   <g id="PathCollection_5">
    <g clip-path="url(#pc5b7376f14)">
     <use style="fill:#1f77b4;stroke:#1f77b4;stroke-width:3.0375;" x="445.295573" xlink:href="#m3c9264fd69" y="247.502658"/>
     <use style="fill:#1f77b4;stroke:#1f77b4;stroke-width:3.0375;" x="520.452031" xlink:href="#m3c9264fd69" y="157.527785"/>
     <use style="fill:#1f77b4;stroke:#1f77b4;stroke-width:3.0375;" x="595.60849" xlink:href="#m3c9264fd69" y="102.298025"/>
     <use style="fill:#1f77b4;stroke:#1f77b4;stroke-width:3.0375;" x="670.764948" xlink:href="#m3c9264fd69" y="117.503936"/>
    </g>
   </g>
   <g id="line2d_61">
    <path clip-path="url(#pc5b7376f14)" d="M 445.295573 247.502658 
L 520.452031 157.527785 
L 595.60849 102.298025 
L 670.764948 117.503936 
" style="fill:none;stroke:#1f77b4;stroke-linecap:square;stroke-width:4.05;"/>
   </g>
   <g id="line2d_62">
    <path clip-path="url(#pc5b7376f14)" d="M 445.295573 258.268275 
L 445.295573 236.737041 
" style="fill:none;stroke:#1f77b4;stroke-linecap:square;stroke-width:4.05;"/>
   </g>
   <g id="line2d_63">
    <path clip-path="url(#pc5b7376f14)" d="M 441.53775 258.268275 
L 449.053396 258.268275 
" style="fill:none;stroke:#1f77b4;stroke-linecap:square;stroke-width:4.05;"/>
   </g>
   <g id="line2d_64">
    <path clip-path="url(#pc5b7376f14)" d="M 441.53775 236.737041 
L 449.053396 236.737041 
" style="fill:none;stroke:#1f77b4;stroke-linecap:square;stroke-width:4.05;"/>
   </g>
   <g id="line2d_65">
    <path clip-path="url(#pc5b7376f14)" d="M 520.452031 191.554238 
L 520.452031 123.501332 
" style="fill:none;stroke:#1f77b4;stroke-linecap:square;stroke-width:4.05;"/>
   </g>
   <g id="line2d_66">
    <path clip-path="url(#pc5b7376f14)" d="M 516.694208 191.554238 
L 524.209854 191.554238 
" style="fill:none;stroke:#1f77b4;stroke-linecap:square;stroke-width:4.05;"/>
   </g>
   <g id="line2d_67">
    <path clip-path="url(#pc5b7376f14)" d="M 516.694208 123.501332 
L 524.209854 123.501332 
" style="fill:none;stroke:#1f77b4;stroke-linecap:square;stroke-width:4.05;"/>
   </g>
   <g id="line2d_68">
    <path clip-path="url(#pc5b7376f14)" d="M 595.60849 153.855141 
L 595.60849 50.740909 
" style="fill:none;stroke:#1f77b4;stroke-linecap:square;stroke-width:4.05;"/>
   </g>
   <g id="line2d_69">
    <path clip-path="url(#pc5b7376f14)" d="M 591.850667 153.855141 
L 599.366313 153.855141 
" style="fill:none;stroke:#1f77b4;stroke-linecap:square;stroke-width:4.05;"/>
   </g>
   <g id="line2d_70">
    <path clip-path="url(#pc5b7376f14)" d="M 591.850667 50.740909 
L 599.366313 50.740909 
" style="fill:none;stroke:#1f77b4;stroke-linecap:square;stroke-width:4.05;"/>
   </g>
   <g id="line2d_71">
    <path clip-path="url(#pc5b7376f14)" d="M 670.764948 168.273101 
L 670.764948 66.734771 
" style="fill:none;stroke:#1f77b4;stroke-linecap:square;stroke-width:4.05;"/>
   </g>
   <g id="line2d_72">
    <path clip-path="url(#pc5b7376f14)" d="M 667.007125 168.273101 
L 674.522771 168.273101 
" style="fill:none;stroke:#1f77b4;stroke-linecap:square;stroke-width:4.05;"/>
   </g>
   <g id="line2d_73">
    <path clip-path="url(#pc5b7376f14)" d="M 667.007125 66.734771 
L 674.522771 66.734771 
" style="fill:none;stroke:#1f77b4;stroke-linecap:square;stroke-width:4.05;"/>
   </g>
   <g id="matplotlib.axis_3">
    <g id="xtick_5">
     <g id="line2d_74">
      <g>
       <use style="stroke:#000000;stroke-width:1.875;" x="449.053396" xlink:href="#m3e0a99cd57" y="288.06"/>
      </g>
     </g>
     <g id="text_12">
      <!-- lowY -->
      <g transform="translate(429.927576 313.097422)scale(0.165 -0.165)">
       <use xlink:href="#DejaVuSans-108"/>
       <use x="27.783203" xlink:href="#DejaVuSans-111"/>
       <use x="88.964844" xlink:href="#DejaVuSans-119"/>
       <use x="170.751953" xlink:href="#DejaVuSans-89"/>
      </g>
     </g>
    </g>
    <g id="xtick_6">
     <g id="line2d_75">
      <g>
       <use style="stroke:#000000;stroke-width:1.875;" x="524.209854" xlink:href="#m3e0a99cd57" y="288.06"/>
      </g>
     </g>
     <g id="text_13">
      <!-- eqY -->
      <g transform="translate(508.85712 313.097422)scale(0.165 -0.165)">
       <use xlink:href="#DejaVuSans-101"/>
       <use x="61.523438" xlink:href="#DejaVuSans-113"/>
       <use x="125" xlink:href="#DejaVuSans-89"/>
      </g>
     </g>
    </g>
    <g id="xtick_7">
     <g id="line2d_76">
      <g>
       <use style="stroke:#000000;stroke-width:1.875;" x="599.366313" xlink:href="#m3e0a99cd57" y="288.06"/>
      </g>
     </g>
     <g id="text_14">
      <!-- highY -->
      <g transform="translate(576.341078 313.097422)scale(0.165 -0.165)">
       <use xlink:href="#DejaVuSans-104"/>
       <use x="63.378906" xlink:href="#DejaVuSans-105"/>
       <use x="91.162109" xlink:href="#DejaVuSans-103"/>
       <use x="154.638672" xlink:href="#DejaVuSans-104"/>
       <use x="218.017578" xlink:href="#DejaVuSans-89"/>
      </g>
     </g>
    </g>
    <g id="xtick_8">
     <g id="line2d_77">
      <g>
       <use style="stroke:#000000;stroke-width:1.875;" x="674.522771" xlink:href="#m3e0a99cd57" y="288.06"/>
      </g>
     </g>
     <g id="text_15">
      <!-- onlyY -->
      <g transform="translate(652.032497 313.097422)scale(0.165 -0.165)">
       <use xlink:href="#DejaVuSans-111"/>
       <use x="61.181641" xlink:href="#DejaVuSans-110"/>
       <use x="124.560547" xlink:href="#DejaVuSans-108"/>
       <use x="152.34375" xlink:href="#DejaVuSans-121"/>
       <use x="211.523438" xlink:href="#DejaVuSans-89"/>
      </g>
     </g>
    </g>
    <g id="text_16">
     <!-- Diet -->
     <g transform="translate(543.291677 334.206094)scale(0.18 -0.18)">
      <use xlink:href="#DejaVuSans-68"/>
      <use x="77.001953" xlink:href="#DejaVuSans-105"/>
      <use x="104.785156" xlink:href="#DejaVuSans-101"/>
      <use x="166.308594" xlink:href="#DejaVuSans-116"/>
     </g>
    </g>
   </g>
   <g id="matplotlib.axis_4">
    <g id="ytick_5">
     <g id="line2d_78">
      <g>
       <use style="stroke:#000000;stroke-width:1.875;" x="411.475167" xlink:href="#m5f6e7a9f60" y="287.44772"/>
      </g>
     </g>
    </g>
    <g id="ytick_6">
     <g id="line2d_79">
      <g>
       <use style="stroke:#000000;stroke-width:1.875;" x="411.475167" xlink:href="#m5f6e7a9f60" y="224.418037"/>
      </g>
     </g>
    </g>
    <g id="ytick_7">
     <g id="line2d_80">
      <g>
       <use style="stroke:#000000;stroke-width:1.875;" x="411.475167" xlink:href="#m5f6e7a9f60" y="161.388353"/>
      </g>
     </g>
    </g>
    <g id="ytick_8">
     <g id="line2d_81">
      <g>
       <use style="stroke:#000000;stroke-width:1.875;" x="411.475167" xlink:href="#m5f6e7a9f60" y="98.35867"/>
      </g>
     </g>
    </g>
   </g>
   <g id="PathCollection_6">
    <g clip-path="url(#pc5b7376f14)">
     <use style="fill:#ff7f0e;stroke:#ff7f0e;stroke-width:3.0375;" x="447.800788" xlink:href="#m2a2acc5214" y="256.660144"/>
     <use style="fill:#ff7f0e;stroke:#ff7f0e;stroke-width:3.0375;" x="522.957247" xlink:href="#m2a2acc5214" y="171.867038"/>
     <use style="fill:#ff7f0e;stroke:#ff7f0e;stroke-width:3.0375;" x="598.113705" xlink:href="#m2a2acc5214" y="138.224944"/>
     <use style="fill:#ff7f0e;stroke:#ff7f0e;stroke-width:3.0375;" x="673.270163" xlink:href="#m2a2acc5214" y="120.025123"/>
    </g>
   </g>
   <g id="line2d_82">
    <path clip-path="url(#pc5b7376f14)" d="M 447.800788 256.660144 
L 522.957247 171.867038 
L 598.113705 138.224944 
L 673.270163 120.025123 
" style="fill:none;stroke:#ff7f0e;stroke-linecap:square;stroke-width:4.05;"/>
   </g>
   <g id="line2d_83">
    <path clip-path="url(#pc5b7376f14)" d="M 447.800788 271.311466 
L 447.800788 242.008823 
" style="fill:none;stroke:#ff7f0e;stroke-linecap:square;stroke-width:4.05;"/>
   </g>
   <g id="line2d_84">
    <path clip-path="url(#pc5b7376f14)" d="M 444.042965 271.311466 
L 451.558611 271.311466 
" style="fill:none;stroke:#ff7f0e;stroke-linecap:square;stroke-width:4.05;"/>
   </g>
   <g id="line2d_85">
    <path clip-path="url(#pc5b7376f14)" d="M 444.042965 242.008823 
L 451.558611 242.008823 
" style="fill:none;stroke:#ff7f0e;stroke-linecap:square;stroke-width:4.05;"/>
   </g>
   <g id="line2d_86">
    <path clip-path="url(#pc5b7376f14)" d="M 522.957247 209.909953 
L 522.957247 133.824124 
" style="fill:none;stroke:#ff7f0e;stroke-linecap:square;stroke-width:4.05;"/>
   </g>
   <g id="line2d_87">
    <path clip-path="url(#pc5b7376f14)" d="M 519.199424 209.909953 
L 526.715069 209.909953 
" style="fill:none;stroke:#ff7f0e;stroke-linecap:square;stroke-width:4.05;"/>
   </g>
   <g id="line2d_88">
    <path clip-path="url(#pc5b7376f14)" d="M 519.199424 133.824124 
L 526.715069 133.824124 
" style="fill:none;stroke:#ff7f0e;stroke-linecap:square;stroke-width:4.05;"/>
   </g>
   <g id="line2d_89">
    <path clip-path="url(#pc5b7376f14)" d="M 598.113705 205.35803 
L 598.113705 71.091859 
" style="fill:none;stroke:#ff7f0e;stroke-linecap:square;stroke-width:4.05;"/>
   </g>
   <g id="line2d_90">
    <path clip-path="url(#pc5b7376f14)" d="M 594.355882 205.35803 
L 601.871528 205.35803 
" style="fill:none;stroke:#ff7f0e;stroke-linecap:square;stroke-width:4.05;"/>
   </g>
   <g id="line2d_91">
    <path clip-path="url(#pc5b7376f14)" d="M 594.355882 71.091859 
L 601.871528 71.091859 
" style="fill:none;stroke:#ff7f0e;stroke-linecap:square;stroke-width:4.05;"/>
   </g>
   <g id="line2d_92">
    <path clip-path="url(#pc5b7376f14)" d="M 673.270163 180.35439 
L 673.270163 59.695856 
" style="fill:none;stroke:#ff7f0e;stroke-linecap:square;stroke-width:4.05;"/>
   </g>
   <g id="line2d_93">
    <path clip-path="url(#pc5b7376f14)" d="M 669.51234 180.35439 
L 677.027986 180.35439 
" style="fill:none;stroke:#ff7f0e;stroke-linecap:square;stroke-width:4.05;"/>
   </g>
   <g id="line2d_94">
    <path clip-path="url(#pc5b7376f14)" d="M 669.51234 59.695856 
L 677.027986 59.695856 
" style="fill:none;stroke:#ff7f0e;stroke-linecap:square;stroke-width:4.05;"/>
   </g>
   <g id="patch_6">
    <path d="M 411.475167 288.06 
L 411.475167 39.44 
" style="fill:none;stroke:#000000;stroke-linecap:square;stroke-linejoin:miter;stroke-width:1.875;"/>
   </g>
   <g id="patch_7">
    <path d="M 411.475167 288.06 
L 712.101 288.06 
" style="fill:none;stroke:#000000;stroke-linecap:square;stroke-linejoin:miter;stroke-width:1.875;"/>
   </g>
   <g id="PathCollection_7">
    <g clip-path="url(#pc5b7376f14)">
     <use style="fill:#2ca02c;stroke:#2ca02c;stroke-width:3.0375;" x="450.306003" xlink:href="#me86234675d" y="258.690427"/>
     <use style="fill:#2ca02c;stroke:#2ca02c;stroke-width:3.0375;" x="525.462462" xlink:href="#me86234675d" y="180.297258"/>
     <use style="fill:#2ca02c;stroke:#2ca02c;stroke-width:3.0375;" x="600.61892" xlink:href="#me86234675d" y="186.757801"/>
     <use style="fill:#2ca02c;stroke:#2ca02c;stroke-width:3.0375;" x="675.775378" xlink:href="#me86234675d" y="163.121669"/>
    </g>
   </g>
   <g id="line2d_95">
    <path clip-path="url(#pc5b7376f14)" d="M 450.306003 258.690427 
L 525.462462 180.297258 
L 600.61892 186.757801 
L 675.775378 163.121669 
" style="fill:none;stroke:#2ca02c;stroke-linecap:square;stroke-width:4.05;"/>
   </g>
   <g id="line2d_96">
    <path clip-path="url(#pc5b7376f14)" d="M 450.306003 270.674099 
L 450.306003 246.706756 
" style="fill:none;stroke:#2ca02c;stroke-linecap:square;stroke-width:4.05;"/>
   </g>
   <g id="line2d_97">
    <path clip-path="url(#pc5b7376f14)" d="M 446.548181 270.674099 
L 454.063826 270.674099 
" style="fill:none;stroke:#2ca02c;stroke-linecap:square;stroke-width:4.05;"/>
   </g>
   <g id="line2d_98">
    <path clip-path="url(#pc5b7376f14)" d="M 446.548181 246.706756 
L 454.063826 246.706756 
" style="fill:none;stroke:#2ca02c;stroke-linecap:square;stroke-width:4.05;"/>
   </g>
   <g id="line2d_99">
    <path clip-path="url(#pc5b7376f14)" d="M 525.462462 221.133003 
L 525.462462 139.461514 
" style="fill:none;stroke:#2ca02c;stroke-linecap:square;stroke-width:4.05;"/>
   </g>
   <g id="line2d_100">
    <path clip-path="url(#pc5b7376f14)" d="M 521.704639 221.133003 
L 529.220285 221.133003 
" style="fill:none;stroke:#2ca02c;stroke-linecap:square;stroke-width:4.05;"/>
   </g>
   <g id="line2d_101">
    <path clip-path="url(#pc5b7376f14)" d="M 521.704639 139.461514 
L 529.220285 139.461514 
" style="fill:none;stroke:#2ca02c;stroke-linecap:square;stroke-width:4.05;"/>
   </g>
   <g id="line2d_102">
    <path clip-path="url(#pc5b7376f14)" d="M 600.61892 251.673594 
L 600.61892 121.842008 
" style="fill:none;stroke:#2ca02c;stroke-linecap:square;stroke-width:4.05;"/>
   </g>
   <g id="line2d_103">
    <path clip-path="url(#pc5b7376f14)" d="M 596.861097 251.673594 
L 604.376743 251.673594 
" style="fill:none;stroke:#2ca02c;stroke-linecap:square;stroke-width:4.05;"/>
   </g>
   <g id="line2d_104">
    <path clip-path="url(#pc5b7376f14)" d="M 596.861097 121.842008 
L 604.376743 121.842008 
" style="fill:none;stroke:#2ca02c;stroke-linecap:square;stroke-width:4.05;"/>
   </g>
   <g id="line2d_105">
    <path clip-path="url(#pc5b7376f14)" d="M 675.775378 225.493793 
L 675.775378 100.749546 
" style="fill:none;stroke:#2ca02c;stroke-linecap:square;stroke-width:4.05;"/>
   </g>
   <g id="line2d_106">
    <path clip-path="url(#pc5b7376f14)" d="M 672.017556 225.493793 
L 679.533201 225.493793 
" style="fill:none;stroke:#2ca02c;stroke-linecap:square;stroke-width:4.05;"/>
   </g>
   <g id="line2d_107">
    <path clip-path="url(#pc5b7376f14)" d="M 672.017556 100.749546 
L 679.533201 100.749546 
" style="fill:none;stroke:#2ca02c;stroke-linecap:square;stroke-width:4.05;"/>
   </g>
   <g id="text_17">
    <!-- Popn = VBC -->
    <defs>
     <path d="M 28.609375 0 
L 0.78125 72.90625 
L 11.078125 72.90625 
L 34.1875 11.53125 
L 57.328125 72.90625 
L 67.578125 72.90625 
L 39.796875 0 
z
" id="DejaVuSans-86"/>
     <path d="M 19.671875 34.8125 
L 19.671875 8.109375 
L 35.5 8.109375 
Q 43.453125 8.109375 47.28125 11.40625 
Q 51.125 14.703125 51.125 21.484375 
Q 51.125 28.328125 47.28125 31.5625 
Q 43.453125 34.8125 35.5 34.8125 
z
M 19.671875 64.796875 
L 19.671875 42.828125 
L 34.28125 42.828125 
Q 41.5 42.828125 45.03125 45.53125 
Q 48.578125 48.25 48.578125 53.8125 
Q 48.578125 59.328125 45.03125 62.0625 
Q 41.5 64.796875 34.28125 64.796875 
z
M 9.8125 72.90625 
L 35.015625 72.90625 
Q 46.296875 72.90625 52.390625 68.21875 
Q 58.5 63.53125 58.5 54.890625 
Q 58.5 48.1875 55.375 44.234375 
Q 52.25 40.28125 46.1875 39.3125 
Q 53.46875 37.75 57.5 32.78125 
Q 61.53125 27.828125 61.53125 20.40625 
Q 61.53125 10.640625 54.890625 5.3125 
Q 48.25 0 35.984375 0 
L 9.8125 0 
z
" id="DejaVuSans-66"/>
    </defs>
    <g transform="translate(508.042615 33.44)scale(0.18 -0.18)">
     <use xlink:href="#DejaVuSans-80"/>
     <use x="56.677734" xlink:href="#DejaVuSans-111"/>
     <use x="117.859375" xlink:href="#DejaVuSans-112"/>
     <use x="181.335938" xlink:href="#DejaVuSans-110"/>
     <use x="244.714844" xlink:href="#DejaVuSans-32"/>
     <use x="276.501953" xlink:href="#DejaVuSans-61"/>
     <use x="360.291016" xlink:href="#DejaVuSans-32"/>
     <use x="392.078125" xlink:href="#DejaVuSans-86"/>
     <use x="460.486328" xlink:href="#DejaVuSans-66"/>
     <use x="527.339844" xlink:href="#DejaVuSans-67"/>
    </g>
   </g>
   <g id="PathCollection_8">
    <g clip-path="url(#pc5b7376f14)">
     <use style="fill:#d62728;stroke:#d62728;stroke-width:3.0375;" x="452.811219" xlink:href="#mdb13f7f31c" y="255.538943"/>
     <use style="fill:#d62728;stroke:#d62728;stroke-width:3.0375;" x="527.967677" xlink:href="#mdb13f7f31c" y="157.685359"/>
     <use style="fill:#d62728;stroke:#d62728;stroke-width:3.0375;" x="603.124135" xlink:href="#mdb13f7f31c" y="148.546055"/>
    </g>
   </g>
   <g id="line2d_108">
    <path clip-path="url(#pc5b7376f14)" d="M 452.811219 255.538943 
L 527.967677 157.685359 
L 603.124135 148.546055 
" style="fill:none;stroke:#d62728;stroke-linecap:square;stroke-width:4.05;"/>
   </g>
   <g id="line2d_109">
    <path clip-path="url(#pc5b7376f14)" d="M 452.811219 268.168248 
L 452.811219 242.909638 
" style="fill:none;stroke:#d62728;stroke-linecap:square;stroke-width:4.05;"/>
   </g>
   <g id="line2d_110">
    <path clip-path="url(#pc5b7376f14)" d="M 449.053396 268.168248 
L 456.569042 268.168248 
" style="fill:none;stroke:#d62728;stroke-linecap:square;stroke-width:4.05;"/>
   </g>
   <g id="line2d_111">
    <path clip-path="url(#pc5b7376f14)" d="M 449.053396 242.909638 
L 456.569042 242.909638 
" style="fill:none;stroke:#d62728;stroke-linecap:square;stroke-width:4.05;"/>
   </g>
   <g id="line2d_112">
    <path clip-path="url(#pc5b7376f14)" d="M 527.967677 185.140263 
L 527.967677 130.230455 
" style="fill:none;stroke:#d62728;stroke-linecap:square;stroke-width:4.05;"/>
   </g>
   <g id="line2d_113">
    <path clip-path="url(#pc5b7376f14)" d="M 524.209854 185.140263 
L 531.7255 185.140263 
" style="fill:none;stroke:#d62728;stroke-linecap:square;stroke-width:4.05;"/>
   </g>
   <g id="line2d_114">
    <path clip-path="url(#pc5b7376f14)" d="M 524.209854 130.230455 
L 531.7255 130.230455 
" style="fill:none;stroke:#d62728;stroke-linecap:square;stroke-width:4.05;"/>
   </g>
   <g id="line2d_115">
    <path clip-path="url(#pc5b7376f14)" d="M 603.124135 196.64305 
L 603.124135 100.449061 
" style="fill:none;stroke:#d62728;stroke-linecap:square;stroke-width:4.05;"/>
   </g>
   <g id="line2d_116">
    <path clip-path="url(#pc5b7376f14)" d="M 599.366313 196.64305 
L 606.881958 196.64305 
" style="fill:none;stroke:#d62728;stroke-linecap:square;stroke-width:4.05;"/>
   </g>
   <g id="line2d_117">
    <path clip-path="url(#pc5b7376f14)" d="M 599.366313 100.449061 
L 606.881958 100.449061 
" style="fill:none;stroke:#d62728;stroke-linecap:square;stroke-width:4.05;"/>
   </g>
   <g id="line2d_118">
    <path clip-path="url(#pc5b7376f14)" d="M 0 0 
" style="fill:none;stroke:#d62728;stroke-linecap:square;stroke-width:4.05;"/>
   </g>
   <g id="line2d_119">
    <path clip-path="url(#pc5b7376f14)" d="M 0 0 
" style="fill:none;stroke:#d62728;stroke-linecap:square;stroke-width:4.05;"/>
   </g>
   <g id="line2d_120">
    <path clip-path="url(#pc5b7376f14)" d="M 0 0 
" style="fill:none;stroke:#d62728;stroke-linecap:square;stroke-width:4.05;"/>
   </g>
  </g>
  <g id="legend_1">
   <g id="text_18">
    <!-- Block -->
    <defs>
     <path d="M 48.78125 52.59375 
L 48.78125 44.1875 
Q 44.96875 46.296875 41.140625 47.34375 
Q 37.3125 48.390625 33.40625 48.390625 
Q 24.65625 48.390625 19.8125 42.84375 
Q 14.984375 37.3125 14.984375 27.296875 
Q 14.984375 17.28125 19.8125 11.734375 
Q 24.65625 6.203125 33.40625 6.203125 
Q 37.3125 6.203125 41.140625 7.25 
Q 44.96875 8.296875 48.78125 10.40625 
L 48.78125 2.09375 
Q 45.015625 0.34375 40.984375 -0.53125 
Q 36.96875 -1.421875 32.421875 -1.421875 
Q 20.0625 -1.421875 12.78125 6.34375 
Q 5.515625 14.109375 5.515625 27.296875 
Q 5.515625 40.671875 12.859375 48.328125 
Q 20.21875 56 33.015625 56 
Q 37.15625 56 41.109375 55.140625 
Q 45.0625 54.296875 48.78125 52.59375 
z
" id="DejaVuSans-99"/>
     <path d="M 9.078125 75.984375 
L 18.109375 75.984375 
L 18.109375 31.109375 
L 44.921875 54.6875 
L 56.390625 54.6875 
L 27.390625 29.109375 
L 57.625 0 
L 45.90625 0 
L 18.109375 26.703125 
L 18.109375 0 
L 9.078125 0 
z
" id="DejaVuSans-107"/>
    </defs>
    <g transform="translate(722.35875 136.529063)scale(0.18 -0.18)">
     <use xlink:href="#DejaVuSans-66"/>
     <use x="68.603516" xlink:href="#DejaVuSans-108"/>
     <use x="96.386719" xlink:href="#DejaVuSans-111"/>
     <use x="157.568359" xlink:href="#DejaVuSans-99"/>
     <use x="212.548828" xlink:href="#DejaVuSans-107"/>
    </g>
   </g>
   <g id="PathCollection_9">
    <g>
     <use style="fill:#1f77b4;stroke:#1f77b4;stroke-width:3.0375;" x="734.851875" xlink:href="#m3c9264fd69" y="156.728672"/>
    </g>
   </g>
   <g id="text_19">
    <!-- 1 -->
    <defs>
     <path d="M 12.40625 8.296875 
L 28.515625 8.296875 
L 28.515625 63.921875 
L 10.984375 60.40625 
L 10.984375 69.390625 
L 28.421875 72.90625 
L 38.28125 72.90625 
L 38.28125 8.296875 
L 54.390625 8.296875 
L 54.390625 0 
L 12.40625 0 
z
" id="DejaVuSans-49"/>
    </defs>
    <g transform="translate(764.551875 161.059922)scale(0.165 -0.165)">
     <use xlink:href="#DejaVuSans-49"/>
    </g>
   </g>
   <g id="PathCollection_10">
    <g>
     <use style="fill:#ff7f0e;stroke:#ff7f0e;stroke-width:3.0375;" x="734.851875" xlink:href="#m2a2acc5214" y="180.947578"/>
    </g>
   </g>
   <g id="text_20">
    <!-- 2 -->
    <g transform="translate(764.551875 185.278828)scale(0.165 -0.165)">
     <use xlink:href="#DejaVuSans-50"/>
    </g>
   </g>
   <g id="PathCollection_11">
    <g>
     <use style="fill:#2ca02c;stroke:#2ca02c;stroke-width:3.0375;" x="734.851875" xlink:href="#me86234675d" y="205.166484"/>
    </g>
   </g>
   <g id="text_21">
    <!-- 3 -->
    <defs>
     <path d="M 40.578125 39.3125 
Q 47.65625 37.796875 51.625 33 
Q 55.609375 28.21875 55.609375 21.1875 
Q 55.609375 10.40625 48.1875 4.484375 
Q 40.765625 -1.421875 27.09375 -1.421875 
Q 22.515625 -1.421875 17.65625 -0.515625 
Q 12.796875 0.390625 7.625 2.203125 
L 7.625 11.71875 
Q 11.71875 9.328125 16.59375 8.109375 
Q 21.484375 6.890625 26.8125 6.890625 
Q 36.078125 6.890625 40.9375 10.546875 
Q 45.796875 14.203125 45.796875 21.1875 
Q 45.796875 27.640625 41.28125 31.265625 
Q 36.765625 34.90625 28.71875 34.90625 
L 20.21875 34.90625 
L 20.21875 43.015625 
L 29.109375 43.015625 
Q 36.375 43.015625 40.234375 45.921875 
Q 44.09375 48.828125 44.09375 54.296875 
Q 44.09375 59.90625 40.109375 62.90625 
Q 36.140625 65.921875 28.71875 65.921875 
Q 24.65625 65.921875 20.015625 65.03125 
Q 15.375 64.15625 9.8125 62.3125 
L 9.8125 71.09375 
Q 15.4375 72.65625 20.34375 73.4375 
Q 25.25 74.21875 29.59375 74.21875 
Q 40.828125 74.21875 47.359375 69.109375 
Q 53.90625 64.015625 53.90625 55.328125 
Q 53.90625 49.265625 50.4375 45.09375 
Q 46.96875 40.921875 40.578125 39.3125 
z
" id="DejaVuSans-51"/>
    </defs>
    <g transform="translate(764.551875 209.497734)scale(0.165 -0.165)">
     <use xlink:href="#DejaVuSans-51"/>
    </g>
   </g>
   <g id="PathCollection_12">
    <g>
     <use style="fill:#d62728;stroke:#d62728;stroke-width:3.0375;" x="734.851875" xlink:href="#mdb13f7f31c" y="229.385391"/>
    </g>
   </g>
   <g id="text_22">
    <!-- 4 -->
    <g transform="translate(764.551875 233.716641)scale(0.165 -0.165)">
     <use xlink:href="#DejaVuSans-52"/>
    </g>
   </g>
  </g>
 </g>
 <defs>
  <clipPath id="p491112301c">
   <rect height="248.62" width="300.625833" x="82.215425" y="39.44"/>
  </clipPath>
  <clipPath id="pc5b7376f14">
   <rect height="248.62" width="300.625833" x="411.475167" y="39.44"/>
  </clipPath>
 </defs>
</svg>
