<?xml version="1.0" encoding="utf-8" standalone="no"?>
<!DOCTYPE svg PUBLIC "-//W3C//DTD SVG 1.1//EN"
  "http://www.w3.org/Graphics/SVG/1.1/DTD/svg11.dtd">
<!-- Created with matplotlib (https://matplotlib.org/) -->
<svg height="360pt" version="1.1" viewBox="0 0 757.26 360" width="757.26pt" xmlns="http://www.w3.org/2000/svg" xmlns:xlink="http://www.w3.org/1999/xlink">
 <defs>
  <style type="text/css">
*{stroke-linecap:butt;stroke-linejoin:round;}
  </style>
 </defs>
 <g id="figure_1">
  <g id="patch_1">
   <path d="M 0 360 
L 757.26 360 
L 757.26 0 
L 0 0 
z
" style="fill:#ffffff;"/>
  </g>
  <g id="axes_1">
   <g id="patch_2">
    <path d="M 45.422979 318.612 
L 371.334812 318.612 
L 371.334812 23.568 
L 45.422979 23.568 
z
" style="fill:#ffffff;"/>
   </g>
   <g id="PathCollection_1">
    <defs>
     <path d="M 0 2.707159 
C 0.717947 2.707159 1.406585 2.421915 1.91425 1.91425 
C 2.421915 1.406585 2.707159 0.717947 2.707159 0 
C 2.707159 -0.717947 2.421915 -1.406585 1.91425 -1.91425 
C 1.406585 -2.421915 0.717947 -2.707159 0 -2.707159 
C -0.717947 -2.707159 -1.406585 -2.421915 -1.91425 -1.91425 
C -2.421915 -1.406585 -2.707159 -0.717947 -2.707159 0 
C -2.707159 0.717947 -2.421915 1.406585 -1.91425 1.91425 
C -1.406585 2.421915 -0.717947 2.707159 0 2.707159 
z
" id="mc56874a85b" style="stroke:#1f77b4;stroke-width:1.62;"/>
    </defs>
    <g clip-path="url(#p4c97350aa2)">
     <use style="fill:#1f77b4;stroke:#1f77b4;stroke-width:1.62;" x="118.753141" xlink:href="#mc56874a85b" y="285.460299"/>
     <use style="fill:#1f77b4;stroke:#1f77b4;stroke-width:1.62;" x="281.709058" xlink:href="#mc56874a85b" y="110.048636"/>
    </g>
   </g>
   <g id="line2d_1">
    <path clip-path="url(#p4c97350aa2)" d="M 118.753141 285.460299 
L 281.709058 110.048636 
" style="fill:none;stroke:#1f77b4;stroke-linecap:square;stroke-width:2.16;"/>
   </g>
   <g id="line2d_2">
    <path clip-path="url(#p4c97350aa2)" d="M 118.753141 294.695009 
L 118.753141 276.225588 
" style="fill:none;stroke:#1f77b4;stroke-linecap:square;stroke-width:2.16;"/>
   </g>
   <g id="line2d_3">
    <path clip-path="url(#p4c97350aa2)" d="M 102.45755 294.695009 
L 135.048733 294.695009 
" style="fill:none;stroke:#1f77b4;stroke-linecap:square;stroke-width:2.16;"/>
   </g>
   <g id="line2d_4">
    <path clip-path="url(#p4c97350aa2)" d="M 102.45755 276.225588 
L 135.048733 276.225588 
" style="fill:none;stroke:#1f77b4;stroke-linecap:square;stroke-width:2.16;"/>
   </g>
   <g id="line2d_5">
    <path clip-path="url(#p4c97350aa2)" d="M 281.709058 125.519948 
L 281.709058 94.577325 
" style="fill:none;stroke:#1f77b4;stroke-linecap:square;stroke-width:2.16;"/>
   </g>
   <g id="line2d_6">
    <path clip-path="url(#p4c97350aa2)" d="M 265.413466 125.519948 
L 298.00465 125.519948 
" style="fill:none;stroke:#1f77b4;stroke-linecap:square;stroke-width:2.16;"/>
   </g>
   <g id="line2d_7">
    <path clip-path="url(#p4c97350aa2)" d="M 265.413466 94.577325 
L 298.00465 94.577325 
" style="fill:none;stroke:#1f77b4;stroke-linecap:square;stroke-width:2.16;"/>
   </g>
   <g id="matplotlib.axis_1">
    <g id="xtick_1">
     <g id="line2d_8">
      <defs>
       <path d="M 0 0 
L 0 4.8 
" id="md3648c2a0c" style="stroke:#000000;"/>
      </defs>
      <g>
       <use style="stroke:#000000;" x="126.900937" xlink:href="#md3648c2a0c" y="318.612"/>
      </g>
     </g>
     <g id="text_1">
      <!-- MC -->
      <defs>
       <path d="M 9.8125 72.90625 
L 24.515625 72.90625 
L 43.109375 23.296875 
L 61.8125 72.90625 
L 76.515625 72.90625 
L 76.515625 0 
L 66.890625 0 
L 66.890625 64.015625 
L 48.09375 14.015625 
L 38.1875 14.015625 
L 19.390625 64.015625 
L 19.390625 0 
L 9.8125 0 
z
" id="DejaVuSans-77"/>
       <path d="M 64.40625 67.28125 
L 64.40625 56.890625 
Q 59.421875 61.53125 53.78125 63.8125 
Q 48.140625 66.109375 41.796875 66.109375 
Q 29.296875 66.109375 22.65625 58.46875 
Q 16.015625 50.828125 16.015625 36.375 
Q 16.015625 21.96875 22.65625 14.328125 
Q 29.296875 6.6875 41.796875 6.6875 
Q 48.140625 6.6875 53.78125 8.984375 
Q 59.421875 11.28125 64.40625 15.921875 
L 64.40625 5.609375 
Q 59.234375 2.09375 53.4375 0.328125 
Q 47.65625 -1.421875 41.21875 -1.421875 
Q 24.65625 -1.421875 15.125 8.703125 
Q 5.609375 18.84375 5.609375 36.375 
Q 5.609375 53.953125 15.125 64.078125 
Q 24.65625 74.21875 41.21875 74.21875 
Q 47.75 74.21875 53.53125 72.484375 
Q 59.328125 70.75 64.40625 67.28125 
z
" id="DejaVuSans-67"/>
      </defs>
      <g transform="translate(120.032125 333.598625)scale(0.088 -0.088)">
       <use xlink:href="#DejaVuSans-77"/>
       <use x="86.279297" xlink:href="#DejaVuSans-67"/>
      </g>
     </g>
    </g>
    <g id="xtick_2">
     <g id="line2d_9">
      <g>
       <use style="stroke:#000000;" x="289.856854" xlink:href="#md3648c2a0c" y="318.612"/>
      </g>
     </g>
     <g id="text_2">
      <!-- MD -->
      <defs>
       <path d="M 19.671875 64.796875 
L 19.671875 8.109375 
L 31.59375 8.109375 
Q 46.6875 8.109375 53.6875 14.9375 
Q 60.6875 21.78125 60.6875 36.53125 
Q 60.6875 51.171875 53.6875 57.984375 
Q 46.6875 64.796875 31.59375 64.796875 
z
M 9.8125 72.90625 
L 30.078125 72.90625 
Q 51.265625 72.90625 61.171875 64.09375 
Q 71.09375 55.28125 71.09375 36.53125 
Q 71.09375 17.671875 61.125 8.828125 
Q 51.171875 0 30.078125 0 
L 9.8125 0 
z
" id="DejaVuSans-68"/>
      </defs>
      <g transform="translate(282.672479 333.598625)scale(0.088 -0.088)">
       <use xlink:href="#DejaVuSans-77"/>
       <use x="86.279297" xlink:href="#DejaVuSans-68"/>
      </g>
     </g>
    </g>
    <g id="text_3">
     <!-- Popn -->
     <defs>
      <path d="M 19.671875 64.796875 
L 19.671875 37.40625 
L 32.078125 37.40625 
Q 38.96875 37.40625 42.71875 40.96875 
Q 46.484375 44.53125 46.484375 51.125 
Q 46.484375 57.671875 42.71875 61.234375 
Q 38.96875 64.796875 32.078125 64.796875 
z
M 9.8125 72.90625 
L 32.078125 72.90625 
Q 44.34375 72.90625 50.609375 67.359375 
Q 56.890625 61.8125 56.890625 51.125 
Q 56.890625 40.328125 50.609375 34.8125 
Q 44.34375 29.296875 32.078125 29.296875 
L 19.671875 29.296875 
L 19.671875 0 
L 9.8125 0 
z
" id="DejaVuSans-80"/>
      <path d="M 30.609375 48.390625 
Q 23.390625 48.390625 19.1875 42.75 
Q 14.984375 37.109375 14.984375 27.296875 
Q 14.984375 17.484375 19.15625 11.84375 
Q 23.34375 6.203125 30.609375 6.203125 
Q 37.796875 6.203125 41.984375 11.859375 
Q 46.1875 17.53125 46.1875 27.296875 
Q 46.1875 37.015625 41.984375 42.703125 
Q 37.796875 48.390625 30.609375 48.390625 
z
M 30.609375 56 
Q 42.328125 56 49.015625 48.375 
Q 55.71875 40.765625 55.71875 27.296875 
Q 55.71875 13.875 49.015625 6.21875 
Q 42.328125 -1.421875 30.609375 -1.421875 
Q 18.84375 -1.421875 12.171875 6.21875 
Q 5.515625 13.875 5.515625 27.296875 
Q 5.515625 40.765625 12.171875 48.375 
Q 18.84375 56 30.609375 56 
z
" id="DejaVuSans-111"/>
      <path d="M 18.109375 8.203125 
L 18.109375 -20.796875 
L 9.078125 -20.796875 
L 9.078125 54.6875 
L 18.109375 54.6875 
L 18.109375 46.390625 
Q 20.953125 51.265625 25.265625 53.625 
Q 29.59375 56 35.59375 56 
Q 45.5625 56 51.78125 48.09375 
Q 58.015625 40.1875 58.015625 27.296875 
Q 58.015625 14.40625 51.78125 6.484375 
Q 45.5625 -1.421875 35.59375 -1.421875 
Q 29.59375 -1.421875 25.265625 0.953125 
Q 20.953125 3.328125 18.109375 8.203125 
z
M 48.6875 27.296875 
Q 48.6875 37.203125 44.609375 42.84375 
Q 40.53125 48.484375 33.40625 48.484375 
Q 26.265625 48.484375 22.1875 42.84375 
Q 18.109375 37.203125 18.109375 27.296875 
Q 18.109375 17.390625 22.1875 11.75 
Q 26.265625 6.109375 33.40625 6.109375 
Q 40.53125 6.109375 44.609375 11.75 
Q 48.6875 17.390625 48.6875 27.296875 
z
" id="DejaVuSans-112"/>
      <path d="M 54.890625 33.015625 
L 54.890625 0 
L 45.90625 0 
L 45.90625 32.71875 
Q 45.90625 40.484375 42.875 44.328125 
Q 39.84375 48.1875 33.796875 48.1875 
Q 26.515625 48.1875 22.3125 43.546875 
Q 18.109375 38.921875 18.109375 30.90625 
L 18.109375 0 
L 9.078125 0 
L 9.078125 54.6875 
L 18.109375 54.6875 
L 18.109375 46.1875 
Q 21.34375 51.125 25.703125 53.5625 
Q 30.078125 56 35.796875 56 
Q 45.21875 56 50.046875 50.171875 
Q 54.890625 44.34375 54.890625 33.015625 
z
" id="DejaVuSans-110"/>
     </defs>
     <g transform="translate(196.632396 346.72325)scale(0.096 -0.096)">
      <use xlink:href="#DejaVuSans-80"/>
      <use x="56.677734" xlink:href="#DejaVuSans-111"/>
      <use x="117.859375" xlink:href="#DejaVuSans-112"/>
      <use x="181.335938" xlink:href="#DejaVuSans-110"/>
     </g>
    </g>
   </g>
   <g id="matplotlib.axis_2">
    <g id="ytick_1">
     <g id="line2d_10">
      <defs>
       <path d="M 0 0 
L -4.8 0 
" id="m0562092053" style="stroke:#000000;"/>
      </defs>
      <g>
       <use style="stroke:#000000;" x="45.422979" xlink:href="#m0562092053" y="285.65987"/>
      </g>
     </g>
     <g id="text_4">
      <!-- 4 -->
      <defs>
       <path d="M 37.796875 64.3125 
L 12.890625 25.390625 
L 37.796875 25.390625 
z
M 35.203125 72.90625 
L 47.609375 72.90625 
L 47.609375 25.390625 
L 58.015625 25.390625 
L 58.015625 17.1875 
L 47.609375 17.1875 
L 47.609375 0 
L 37.796875 0 
L 37.796875 17.1875 
L 4.890625 17.1875 
L 4.890625 26.703125 
z
" id="DejaVuSans-52"/>
      </defs>
      <g transform="translate(31.523979 289.003183)scale(0.088 -0.088)">
       <use xlink:href="#DejaVuSans-52"/>
      </g>
     </g>
    </g>
    <g id="ytick_2">
     <g id="line2d_11">
      <g>
       <use style="stroke:#000000;" x="45.422979" xlink:href="#m0562092053" y="232.131447"/>
      </g>
     </g>
     <g id="text_5">
      <!-- 6 -->
      <defs>
       <path d="M 33.015625 40.375 
Q 26.375 40.375 22.484375 35.828125 
Q 18.609375 31.296875 18.609375 23.390625 
Q 18.609375 15.53125 22.484375 10.953125 
Q 26.375 6.390625 33.015625 6.390625 
Q 39.65625 6.390625 43.53125 10.953125 
Q 47.40625 15.53125 47.40625 23.390625 
Q 47.40625 31.296875 43.53125 35.828125 
Q 39.65625 40.375 33.015625 40.375 
z
M 52.59375 71.296875 
L 52.59375 62.3125 
Q 48.875 64.0625 45.09375 64.984375 
Q 41.3125 65.921875 37.59375 65.921875 
Q 27.828125 65.921875 22.671875 59.328125 
Q 17.53125 52.734375 16.796875 39.40625 
Q 19.671875 43.65625 24.015625 45.921875 
Q 28.375 48.1875 33.59375 48.1875 
Q 44.578125 48.1875 50.953125 41.515625 
Q 57.328125 34.859375 57.328125 23.390625 
Q 57.328125 12.15625 50.6875 5.359375 
Q 44.046875 -1.421875 33.015625 -1.421875 
Q 20.359375 -1.421875 13.671875 8.265625 
Q 6.984375 17.96875 6.984375 36.375 
Q 6.984375 53.65625 15.1875 63.9375 
Q 23.390625 74.21875 37.203125 74.21875 
Q 40.921875 74.21875 44.703125 73.484375 
Q 48.484375 72.75 52.59375 71.296875 
z
" id="DejaVuSans-54"/>
      </defs>
      <g transform="translate(31.523979 235.474759)scale(0.088 -0.088)">
       <use xlink:href="#DejaVuSans-54"/>
      </g>
     </g>
    </g>
    <g id="ytick_3">
     <g id="line2d_12">
      <g>
       <use style="stroke:#000000;" x="45.422979" xlink:href="#m0562092053" y="178.603023"/>
      </g>
     </g>
     <g id="text_6">
      <!-- 8 -->
      <defs>
       <path d="M 31.78125 34.625 
Q 24.75 34.625 20.71875 30.859375 
Q 16.703125 27.09375 16.703125 20.515625 
Q 16.703125 13.921875 20.71875 10.15625 
Q 24.75 6.390625 31.78125 6.390625 
Q 38.8125 6.390625 42.859375 10.171875 
Q 46.921875 13.96875 46.921875 20.515625 
Q 46.921875 27.09375 42.890625 30.859375 
Q 38.875 34.625 31.78125 34.625 
z
M 21.921875 38.8125 
Q 15.578125 40.375 12.03125 44.71875 
Q 8.5 49.078125 8.5 55.328125 
Q 8.5 64.0625 14.71875 69.140625 
Q 20.953125 74.21875 31.78125 74.21875 
Q 42.671875 74.21875 48.875 69.140625 
Q 55.078125 64.0625 55.078125 55.328125 
Q 55.078125 49.078125 51.53125 44.71875 
Q 48 40.375 41.703125 38.8125 
Q 48.828125 37.15625 52.796875 32.3125 
Q 56.78125 27.484375 56.78125 20.515625 
Q 56.78125 9.90625 50.3125 4.234375 
Q 43.84375 -1.421875 31.78125 -1.421875 
Q 19.734375 -1.421875 13.25 4.234375 
Q 6.78125 9.90625 6.78125 20.515625 
Q 6.78125 27.484375 10.78125 32.3125 
Q 14.796875 37.15625 21.921875 38.8125 
z
M 18.3125 54.390625 
Q 18.3125 48.734375 21.84375 45.5625 
Q 25.390625 42.390625 31.78125 42.390625 
Q 38.140625 42.390625 41.71875 45.5625 
Q 45.3125 48.734375 45.3125 54.390625 
Q 45.3125 60.0625 41.71875 63.234375 
Q 38.140625 66.40625 31.78125 66.40625 
Q 25.390625 66.40625 21.84375 63.234375 
Q 18.3125 60.0625 18.3125 54.390625 
z
" id="DejaVuSans-56"/>
      </defs>
      <g transform="translate(31.523979 181.946336)scale(0.088 -0.088)">
       <use xlink:href="#DejaVuSans-56"/>
      </g>
     </g>
    </g>
    <g id="ytick_4">
     <g id="line2d_13">
      <g>
       <use style="stroke:#000000;" x="45.422979" xlink:href="#m0562092053" y="125.0746"/>
      </g>
     </g>
     <g id="text_7">
      <!-- 10 -->
      <defs>
       <path d="M 12.40625 8.296875 
L 28.515625 8.296875 
L 28.515625 63.921875 
L 10.984375 60.40625 
L 10.984375 69.390625 
L 28.421875 72.90625 
L 38.28125 72.90625 
L 38.28125 8.296875 
L 54.390625 8.296875 
L 54.390625 0 
L 12.40625 0 
z
" id="DejaVuSans-49"/>
       <path d="M 31.78125 66.40625 
Q 24.171875 66.40625 20.328125 58.90625 
Q 16.5 51.421875 16.5 36.375 
Q 16.5 21.390625 20.328125 13.890625 
Q 24.171875 6.390625 31.78125 6.390625 
Q 39.453125 6.390625 43.28125 13.890625 
Q 47.125 21.390625 47.125 36.375 
Q 47.125 51.421875 43.28125 58.90625 
Q 39.453125 66.40625 31.78125 66.40625 
z
M 31.78125 74.21875 
Q 44.046875 74.21875 50.515625 64.515625 
Q 56.984375 54.828125 56.984375 36.375 
Q 56.984375 17.96875 50.515625 8.265625 
Q 44.046875 -1.421875 31.78125 -1.421875 
Q 19.53125 -1.421875 13.0625 8.265625 
Q 6.59375 17.96875 6.59375 36.375 
Q 6.59375 54.828125 13.0625 64.515625 
Q 19.53125 74.21875 31.78125 74.21875 
z
" id="DejaVuSans-48"/>
      </defs>
      <g transform="translate(25.924979 128.417912)scale(0.088 -0.088)">
       <use xlink:href="#DejaVuSans-49"/>
       <use x="63.623047" xlink:href="#DejaVuSans-48"/>
      </g>
     </g>
    </g>
    <g id="ytick_5">
     <g id="line2d_14">
      <g>
       <use style="stroke:#000000;" x="45.422979" xlink:href="#m0562092053" y="71.546176"/>
      </g>
     </g>
     <g id="text_8">
      <!-- 12 -->
      <defs>
       <path d="M 19.1875 8.296875 
L 53.609375 8.296875 
L 53.609375 0 
L 7.328125 0 
L 7.328125 8.296875 
Q 12.9375 14.109375 22.625 23.890625 
Q 32.328125 33.6875 34.8125 36.53125 
Q 39.546875 41.84375 41.421875 45.53125 
Q 43.3125 49.21875 43.3125 52.78125 
Q 43.3125 58.59375 39.234375 62.25 
Q 35.15625 65.921875 28.609375 65.921875 
Q 23.96875 65.921875 18.8125 64.3125 
Q 13.671875 62.703125 7.8125 59.421875 
L 7.8125 69.390625 
Q 13.765625 71.78125 18.9375 73 
Q 24.125 74.21875 28.421875 74.21875 
Q 39.75 74.21875 46.484375 68.546875 
Q 53.21875 62.890625 53.21875 53.421875 
Q 53.21875 48.921875 51.53125 44.890625 
Q 49.859375 40.875 45.40625 35.40625 
Q 44.1875 33.984375 37.640625 27.21875 
Q 31.109375 20.453125 19.1875 8.296875 
z
" id="DejaVuSans-50"/>
      </defs>
      <g transform="translate(25.924979 74.889489)scale(0.088 -0.088)">
       <use xlink:href="#DejaVuSans-49"/>
       <use x="63.623047" xlink:href="#DejaVuSans-50"/>
      </g>
     </g>
    </g>
    <g id="text_9">
     <!-- Ability (m) -->
     <defs>
      <path d="M 34.1875 63.1875 
L 20.796875 26.90625 
L 47.609375 26.90625 
z
M 28.609375 72.90625 
L 39.796875 72.90625 
L 67.578125 0 
L 57.328125 0 
L 50.6875 18.703125 
L 17.828125 18.703125 
L 11.1875 0 
L 0.78125 0 
z
" id="DejaVuSans-65"/>
      <path d="M 48.6875 27.296875 
Q 48.6875 37.203125 44.609375 42.84375 
Q 40.53125 48.484375 33.40625 48.484375 
Q 26.265625 48.484375 22.1875 42.84375 
Q 18.109375 37.203125 18.109375 27.296875 
Q 18.109375 17.390625 22.1875 11.75 
Q 26.265625 6.109375 33.40625 6.109375 
Q 40.53125 6.109375 44.609375 11.75 
Q 48.6875 17.390625 48.6875 27.296875 
z
M 18.109375 46.390625 
Q 20.953125 51.265625 25.265625 53.625 
Q 29.59375 56 35.59375 56 
Q 45.5625 56 51.78125 48.09375 
Q 58.015625 40.1875 58.015625 27.296875 
Q 58.015625 14.40625 51.78125 6.484375 
Q 45.5625 -1.421875 35.59375 -1.421875 
Q 29.59375 -1.421875 25.265625 0.953125 
Q 20.953125 3.328125 18.109375 8.203125 
L 18.109375 0 
L 9.078125 0 
L 9.078125 75.984375 
L 18.109375 75.984375 
z
" id="DejaVuSans-98"/>
      <path d="M 9.421875 54.6875 
L 18.40625 54.6875 
L 18.40625 0 
L 9.421875 0 
z
M 9.421875 75.984375 
L 18.40625 75.984375 
L 18.40625 64.59375 
L 9.421875 64.59375 
z
" id="DejaVuSans-105"/>
      <path d="M 9.421875 75.984375 
L 18.40625 75.984375 
L 18.40625 0 
L 9.421875 0 
z
" id="DejaVuSans-108"/>
      <path d="M 18.3125 70.21875 
L 18.3125 54.6875 
L 36.8125 54.6875 
L 36.8125 47.703125 
L 18.3125 47.703125 
L 18.3125 18.015625 
Q 18.3125 11.328125 20.140625 9.421875 
Q 21.96875 7.515625 27.59375 7.515625 
L 36.8125 7.515625 
L 36.8125 0 
L 27.59375 0 
Q 17.1875 0 13.234375 3.875 
Q 9.28125 7.765625 9.28125 18.015625 
L 9.28125 47.703125 
L 2.6875 47.703125 
L 2.6875 54.6875 
L 9.28125 54.6875 
L 9.28125 70.21875 
z
" id="DejaVuSans-116"/>
      <path d="M 32.171875 -5.078125 
Q 28.375 -14.84375 24.75 -17.8125 
Q 21.140625 -20.796875 15.09375 -20.796875 
L 7.90625 -20.796875 
L 7.90625 -13.28125 
L 13.1875 -13.28125 
Q 16.890625 -13.28125 18.9375 -11.515625 
Q 21 -9.765625 23.484375 -3.21875 
L 25.09375 0.875 
L 2.984375 54.6875 
L 12.5 54.6875 
L 29.59375 11.921875 
L 46.6875 54.6875 
L 56.203125 54.6875 
z
" id="DejaVuSans-121"/>
      <path id="DejaVuSans-32"/>
      <path d="M 31 75.875 
Q 24.46875 64.65625 21.28125 53.65625 
Q 18.109375 42.671875 18.109375 31.390625 
Q 18.109375 20.125 21.3125 9.0625 
Q 24.515625 -2 31 -13.1875 
L 23.1875 -13.1875 
Q 15.875 -1.703125 12.234375 9.375 
Q 8.59375 20.453125 8.59375 31.390625 
Q 8.59375 42.28125 12.203125 53.3125 
Q 15.828125 64.359375 23.1875 75.875 
z
" id="DejaVuSans-40"/>
      <path d="M 52 44.1875 
Q 55.375 50.25 60.0625 53.125 
Q 64.75 56 71.09375 56 
Q 79.640625 56 84.28125 50.015625 
Q 88.921875 44.046875 88.921875 33.015625 
L 88.921875 0 
L 79.890625 0 
L 79.890625 32.71875 
Q 79.890625 40.578125 77.09375 44.375 
Q 74.3125 48.1875 68.609375 48.1875 
Q 61.625 48.1875 57.5625 43.546875 
Q 53.515625 38.921875 53.515625 30.90625 
L 53.515625 0 
L 44.484375 0 
L 44.484375 32.71875 
Q 44.484375 40.625 41.703125 44.40625 
Q 38.921875 48.1875 33.109375 48.1875 
Q 26.21875 48.1875 22.15625 43.53125 
Q 18.109375 38.875 18.109375 30.90625 
L 18.109375 0 
L 9.078125 0 
L 9.078125 54.6875 
L 18.109375 54.6875 
L 18.109375 46.1875 
Q 21.1875 51.21875 25.484375 53.609375 
Q 29.78125 56 35.6875 56 
Q 41.65625 56 45.828125 52.96875 
Q 50 49.953125 52 44.1875 
z
" id="DejaVuSans-109"/>
      <path d="M 8.015625 75.875 
L 15.828125 75.875 
Q 23.140625 64.359375 26.78125 53.3125 
Q 30.421875 42.28125 30.421875 31.390625 
Q 30.421875 20.453125 26.78125 9.375 
Q 23.140625 -1.703125 15.828125 -13.1875 
L 8.015625 -13.1875 
Q 14.5 -2 17.703125 9.0625 
Q 20.90625 20.125 20.90625 31.390625 
Q 20.90625 42.671875 17.703125 53.65625 
Q 14.5 64.65625 8.015625 75.875 
z
" id="DejaVuSans-41"/>
     </defs>
     <g transform="translate(19.429354 202.340625)rotate(-90)scale(0.12 -0.12)">
      <use xlink:href="#DejaVuSans-65"/>
      <use x="68.408203" xlink:href="#DejaVuSans-98"/>
      <use x="131.884766" xlink:href="#DejaVuSans-105"/>
      <use x="159.667969" xlink:href="#DejaVuSans-108"/>
      <use x="187.451172" xlink:href="#DejaVuSans-105"/>
      <use x="215.234375" xlink:href="#DejaVuSans-116"/>
      <use x="254.443359" xlink:href="#DejaVuSans-121"/>
      <use x="313.623047" xlink:href="#DejaVuSans-32"/>
      <use x="345.410156" xlink:href="#DejaVuSans-40"/>
      <use x="384.423828" xlink:href="#DejaVuSans-109"/>
      <use x="481.835938" xlink:href="#DejaVuSans-41"/>
     </g>
    </g>
   </g>
   <g id="PathCollection_2">
    <defs>
     <path d="M 0 2.707159 
C 0.717947 2.707159 1.406585 2.421915 1.91425 1.91425 
C 2.421915 1.406585 2.707159 0.717947 2.707159 0 
C 2.707159 -0.717947 2.421915 -1.406585 1.91425 -1.91425 
C 1.406585 -2.421915 0.717947 -2.707159 0 -2.707159 
C -0.717947 -2.707159 -1.406585 -2.421915 -1.91425 -1.91425 
C -2.421915 -1.406585 -2.707159 -0.717947 -2.707159 0 
C -2.707159 0.717947 -2.421915 1.406585 -1.91425 1.91425 
C -1.406585 2.421915 -0.717947 2.707159 0 2.707159 
z
" id="mf2d35fb202" style="stroke:#ff7f0e;stroke-width:1.62;"/>
    </defs>
    <g clip-path="url(#p4c97350aa2)">
     <use style="fill:#ff7f0e;stroke:#ff7f0e;stroke-width:1.62;" x="124.185005" xlink:href="#mf2d35fb202" y="270.959806"/>
     <use style="fill:#ff7f0e;stroke:#ff7f0e;stroke-width:1.62;" x="287.140922" xlink:href="#mf2d35fb202" y="114.100292"/>
    </g>
   </g>
   <g id="line2d_15">
    <path clip-path="url(#p4c97350aa2)" d="M 124.185005 270.959806 
L 287.140922 114.100292 
" style="fill:none;stroke:#ff7f0e;stroke-linecap:square;stroke-width:2.16;"/>
   </g>
   <g id="line2d_16">
    <path clip-path="url(#p4c97350aa2)" d="M 124.185005 283.040928 
L 124.185005 258.878683 
" style="fill:none;stroke:#ff7f0e;stroke-linecap:square;stroke-width:2.16;"/>
   </g>
   <g id="line2d_17">
    <path clip-path="url(#p4c97350aa2)" d="M 107.889414 283.040928 
L 140.480597 283.040928 
" style="fill:none;stroke:#ff7f0e;stroke-linecap:square;stroke-width:2.16;"/>
   </g>
   <g id="line2d_18">
    <path clip-path="url(#p4c97350aa2)" d="M 107.889414 258.878683 
L 140.480597 258.878683 
" style="fill:none;stroke:#ff7f0e;stroke-linecap:square;stroke-width:2.16;"/>
   </g>
   <g id="line2d_19">
    <path clip-path="url(#p4c97350aa2)" d="M 287.140922 145.683338 
L 287.140922 82.517246 
" style="fill:none;stroke:#ff7f0e;stroke-linecap:square;stroke-width:2.16;"/>
   </g>
   <g id="line2d_20">
    <path clip-path="url(#p4c97350aa2)" d="M 270.84533 145.683338 
L 303.436513 145.683338 
" style="fill:none;stroke:#ff7f0e;stroke-linecap:square;stroke-width:2.16;"/>
   </g>
   <g id="line2d_21">
    <path clip-path="url(#p4c97350aa2)" d="M 270.84533 82.517246 
L 303.436513 82.517246 
" style="fill:none;stroke:#ff7f0e;stroke-linecap:square;stroke-width:2.16;"/>
   </g>
   <g id="patch_3">
    <path d="M 45.422979 318.612 
L 45.422979 23.568 
" style="fill:none;stroke:#000000;stroke-linecap:square;stroke-linejoin:miter;"/>
   </g>
   <g id="patch_4">
    <path d="M 45.422979 318.612 
L 371.334812 318.612 
" style="fill:none;stroke:#000000;stroke-linecap:square;stroke-linejoin:miter;"/>
   </g>
   <g id="PathCollection_3">
    <defs>
     <path d="M 0 2.707159 
C 0.717947 2.707159 1.406585 2.421915 1.91425 1.91425 
C 2.421915 1.406585 2.707159 0.717947 2.707159 0 
C 2.707159 -0.717947 2.421915 -1.406585 1.91425 -1.91425 
C 1.406585 -2.421915 0.717947 -2.707159 0 -2.707159 
C -0.717947 -2.707159 -1.406585 -2.421915 -1.91425 -1.91425 
C -2.421915 -1.406585 -2.707159 -0.717947 -2.707159 0 
C -2.707159 0.717947 -2.421915 1.406585 -1.91425 1.91425 
C -1.406585 2.421915 -0.717947 2.707159 0 2.707159 
z
" id="m9edf7267b4" style="stroke:#2ca02c;stroke-width:1.62;"/>
    </defs>
    <g clip-path="url(#p4c97350aa2)">
     <use style="fill:#2ca02c;stroke:#2ca02c;stroke-width:1.62;" x="129.616869" xlink:href="#m9edf7267b4" y="220.153481"/>
     <use style="fill:#2ca02c;stroke:#2ca02c;stroke-width:1.62;" x="292.572786" xlink:href="#m9edf7267b4" y="122.185493"/>
    </g>
   </g>
   <g id="line2d_22">
    <path clip-path="url(#p4c97350aa2)" d="M 129.616869 220.153481 
L 292.572786 122.185493 
" style="fill:none;stroke:#2ca02c;stroke-linecap:square;stroke-width:2.16;"/>
   </g>
   <g id="line2d_23">
    <path clip-path="url(#p4c97350aa2)" d="M 129.616869 245.941688 
L 129.616869 194.365274 
" style="fill:none;stroke:#2ca02c;stroke-linecap:square;stroke-width:2.16;"/>
   </g>
   <g id="line2d_24">
    <path clip-path="url(#p4c97350aa2)" d="M 113.321278 245.941688 
L 145.912461 245.941688 
" style="fill:none;stroke:#2ca02c;stroke-linecap:square;stroke-width:2.16;"/>
   </g>
   <g id="line2d_25">
    <path clip-path="url(#p4c97350aa2)" d="M 113.321278 194.365274 
L 145.912461 194.365274 
" style="fill:none;stroke:#2ca02c;stroke-linecap:square;stroke-width:2.16;"/>
   </g>
   <g id="line2d_26">
    <path clip-path="url(#p4c97350aa2)" d="M 292.572786 130.195317 
L 292.572786 114.175668 
" style="fill:none;stroke:#2ca02c;stroke-linecap:square;stroke-width:2.16;"/>
   </g>
   <g id="line2d_27">
    <path clip-path="url(#p4c97350aa2)" d="M 276.277194 130.195317 
L 308.868377 130.195317 
" style="fill:none;stroke:#2ca02c;stroke-linecap:square;stroke-width:2.16;"/>
   </g>
   <g id="line2d_28">
    <path clip-path="url(#p4c97350aa2)" d="M 276.277194 114.175668 
L 308.868377 114.175668 
" style="fill:none;stroke:#2ca02c;stroke-linecap:square;stroke-width:2.16;"/>
   </g>
   <g id="text_10">
    <!-- Sex = M -->
    <defs>
     <path d="M 53.515625 70.515625 
L 53.515625 60.890625 
Q 47.90625 63.578125 42.921875 64.890625 
Q 37.9375 66.21875 33.296875 66.21875 
Q 25.25 66.21875 20.875 63.09375 
Q 16.5 59.96875 16.5 54.203125 
Q 16.5 49.359375 19.40625 46.890625 
Q 22.3125 44.4375 30.421875 42.921875 
L 36.375 41.703125 
Q 47.40625 39.59375 52.65625 34.296875 
Q 57.90625 29 57.90625 20.125 
Q 57.90625 9.515625 50.796875 4.046875 
Q 43.703125 -1.421875 29.984375 -1.421875 
Q 24.8125 -1.421875 18.96875 -0.25 
Q 13.140625 0.921875 6.890625 3.21875 
L 6.890625 13.375 
Q 12.890625 10.015625 18.65625 8.296875 
Q 24.421875 6.59375 29.984375 6.59375 
Q 38.421875 6.59375 43.015625 9.90625 
Q 47.609375 13.234375 47.609375 19.390625 
Q 47.609375 24.75 44.3125 27.78125 
Q 41.015625 30.8125 33.5 32.328125 
L 27.484375 33.5 
Q 16.453125 35.6875 11.515625 40.375 
Q 6.59375 45.0625 6.59375 53.421875 
Q 6.59375 63.09375 13.40625 68.65625 
Q 20.21875 74.21875 32.171875 74.21875 
Q 37.3125 74.21875 42.625 73.28125 
Q 47.953125 72.359375 53.515625 70.515625 
z
" id="DejaVuSans-83"/>
     <path d="M 56.203125 29.59375 
L 56.203125 25.203125 
L 14.890625 25.203125 
Q 15.484375 15.921875 20.484375 11.0625 
Q 25.484375 6.203125 34.421875 6.203125 
Q 39.59375 6.203125 44.453125 7.46875 
Q 49.3125 8.734375 54.109375 11.28125 
L 54.109375 2.78125 
Q 49.265625 0.734375 44.1875 -0.34375 
Q 39.109375 -1.421875 33.890625 -1.421875 
Q 20.796875 -1.421875 13.15625 6.1875 
Q 5.515625 13.8125 5.515625 26.8125 
Q 5.515625 40.234375 12.765625 48.109375 
Q 20.015625 56 32.328125 56 
Q 43.359375 56 49.78125 48.890625 
Q 56.203125 41.796875 56.203125 29.59375 
z
M 47.21875 32.234375 
Q 47.125 39.59375 43.09375 43.984375 
Q 39.0625 48.390625 32.421875 48.390625 
Q 24.90625 48.390625 20.390625 44.140625 
Q 15.875 39.890625 15.1875 32.171875 
z
" id="DejaVuSans-101"/>
     <path d="M 54.890625 54.6875 
L 35.109375 28.078125 
L 55.90625 0 
L 45.3125 0 
L 29.390625 21.484375 
L 13.484375 0 
L 2.875 0 
L 24.125 28.609375 
L 4.6875 54.6875 
L 15.28125 54.6875 
L 29.78125 35.203125 
L 44.28125 54.6875 
z
" id="DejaVuSans-120"/>
     <path d="M 10.59375 45.40625 
L 73.1875 45.40625 
L 73.1875 37.203125 
L 10.59375 37.203125 
z
M 10.59375 25.484375 
L 73.1875 25.484375 
L 73.1875 17.1875 
L 10.59375 17.1875 
z
" id="DejaVuSans-61"/>
    </defs>
    <g transform="translate(188.406396 17.568)scale(0.096 -0.096)">
     <use xlink:href="#DejaVuSans-83"/>
     <use x="63.476562" xlink:href="#DejaVuSans-101"/>
     <use x="123.25" xlink:href="#DejaVuSans-120"/>
     <use x="182.429688" xlink:href="#DejaVuSans-32"/>
     <use x="214.216797" xlink:href="#DejaVuSans-61"/>
     <use x="298.005859" xlink:href="#DejaVuSans-32"/>
     <use x="329.792969" xlink:href="#DejaVuSans-77"/>
    </g>
   </g>
   <g id="PathCollection_4">
    <defs>
     <path d="M 0 2.707159 
C 0.717947 2.707159 1.406585 2.421915 1.91425 1.91425 
C 2.421915 1.406585 2.707159 0.717947 2.707159 0 
C 2.707159 -0.717947 2.421915 -1.406585 1.91425 -1.91425 
C 1.406585 -2.421915 0.717947 -2.707159 0 -2.707159 
C -0.717947 -2.707159 -1.406585 -2.421915 -1.91425 -1.91425 
C -2.421915 -1.406585 -2.707159 -0.717947 -2.707159 0 
C -2.707159 0.717947 -2.421915 1.406585 -1.91425 1.91425 
C -1.406585 2.421915 -0.717947 2.707159 0 2.707159 
z
" id="m2332513150" style="stroke:#d62728;stroke-width:1.62;"/>
    </defs>
    <g clip-path="url(#p4c97350aa2)">
     <use style="fill:#d62728;stroke:#d62728;stroke-width:1.62;" x="135.048733" xlink:href="#m2332513150" y="186.655215"/>
     <use style="fill:#d62728;stroke:#d62728;stroke-width:1.62;" x="298.00465" xlink:href="#m2332513150" y="80.268901"/>
    </g>
   </g>
   <g id="line2d_29">
    <path clip-path="url(#p4c97350aa2)" d="M 135.048733 186.655215 
L 298.00465 80.268901 
" style="fill:none;stroke:#d62728;stroke-linecap:square;stroke-width:2.16;"/>
   </g>
   <g id="line2d_30">
    <path clip-path="url(#p4c97350aa2)" d="M 135.048733 223.461011 
L 135.048733 149.849419 
" style="fill:none;stroke:#d62728;stroke-linecap:square;stroke-width:2.16;"/>
   </g>
   <g id="line2d_31">
    <path clip-path="url(#p4c97350aa2)" d="M 118.753141 223.461011 
L 151.344325 223.461011 
" style="fill:none;stroke:#d62728;stroke-linecap:square;stroke-width:2.16;"/>
   </g>
   <g id="line2d_32">
    <path clip-path="url(#p4c97350aa2)" d="M 118.753141 149.849419 
L 151.344325 149.849419 
" style="fill:none;stroke:#d62728;stroke-linecap:square;stroke-width:2.16;"/>
   </g>
   <g id="line2d_33">
    <path clip-path="url(#p4c97350aa2)" d="M 298.00465 123.558711 
L 298.00465 36.979091 
" style="fill:none;stroke:#d62728;stroke-linecap:square;stroke-width:2.16;"/>
   </g>
   <g id="line2d_34">
    <path clip-path="url(#p4c97350aa2)" d="M 281.709058 123.558711 
L 314.300241 123.558711 
" style="fill:none;stroke:#d62728;stroke-linecap:square;stroke-width:2.16;"/>
   </g>
   <g id="line2d_35">
    <path clip-path="url(#p4c97350aa2)" d="M 281.709058 36.979091 
L 314.300241 36.979091 
" style="fill:none;stroke:#d62728;stroke-linecap:square;stroke-width:2.16;"/>
   </g>
  </g>
  <g id="axes_2">
   <g id="patch_5">
    <path d="M 386.515567 318.612 
L 712.4274 318.612 
L 712.4274 23.568 
L 386.515567 23.568 
z
" style="fill:#ffffff;"/>
   </g>
   <g id="PathCollection_5">
    <g clip-path="url(#pbdac40f91a)">
     <use style="fill:#1f77b4;stroke:#1f77b4;stroke-width:1.62;" x="459.845729" xlink:href="#mc56874a85b" y="290.191319"/>
     <use style="fill:#1f77b4;stroke:#1f77b4;stroke-width:1.62;" x="622.801646" xlink:href="#mc56874a85b" y="87.843708"/>
    </g>
   </g>
   <g id="line2d_36">
    <path clip-path="url(#pbdac40f91a)" d="M 459.845729 290.191319 
L 622.801646 87.843708 
" style="fill:none;stroke:#1f77b4;stroke-linecap:square;stroke-width:2.16;"/>
   </g>
   <g id="line2d_37">
    <path clip-path="url(#pbdac40f91a)" d="M 459.845729 301.39293 
L 459.845729 278.989708 
" style="fill:none;stroke:#1f77b4;stroke-linecap:square;stroke-width:2.16;"/>
   </g>
   <g id="line2d_38">
    <path clip-path="url(#pbdac40f91a)" d="M 443.550138 301.39293 
L 476.141321 301.39293 
" style="fill:none;stroke:#1f77b4;stroke-linecap:square;stroke-width:2.16;"/>
   </g>
   <g id="line2d_39">
    <path clip-path="url(#pbdac40f91a)" d="M 443.550138 278.989708 
L 476.141321 278.989708 
" style="fill:none;stroke:#1f77b4;stroke-linecap:square;stroke-width:2.16;"/>
   </g>
   <g id="line2d_40">
    <path clip-path="url(#pbdac40f91a)" d="M 622.801646 113.78572 
L 622.801646 61.901695 
" style="fill:none;stroke:#1f77b4;stroke-linecap:square;stroke-width:2.16;"/>
   </g>
   <g id="line2d_41">
    <path clip-path="url(#pbdac40f91a)" d="M 606.506054 113.78572 
L 639.097238 113.78572 
" style="fill:none;stroke:#1f77b4;stroke-linecap:square;stroke-width:2.16;"/>
   </g>
   <g id="line2d_42">
    <path clip-path="url(#pbdac40f91a)" d="M 606.506054 61.901695 
L 639.097238 61.901695 
" style="fill:none;stroke:#1f77b4;stroke-linecap:square;stroke-width:2.16;"/>
   </g>
   <g id="matplotlib.axis_3">
    <g id="xtick_3">
     <g id="line2d_43">
      <g>
       <use style="stroke:#000000;" x="467.993525" xlink:href="#md3648c2a0c" y="318.612"/>
      </g>
     </g>
     <g id="text_11">
      <!-- MC -->
      <g transform="translate(461.124713 333.598625)scale(0.088 -0.088)">
       <use xlink:href="#DejaVuSans-77"/>
       <use x="86.279297" xlink:href="#DejaVuSans-67"/>
      </g>
     </g>
    </g>
    <g id="xtick_4">
     <g id="line2d_44">
      <g>
       <use style="stroke:#000000;" x="630.949442" xlink:href="#md3648c2a0c" y="318.612"/>
      </g>
     </g>
     <g id="text_12">
      <!-- MD -->
      <g transform="translate(623.765067 333.598625)scale(0.088 -0.088)">
       <use xlink:href="#DejaVuSans-77"/>
       <use x="86.279297" xlink:href="#DejaVuSans-68"/>
      </g>
     </g>
    </g>
    <g id="text_13">
     <!-- Popn -->
     <g transform="translate(537.724983 346.72325)scale(0.096 -0.096)">
      <use xlink:href="#DejaVuSans-80"/>
      <use x="56.677734" xlink:href="#DejaVuSans-111"/>
      <use x="117.859375" xlink:href="#DejaVuSans-112"/>
      <use x="181.335938" xlink:href="#DejaVuSans-110"/>
     </g>
    </g>
   </g>
   <g id="matplotlib.axis_4">
    <g id="ytick_6">
     <g id="line2d_45">
      <g>
       <use style="stroke:#000000;" x="386.515567" xlink:href="#m0562092053" y="285.65987"/>
      </g>
     </g>
    </g>
    <g id="ytick_7">
     <g id="line2d_46">
      <g>
       <use style="stroke:#000000;" x="386.515567" xlink:href="#m0562092053" y="232.131447"/>
      </g>
     </g>
    </g>
    <g id="ytick_8">
     <g id="line2d_47">
      <g>
       <use style="stroke:#000000;" x="386.515567" xlink:href="#m0562092053" y="178.603023"/>
      </g>
     </g>
    </g>
    <g id="ytick_9">
     <g id="line2d_48">
      <g>
       <use style="stroke:#000000;" x="386.515567" xlink:href="#m0562092053" y="125.0746"/>
      </g>
     </g>
    </g>
    <g id="ytick_10">
     <g id="line2d_49">
      <g>
       <use style="stroke:#000000;" x="386.515567" xlink:href="#m0562092053" y="71.546176"/>
      </g>
     </g>
    </g>
   </g>
   <g id="PathCollection_6">
    <g clip-path="url(#pbdac40f91a)">
     <use style="fill:#ff7f0e;stroke:#ff7f0e;stroke-width:1.62;" x="465.277593" xlink:href="#mf2d35fb202" y="284.315861"/>
     <use style="fill:#ff7f0e;stroke:#ff7f0e;stroke-width:1.62;" x="628.23351" xlink:href="#mf2d35fb202" y="110.3649"/>
    </g>
   </g>
   <g id="line2d_50">
    <path clip-path="url(#pbdac40f91a)" d="M 465.277593 284.315861 
L 628.23351 110.3649 
" style="fill:none;stroke:#ff7f0e;stroke-linecap:square;stroke-width:2.16;"/>
   </g>
   <g id="line2d_51">
    <path clip-path="url(#pbdac40f91a)" d="M 465.277593 305.200909 
L 465.277593 263.430813 
" style="fill:none;stroke:#ff7f0e;stroke-linecap:square;stroke-width:2.16;"/>
   </g>
   <g id="line2d_52">
    <path clip-path="url(#pbdac40f91a)" d="M 448.982002 305.200909 
L 481.573185 305.200909 
" style="fill:none;stroke:#ff7f0e;stroke-linecap:square;stroke-width:2.16;"/>
   </g>
   <g id="line2d_53">
    <path clip-path="url(#pbdac40f91a)" d="M 448.982002 263.430813 
L 481.573185 263.430813 
" style="fill:none;stroke:#ff7f0e;stroke-linecap:square;stroke-width:2.16;"/>
   </g>
   <g id="line2d_54">
    <path clip-path="url(#pbdac40f91a)" d="M 628.23351 136.470592 
L 628.23351 84.259208 
" style="fill:none;stroke:#ff7f0e;stroke-linecap:square;stroke-width:2.16;"/>
   </g>
   <g id="line2d_55">
    <path clip-path="url(#pbdac40f91a)" d="M 611.937918 136.470592 
L 644.529101 136.470592 
" style="fill:none;stroke:#ff7f0e;stroke-linecap:square;stroke-width:2.16;"/>
   </g>
   <g id="line2d_56">
    <path clip-path="url(#pbdac40f91a)" d="M 611.937918 84.259208 
L 644.529101 84.259208 
" style="fill:none;stroke:#ff7f0e;stroke-linecap:square;stroke-width:2.16;"/>
   </g>
   <g id="patch_6">
    <path d="M 386.515567 318.612 
L 386.515567 23.568 
" style="fill:none;stroke:#000000;stroke-linecap:square;stroke-linejoin:miter;"/>
   </g>
   <g id="patch_7">
    <path d="M 386.515567 318.612 
L 712.4274 318.612 
" style="fill:none;stroke:#000000;stroke-linecap:square;stroke-linejoin:miter;"/>
   </g>
   <g id="PathCollection_7">
    <g clip-path="url(#pbdac40f91a)">
     <use style="fill:#2ca02c;stroke:#2ca02c;stroke-width:1.62;" x="470.709457" xlink:href="#m9edf7267b4" y="212.648439"/>
     <use style="fill:#2ca02c;stroke:#2ca02c;stroke-width:1.62;" x="633.665374" xlink:href="#m9edf7267b4" y="123.450191"/>
    </g>
   </g>
   <g id="line2d_57">
    <path clip-path="url(#pbdac40f91a)" d="M 470.709457 212.648439 
L 633.665374 123.450191 
" style="fill:none;stroke:#2ca02c;stroke-linecap:square;stroke-width:2.16;"/>
   </g>
   <g id="line2d_58">
    <path clip-path="url(#pbdac40f91a)" d="M 470.709457 246.011249 
L 470.709457 179.285629 
" style="fill:none;stroke:#2ca02c;stroke-linecap:square;stroke-width:2.16;"/>
   </g>
   <g id="line2d_59">
    <path clip-path="url(#pbdac40f91a)" d="M 454.413866 246.011249 
L 487.005049 246.011249 
" style="fill:none;stroke:#2ca02c;stroke-linecap:square;stroke-width:2.16;"/>
   </g>
   <g id="line2d_60">
    <path clip-path="url(#pbdac40f91a)" d="M 454.413866 179.285629 
L 487.005049 179.285629 
" style="fill:none;stroke:#2ca02c;stroke-linecap:square;stroke-width:2.16;"/>
   </g>
   <g id="line2d_61">
    <path clip-path="url(#pbdac40f91a)" d="M 633.665374 145.293605 
L 633.665374 101.606777 
" style="fill:none;stroke:#2ca02c;stroke-linecap:square;stroke-width:2.16;"/>
   </g>
   <g id="line2d_62">
    <path clip-path="url(#pbdac40f91a)" d="M 617.369782 145.293605 
L 649.960965 145.293605 
" style="fill:none;stroke:#2ca02c;stroke-linecap:square;stroke-width:2.16;"/>
   </g>
   <g id="line2d_63">
    <path clip-path="url(#pbdac40f91a)" d="M 617.369782 101.606777 
L 649.960965 101.606777 
" style="fill:none;stroke:#2ca02c;stroke-linecap:square;stroke-width:2.16;"/>
   </g>
   <g id="text_14">
    <!-- Sex = F -->
    <defs>
     <path d="M 9.8125 72.90625 
L 51.703125 72.90625 
L 51.703125 64.59375 
L 19.671875 64.59375 
L 19.671875 43.109375 
L 48.578125 43.109375 
L 48.578125 34.8125 
L 19.671875 34.8125 
L 19.671875 0 
L 9.8125 0 
z
" id="DejaVuSans-70"/>
    </defs>
    <g transform="translate(530.879733 17.568)scale(0.096 -0.096)">
     <use xlink:href="#DejaVuSans-83"/>
     <use x="63.476562" xlink:href="#DejaVuSans-101"/>
     <use x="123.25" xlink:href="#DejaVuSans-120"/>
     <use x="182.429688" xlink:href="#DejaVuSans-32"/>
     <use x="214.216797" xlink:href="#DejaVuSans-61"/>
     <use x="298.005859" xlink:href="#DejaVuSans-32"/>
     <use x="329.792969" xlink:href="#DejaVuSans-70"/>
    </g>
   </g>
   <g id="PathCollection_8">
    <g clip-path="url(#pbdac40f91a)">
     <use style="fill:#d62728;stroke:#d62728;stroke-width:1.62;" x="476.141321" xlink:href="#m2332513150" y="221.255185"/>
     <use style="fill:#d62728;stroke:#d62728;stroke-width:1.62;" x="639.097238" xlink:href="#m2332513150" y="92.958081"/>
    </g>
   </g>
   <g id="line2d_64">
    <path clip-path="url(#pbdac40f91a)" d="M 476.141321 221.255185 
L 639.097238 92.958081 
" style="fill:none;stroke:#d62728;stroke-linecap:square;stroke-width:2.16;"/>
   </g>
   <g id="line2d_65">
    <path clip-path="url(#pbdac40f91a)" d="M 476.141321 243.547597 
L 476.141321 198.962773 
" style="fill:none;stroke:#d62728;stroke-linecap:square;stroke-width:2.16;"/>
   </g>
   <g id="line2d_66">
    <path clip-path="url(#pbdac40f91a)" d="M 459.845729 243.547597 
L 492.436913 243.547597 
" style="fill:none;stroke:#d62728;stroke-linecap:square;stroke-width:2.16;"/>
   </g>
   <g id="line2d_67">
    <path clip-path="url(#pbdac40f91a)" d="M 459.845729 198.962773 
L 492.436913 198.962773 
" style="fill:none;stroke:#d62728;stroke-linecap:square;stroke-width:2.16;"/>
   </g>
   <g id="line2d_68">
    <path clip-path="url(#pbdac40f91a)" d="M 639.097238 133.392514 
L 639.097238 52.523648 
" style="fill:none;stroke:#d62728;stroke-linecap:square;stroke-width:2.16;"/>
   </g>
   <g id="line2d_69">
    <path clip-path="url(#pbdac40f91a)" d="M 622.801646 133.392514 
L 655.392829 133.392514 
" style="fill:none;stroke:#d62728;stroke-linecap:square;stroke-width:2.16;"/>
   </g>
   <g id="line2d_70">
    <path clip-path="url(#pbdac40f91a)" d="M 622.801646 52.523648 
L 655.392829 52.523648 
" style="fill:none;stroke:#d62728;stroke-linecap:square;stroke-width:2.16;"/>
   </g>
  </g>
  <g id="legend_1">
   <g id="text_15">
    <!-- Block -->
    <defs>
     <path d="M 19.671875 34.8125 
L 19.671875 8.109375 
L 35.5 8.109375 
Q 43.453125 8.109375 47.28125 11.40625 
Q 51.125 14.703125 51.125 21.484375 
Q 51.125 28.328125 47.28125 31.5625 
Q 43.453125 34.8125 35.5 34.8125 
z
M 19.671875 64.796875 
L 19.671875 42.828125 
L 34.28125 42.828125 
Q 41.5 42.828125 45.03125 45.53125 
Q 48.578125 48.25 48.578125 53.8125 
Q 48.578125 59.328125 45.03125 62.0625 
Q 41.5 64.796875 34.28125 64.796875 
z
M 9.8125 72.90625 
L 35.015625 72.90625 
Q 46.296875 72.90625 52.390625 68.21875 
Q 58.5 63.53125 58.5 54.890625 
Q 58.5 48.1875 55.375 44.234375 
Q 52.25 40.28125 46.1875 39.3125 
Q 53.46875 37.75 57.5 32.78125 
Q 61.53125 27.828125 61.53125 20.40625 
Q 61.53125 10.640625 54.890625 5.3125 
Q 48.25 0 35.984375 0 
L 9.8125 0 
z
" id="DejaVuSans-66"/>
     <path d="M 48.78125 52.59375 
L 48.78125 44.1875 
Q 44.96875 46.296875 41.140625 47.34375 
Q 37.3125 48.390625 33.40625 48.390625 
Q 24.65625 48.390625 19.8125 42.84375 
Q 14.984375 37.3125 14.984375 27.296875 
Q 14.984375 17.28125 19.8125 11.734375 
Q 24.65625 6.203125 33.40625 6.203125 
Q 37.3125 6.203125 41.140625 7.25 
Q 44.96875 8.296875 48.78125 10.40625 
L 48.78125 2.09375 
Q 45.015625 0.34375 40.984375 -0.53125 
Q 36.96875 -1.421875 32.421875 -1.421875 
Q 20.0625 -1.421875 12.78125 6.34375 
Q 5.515625 14.109375 5.515625 27.296875 
Q 5.515625 40.671875 12.859375 48.328125 
Q 20.21875 56 33.015625 56 
Q 37.15625 56 41.109375 55.140625 
Q 45.0625 54.296875 48.78125 52.59375 
z
" id="DejaVuSans-99"/>
     <path d="M 9.078125 75.984375 
L 18.109375 75.984375 
L 18.109375 31.109375 
L 44.921875 54.6875 
L 56.390625 54.6875 
L 27.390625 29.109375 
L 57.625 0 
L 45.90625 0 
L 18.109375 26.703125 
L 18.109375 0 
L 9.078125 0 
z
" id="DejaVuSans-107"/>
    </defs>
    <g transform="translate(721.238 156.8155)scale(0.096 -0.096)">
     <use xlink:href="#DejaVuSans-66"/>
     <use x="68.603516" xlink:href="#DejaVuSans-108"/>
     <use x="96.386719" xlink:href="#DejaVuSans-111"/>
     <use x="157.568359" xlink:href="#DejaVuSans-99"/>
     <use x="212.548828" xlink:href="#DejaVuSans-107"/>
    </g>
   </g>
   <g id="PathCollection_9">
    <g>
     <use style="fill:#1f77b4;stroke:#1f77b4;stroke-width:1.62;" x="727.901" xlink:href="#mc56874a85b" y="167.588625"/>
    </g>
   </g>
   <g id="text_16">
    <!-- 1 -->
    <g transform="translate(743.741 169.898625)scale(0.088 -0.088)">
     <use xlink:href="#DejaVuSans-49"/>
    </g>
   </g>
   <g id="PathCollection_10">
    <g>
     <use style="fill:#ff7f0e;stroke:#ff7f0e;stroke-width:1.62;" x="727.901" xlink:href="#mf2d35fb202" y="180.505375"/>
    </g>
   </g>
   <g id="text_17">
    <!-- 2 -->
    <g transform="translate(743.741 182.815375)scale(0.088 -0.088)">
     <use xlink:href="#DejaVuSans-50"/>
    </g>
   </g>
   <g id="PathCollection_11">
    <g>
     <use style="fill:#2ca02c;stroke:#2ca02c;stroke-width:1.62;" x="727.901" xlink:href="#m9edf7267b4" y="193.422125"/>
    </g>
   </g>
   <g id="text_18">
    <!-- 3 -->
    <defs>
     <path d="M 40.578125 39.3125 
Q 47.65625 37.796875 51.625 33 
Q 55.609375 28.21875 55.609375 21.1875 
Q 55.609375 10.40625 48.1875 4.484375 
Q 40.765625 -1.421875 27.09375 -1.421875 
Q 22.515625 -1.421875 17.65625 -0.515625 
Q 12.796875 0.390625 7.625 2.203125 
L 7.625 11.71875 
Q 11.71875 9.328125 16.59375 8.109375 
Q 21.484375 6.890625 26.8125 6.890625 
Q 36.078125 6.890625 40.9375 10.546875 
Q 45.796875 14.203125 45.796875 21.1875 
Q 45.796875 27.640625 41.28125 31.265625 
Q 36.765625 34.90625 28.71875 34.90625 
L 20.21875 34.90625 
L 20.21875 43.015625 
L 29.109375 43.015625 
Q 36.375 43.015625 40.234375 45.921875 
Q 44.09375 48.828125 44.09375 54.296875 
Q 44.09375 59.90625 40.109375 62.90625 
Q 36.140625 65.921875 28.71875 65.921875 
Q 24.65625 65.921875 20.015625 65.03125 
Q 15.375 64.15625 9.8125 62.3125 
L 9.8125 71.09375 
Q 15.4375 72.65625 20.34375 73.4375 
Q 25.25 74.21875 29.59375 74.21875 
Q 40.828125 74.21875 47.359375 69.109375 
Q 53.90625 64.015625 53.90625 55.328125 
Q 53.90625 49.265625 50.4375 45.09375 
Q 46.96875 40.921875 40.578125 39.3125 
z
" id="DejaVuSans-51"/>
    </defs>
    <g transform="translate(743.741 195.732125)scale(0.088 -0.088)">
     <use xlink:href="#DejaVuSans-51"/>
    </g>
   </g>
   <g id="PathCollection_12">
    <g>
     <use style="fill:#d62728;stroke:#d62728;stroke-width:1.62;" x="727.901" xlink:href="#m2332513150" y="206.338875"/>
    </g>
   </g>
   <g id="text_19">
    <!-- 4 -->
    <g transform="translate(743.741 208.648875)scale(0.088 -0.088)">
     <use xlink:href="#DejaVuSans-52"/>
    </g>
   </g>
  </g>
 </g>
 <defs>
  <clipPath id="p4c97350aa2">
   <rect height="295.044" width="325.911833" x="45.422979" y="23.568"/>
  </clipPath>
  <clipPath id="pbdac40f91a">
   <rect height="295.044" width="325.911833" x="386.515567" y="23.568"/>
  </clipPath>
 </defs>
</svg>
