<?xml version="1.0" encoding="utf-8" standalone="no"?>
<!DOCTYPE svg PUBLIC "-//W3C//DTD SVG 1.1//EN"
  "http://www.w3.org/Graphics/SVG/1.1/DTD/svg11.dtd">
<!-- Created with matplotlib (https://matplotlib.org/) -->
<svg height="360pt" version="1.1" viewBox="0 0 1477.305 360" width="1477.305pt" xmlns="http://www.w3.org/2000/svg" xmlns:xlink="http://www.w3.org/1999/xlink">
 <defs>
  <style type="text/css">
*{stroke-linecap:butt;stroke-linejoin:round;}
  </style>
 </defs>
 <g id="figure_1">
  <g id="patch_1">
   <path d="M 0 360 
L 1477.305 360 
L 1477.305 0 
L 0 0 
z
" style="fill:#ffffff;"/>
  </g>
  <g id="axes_1">
   <g id="patch_2">
    <path d="M 45.055751 318.332 
L 378.768054 318.332 
L 378.768054 24.368 
L 45.055751 24.368 
z
" style="fill:#ffffff;"/>
   </g>
   <g id="PathCollection_1">
    <defs>
     <path d="M 0 2.707159 
C 0.717947 2.707159 1.406585 2.421915 1.91425 1.91425 
C 2.421915 1.406585 2.707159 0.717947 2.707159 0 
C 2.707159 -0.717947 2.421915 -1.406585 1.91425 -1.91425 
C 1.406585 -2.421915 0.717947 -2.707159 0 -2.707159 
C -0.717947 -2.707159 -1.406585 -2.421915 -1.91425 -1.91425 
C -2.421915 -1.406585 -2.707159 -0.717947 -2.707159 0 
C -2.707159 0.717947 -2.421915 1.406585 -1.91425 1.91425 
C -1.406585 2.421915 -0.717947 2.707159 0 2.707159 
z
" id="m391d238e4b" style="stroke:#1f77b4;stroke-width:1.62;"/>
    </defs>
    <g clip-path="url(#pcff7a3983b)">
     <use style="fill:#1f77b4;stroke:#1f77b4;stroke-width:1.62;" x="120.141019" xlink:href="#m391d238e4b" y="268.794038"/>
     <use style="fill:#1f77b4;stroke:#1f77b4;stroke-width:1.62;" x="286.997171" xlink:href="#m391d238e4b" y="270.377699"/>
    </g>
   </g>
   <g id="line2d_1">
    <path clip-path="url(#pcff7a3983b)" d="M 120.141019 268.794038 
L 286.997171 270.377699 
" style="fill:none;stroke:#1f77b4;stroke-linecap:square;stroke-width:2.16;"/>
   </g>
   <g id="line2d_2">
    <path clip-path="url(#pcff7a3983b)" d="M 120.141019 295.739308 
L 120.141019 241.848768 
" style="fill:none;stroke:#1f77b4;stroke-linecap:square;stroke-width:2.16;"/>
   </g>
   <g id="line2d_3">
    <path clip-path="url(#pcff7a3983b)" d="M 111.798211 295.739308 
L 128.483827 295.739308 
" style="fill:none;stroke:#1f77b4;stroke-linecap:square;stroke-width:2.16;"/>
   </g>
   <g id="line2d_4">
    <path clip-path="url(#pcff7a3983b)" d="M 111.798211 241.848768 
L 128.483827 241.848768 
" style="fill:none;stroke:#1f77b4;stroke-linecap:square;stroke-width:2.16;"/>
   </g>
   <g id="line2d_5">
    <path clip-path="url(#pcff7a3983b)" d="M 286.997171 283.106779 
L 286.997171 257.648619 
" style="fill:none;stroke:#1f77b4;stroke-linecap:square;stroke-width:2.16;"/>
   </g>
   <g id="line2d_6">
    <path clip-path="url(#pcff7a3983b)" d="M 278.654363 283.106779 
L 295.339978 283.106779 
" style="fill:none;stroke:#1f77b4;stroke-linecap:square;stroke-width:2.16;"/>
   </g>
   <g id="line2d_7">
    <path clip-path="url(#pcff7a3983b)" d="M 278.654363 257.648619 
L 295.339978 257.648619 
" style="fill:none;stroke:#1f77b4;stroke-linecap:square;stroke-width:2.16;"/>
   </g>
   <g id="matplotlib.axis_1">
    <g id="xtick_1">
     <g id="line2d_8">
      <defs>
       <path d="M 0 0 
L 0 4.8 
" id="m4857183f93" style="stroke:#000000;"/>
      </defs>
      <g>
       <use style="stroke:#000000;" x="128.483827" xlink:href="#m4857183f93" y="318.332"/>
      </g>
     </g>
     <g id="text_1">
      <!-- MC -->
      <defs>
       <path d="M 9.8125 72.90625 
L 24.515625 72.90625 
L 43.109375 23.296875 
L 61.8125 72.90625 
L 76.515625 72.90625 
L 76.515625 0 
L 66.890625 0 
L 66.890625 64.015625 
L 48.09375 14.015625 
L 38.1875 14.015625 
L 19.390625 64.015625 
L 19.390625 0 
L 9.8125 0 
z
" id="DejaVuSans-77"/>
       <path d="M 64.40625 67.28125 
L 64.40625 56.890625 
Q 59.421875 61.53125 53.78125 63.8125 
Q 48.140625 66.109375 41.796875 66.109375 
Q 29.296875 66.109375 22.65625 58.46875 
Q 16.015625 50.828125 16.015625 36.375 
Q 16.015625 21.96875 22.65625 14.328125 
Q 29.296875 6.6875 41.796875 6.6875 
Q 48.140625 6.6875 53.78125 8.984375 
Q 59.421875 11.28125 64.40625 15.921875 
L 64.40625 5.609375 
Q 59.234375 2.09375 53.4375 0.328125 
Q 47.65625 -1.421875 41.21875 -1.421875 
Q 24.65625 -1.421875 15.125 8.703125 
Q 5.609375 18.84375 5.609375 36.375 
Q 5.609375 53.953125 15.125 64.078125 
Q 24.65625 74.21875 41.21875 74.21875 
Q 47.75 74.21875 53.53125 72.484375 
Q 59.328125 70.75 64.40625 67.28125 
z
" id="DejaVuSans-67"/>
      </defs>
      <g transform="translate(121.615014 333.318625)scale(0.088 -0.088)">
       <use xlink:href="#DejaVuSans-77"/>
       <use x="86.279297" xlink:href="#DejaVuSans-67"/>
      </g>
     </g>
    </g>
    <g id="xtick_2">
     <g id="line2d_9">
      <g>
       <use style="stroke:#000000;" x="295.339978" xlink:href="#m4857183f93" y="318.332"/>
      </g>
     </g>
     <g id="text_2">
      <!-- VBC -->
      <defs>
       <path d="M 28.609375 0 
L 0.78125 72.90625 
L 11.078125 72.90625 
L 34.1875 11.53125 
L 57.328125 72.90625 
L 67.578125 72.90625 
L 39.796875 0 
z
" id="DejaVuSans-86"/>
       <path d="M 19.671875 34.8125 
L 19.671875 8.109375 
L 35.5 8.109375 
Q 43.453125 8.109375 47.28125 11.40625 
Q 51.125 14.703125 51.125 21.484375 
Q 51.125 28.328125 47.28125 31.5625 
Q 43.453125 34.8125 35.5 34.8125 
z
M 19.671875 64.796875 
L 19.671875 42.828125 
L 34.28125 42.828125 
Q 41.5 42.828125 45.03125 45.53125 
Q 48.578125 48.25 48.578125 53.8125 
Q 48.578125 59.328125 45.03125 62.0625 
Q 41.5 64.796875 34.28125 64.796875 
z
M 9.8125 72.90625 
L 35.015625 72.90625 
Q 46.296875 72.90625 52.390625 68.21875 
Q 58.5 63.53125 58.5 54.890625 
Q 58.5 48.1875 55.375 44.234375 
Q 52.25 40.28125 46.1875 39.3125 
Q 53.46875 37.75 57.5 32.78125 
Q 61.53125 27.828125 61.53125 20.40625 
Q 61.53125 10.640625 54.890625 5.3125 
Q 48.25 0 35.984375 0 
L 9.8125 0 
z
" id="DejaVuSans-66"/>
      </defs>
      <g transform="translate(286.315853 333.318625)scale(0.088 -0.088)">
       <use xlink:href="#DejaVuSans-86"/>
       <use x="68.408203" xlink:href="#DejaVuSans-66"/>
       <use x="135.261719" xlink:href="#DejaVuSans-67"/>
      </g>
     </g>
    </g>
    <g id="text_3">
     <!-- Popn -->
     <defs>
      <path d="M 19.671875 64.796875 
L 19.671875 37.40625 
L 32.078125 37.40625 
Q 38.96875 37.40625 42.71875 40.96875 
Q 46.484375 44.53125 46.484375 51.125 
Q 46.484375 57.671875 42.71875 61.234375 
Q 38.96875 64.796875 32.078125 64.796875 
z
M 9.8125 72.90625 
L 32.078125 72.90625 
Q 44.34375 72.90625 50.609375 67.359375 
Q 56.890625 61.8125 56.890625 51.125 
Q 56.890625 40.328125 50.609375 34.8125 
Q 44.34375 29.296875 32.078125 29.296875 
L 19.671875 29.296875 
L 19.671875 0 
L 9.8125 0 
z
" id="DejaVuSans-80"/>
      <path d="M 30.609375 48.390625 
Q 23.390625 48.390625 19.1875 42.75 
Q 14.984375 37.109375 14.984375 27.296875 
Q 14.984375 17.484375 19.15625 11.84375 
Q 23.34375 6.203125 30.609375 6.203125 
Q 37.796875 6.203125 41.984375 11.859375 
Q 46.1875 17.53125 46.1875 27.296875 
Q 46.1875 37.015625 41.984375 42.703125 
Q 37.796875 48.390625 30.609375 48.390625 
z
M 30.609375 56 
Q 42.328125 56 49.015625 48.375 
Q 55.71875 40.765625 55.71875 27.296875 
Q 55.71875 13.875 49.015625 6.21875 
Q 42.328125 -1.421875 30.609375 -1.421875 
Q 18.84375 -1.421875 12.171875 6.21875 
Q 5.515625 13.875 5.515625 27.296875 
Q 5.515625 40.765625 12.171875 48.375 
Q 18.84375 56 30.609375 56 
z
" id="DejaVuSans-111"/>
      <path d="M 18.109375 8.203125 
L 18.109375 -20.796875 
L 9.078125 -20.796875 
L 9.078125 54.6875 
L 18.109375 54.6875 
L 18.109375 46.390625 
Q 20.953125 51.265625 25.265625 53.625 
Q 29.59375 56 35.59375 56 
Q 45.5625 56 51.78125 48.09375 
Q 58.015625 40.1875 58.015625 27.296875 
Q 58.015625 14.40625 51.78125 6.484375 
Q 45.5625 -1.421875 35.59375 -1.421875 
Q 29.59375 -1.421875 25.265625 0.953125 
Q 20.953125 3.328125 18.109375 8.203125 
z
M 48.6875 27.296875 
Q 48.6875 37.203125 44.609375 42.84375 
Q 40.53125 48.484375 33.40625 48.484375 
Q 26.265625 48.484375 22.1875 42.84375 
Q 18.109375 37.203125 18.109375 27.296875 
Q 18.109375 17.390625 22.1875 11.75 
Q 26.265625 6.109375 33.40625 6.109375 
Q 40.53125 6.109375 44.609375 11.75 
Q 48.6875 17.390625 48.6875 27.296875 
z
" id="DejaVuSans-112"/>
      <path d="M 54.890625 33.015625 
L 54.890625 0 
L 45.90625 0 
L 45.90625 32.71875 
Q 45.90625 40.484375 42.875 44.328125 
Q 39.84375 48.1875 33.796875 48.1875 
Q 26.515625 48.1875 22.3125 43.546875 
Q 18.109375 38.921875 18.109375 30.90625 
L 18.109375 0 
L 9.078125 0 
L 9.078125 54.6875 
L 18.109375 54.6875 
L 18.109375 46.1875 
Q 21.34375 51.125 25.703125 53.5625 
Q 30.078125 56 35.796875 56 
Q 45.21875 56 50.046875 50.171875 
Q 54.890625 44.34375 54.890625 33.015625 
z
" id="DejaVuSans-110"/>
     </defs>
     <g transform="translate(200.165402 346.44325)scale(0.096 -0.096)">
      <use xlink:href="#DejaVuSans-80"/>
      <use x="56.677734" xlink:href="#DejaVuSans-111"/>
      <use x="117.859375" xlink:href="#DejaVuSans-112"/>
      <use x="181.335938" xlink:href="#DejaVuSans-110"/>
     </g>
    </g>
   </g>
   <g id="matplotlib.axis_2">
    <g id="ytick_1">
     <g id="line2d_10">
      <defs>
       <path d="M 0 0 
L -4.8 0 
" id="mb52261094b" style="stroke:#000000;"/>
      </defs>
      <g>
       <use style="stroke:#000000;" x="45.055751" xlink:href="#mb52261094b" y="317.608051"/>
      </g>
     </g>
     <g id="text_4">
      <!-- 0 -->
      <defs>
       <path d="M 31.78125 66.40625 
Q 24.171875 66.40625 20.328125 58.90625 
Q 16.5 51.421875 16.5 36.375 
Q 16.5 21.390625 20.328125 13.890625 
Q 24.171875 6.390625 31.78125 6.390625 
Q 39.453125 6.390625 43.28125 13.890625 
Q 47.125 21.390625 47.125 36.375 
Q 47.125 51.421875 43.28125 58.90625 
Q 39.453125 66.40625 31.78125 66.40625 
z
M 31.78125 74.21875 
Q 44.046875 74.21875 50.515625 64.515625 
Q 56.984375 54.828125 56.984375 36.375 
Q 56.984375 17.96875 50.515625 8.265625 
Q 44.046875 -1.421875 31.78125 -1.421875 
Q 19.53125 -1.421875 13.0625 8.265625 
Q 6.59375 17.96875 6.59375 36.375 
Q 6.59375 54.828125 13.0625 64.515625 
Q 19.53125 74.21875 31.78125 74.21875 
z
" id="DejaVuSans-48"/>
      </defs>
      <g transform="translate(31.156751 320.951364)scale(0.088 -0.088)">
       <use xlink:href="#DejaVuSans-48"/>
      </g>
     </g>
    </g>
    <g id="ytick_2">
     <g id="line2d_11">
      <g>
       <use style="stroke:#000000;" x="45.055751" xlink:href="#mb52261094b" y="280.345446"/>
      </g>
     </g>
     <g id="text_5">
      <!-- 10 -->
      <defs>
       <path d="M 12.40625 8.296875 
L 28.515625 8.296875 
L 28.515625 63.921875 
L 10.984375 60.40625 
L 10.984375 69.390625 
L 28.421875 72.90625 
L 38.28125 72.90625 
L 38.28125 8.296875 
L 54.390625 8.296875 
L 54.390625 0 
L 12.40625 0 
z
" id="DejaVuSans-49"/>
      </defs>
      <g transform="translate(25.557751 283.688758)scale(0.088 -0.088)">
       <use xlink:href="#DejaVuSans-49"/>
       <use x="63.623047" xlink:href="#DejaVuSans-48"/>
      </g>
     </g>
    </g>
    <g id="ytick_3">
     <g id="line2d_12">
      <g>
       <use style="stroke:#000000;" x="45.055751" xlink:href="#mb52261094b" y="243.08284"/>
      </g>
     </g>
     <g id="text_6">
      <!-- 20 -->
      <defs>
       <path d="M 19.1875 8.296875 
L 53.609375 8.296875 
L 53.609375 0 
L 7.328125 0 
L 7.328125 8.296875 
Q 12.9375 14.109375 22.625 23.890625 
Q 32.328125 33.6875 34.8125 36.53125 
Q 39.546875 41.84375 41.421875 45.53125 
Q 43.3125 49.21875 43.3125 52.78125 
Q 43.3125 58.59375 39.234375 62.25 
Q 35.15625 65.921875 28.609375 65.921875 
Q 23.96875 65.921875 18.8125 64.3125 
Q 13.671875 62.703125 7.8125 59.421875 
L 7.8125 69.390625 
Q 13.765625 71.78125 18.9375 73 
Q 24.125 74.21875 28.421875 74.21875 
Q 39.75 74.21875 46.484375 68.546875 
Q 53.21875 62.890625 53.21875 53.421875 
Q 53.21875 48.921875 51.53125 44.890625 
Q 49.859375 40.875 45.40625 35.40625 
Q 44.1875 33.984375 37.640625 27.21875 
Q 31.109375 20.453125 19.1875 8.296875 
z
" id="DejaVuSans-50"/>
      </defs>
      <g transform="translate(25.557751 246.426153)scale(0.088 -0.088)">
       <use xlink:href="#DejaVuSans-50"/>
       <use x="63.623047" xlink:href="#DejaVuSans-48"/>
      </g>
     </g>
    </g>
    <g id="ytick_4">
     <g id="line2d_13">
      <g>
       <use style="stroke:#000000;" x="45.055751" xlink:href="#mb52261094b" y="205.820235"/>
      </g>
     </g>
     <g id="text_7">
      <!-- 30 -->
      <defs>
       <path d="M 40.578125 39.3125 
Q 47.65625 37.796875 51.625 33 
Q 55.609375 28.21875 55.609375 21.1875 
Q 55.609375 10.40625 48.1875 4.484375 
Q 40.765625 -1.421875 27.09375 -1.421875 
Q 22.515625 -1.421875 17.65625 -0.515625 
Q 12.796875 0.390625 7.625 2.203125 
L 7.625 11.71875 
Q 11.71875 9.328125 16.59375 8.109375 
Q 21.484375 6.890625 26.8125 6.890625 
Q 36.078125 6.890625 40.9375 10.546875 
Q 45.796875 14.203125 45.796875 21.1875 
Q 45.796875 27.640625 41.28125 31.265625 
Q 36.765625 34.90625 28.71875 34.90625 
L 20.21875 34.90625 
L 20.21875 43.015625 
L 29.109375 43.015625 
Q 36.375 43.015625 40.234375 45.921875 
Q 44.09375 48.828125 44.09375 54.296875 
Q 44.09375 59.90625 40.109375 62.90625 
Q 36.140625 65.921875 28.71875 65.921875 
Q 24.65625 65.921875 20.015625 65.03125 
Q 15.375 64.15625 9.8125 62.3125 
L 9.8125 71.09375 
Q 15.4375 72.65625 20.34375 73.4375 
Q 25.25 74.21875 29.59375 74.21875 
Q 40.828125 74.21875 47.359375 69.109375 
Q 53.90625 64.015625 53.90625 55.328125 
Q 53.90625 49.265625 50.4375 45.09375 
Q 46.96875 40.921875 40.578125 39.3125 
z
" id="DejaVuSans-51"/>
      </defs>
      <g transform="translate(25.557751 209.163547)scale(0.088 -0.088)">
       <use xlink:href="#DejaVuSans-51"/>
       <use x="63.623047" xlink:href="#DejaVuSans-48"/>
      </g>
     </g>
    </g>
    <g id="ytick_5">
     <g id="line2d_14">
      <g>
       <use style="stroke:#000000;" x="45.055751" xlink:href="#mb52261094b" y="168.557629"/>
      </g>
     </g>
     <g id="text_8">
      <!-- 40 -->
      <defs>
       <path d="M 37.796875 64.3125 
L 12.890625 25.390625 
L 37.796875 25.390625 
z
M 35.203125 72.90625 
L 47.609375 72.90625 
L 47.609375 25.390625 
L 58.015625 25.390625 
L 58.015625 17.1875 
L 47.609375 17.1875 
L 47.609375 0 
L 37.796875 0 
L 37.796875 17.1875 
L 4.890625 17.1875 
L 4.890625 26.703125 
z
" id="DejaVuSans-52"/>
      </defs>
      <g transform="translate(25.557751 171.900942)scale(0.088 -0.088)">
       <use xlink:href="#DejaVuSans-52"/>
       <use x="63.623047" xlink:href="#DejaVuSans-48"/>
      </g>
     </g>
    </g>
    <g id="ytick_6">
     <g id="line2d_15">
      <g>
       <use style="stroke:#000000;" x="45.055751" xlink:href="#mb52261094b" y="131.295024"/>
      </g>
     </g>
     <g id="text_9">
      <!-- 50 -->
      <defs>
       <path d="M 10.796875 72.90625 
L 49.515625 72.90625 
L 49.515625 64.59375 
L 19.828125 64.59375 
L 19.828125 46.734375 
Q 21.96875 47.46875 24.109375 47.828125 
Q 26.265625 48.1875 28.421875 48.1875 
Q 40.625 48.1875 47.75 41.5 
Q 54.890625 34.8125 54.890625 23.390625 
Q 54.890625 11.625 47.5625 5.09375 
Q 40.234375 -1.421875 26.90625 -1.421875 
Q 22.3125 -1.421875 17.546875 -0.640625 
Q 12.796875 0.140625 7.71875 1.703125 
L 7.71875 11.625 
Q 12.109375 9.234375 16.796875 8.0625 
Q 21.484375 6.890625 26.703125 6.890625 
Q 35.15625 6.890625 40.078125 11.328125 
Q 45.015625 15.765625 45.015625 23.390625 
Q 45.015625 31 40.078125 35.4375 
Q 35.15625 39.890625 26.703125 39.890625 
Q 22.75 39.890625 18.8125 39.015625 
Q 14.890625 38.140625 10.796875 36.28125 
z
" id="DejaVuSans-53"/>
      </defs>
      <g transform="translate(25.557751 134.638337)scale(0.088 -0.088)">
       <use xlink:href="#DejaVuSans-53"/>
       <use x="63.623047" xlink:href="#DejaVuSans-48"/>
      </g>
     </g>
    </g>
    <g id="ytick_7">
     <g id="line2d_16">
      <g>
       <use style="stroke:#000000;" x="45.055751" xlink:href="#mb52261094b" y="94.032419"/>
      </g>
     </g>
     <g id="text_10">
      <!-- 60 -->
      <defs>
       <path d="M 33.015625 40.375 
Q 26.375 40.375 22.484375 35.828125 
Q 18.609375 31.296875 18.609375 23.390625 
Q 18.609375 15.53125 22.484375 10.953125 
Q 26.375 6.390625 33.015625 6.390625 
Q 39.65625 6.390625 43.53125 10.953125 
Q 47.40625 15.53125 47.40625 23.390625 
Q 47.40625 31.296875 43.53125 35.828125 
Q 39.65625 40.375 33.015625 40.375 
z
M 52.59375 71.296875 
L 52.59375 62.3125 
Q 48.875 64.0625 45.09375 64.984375 
Q 41.3125 65.921875 37.59375 65.921875 
Q 27.828125 65.921875 22.671875 59.328125 
Q 17.53125 52.734375 16.796875 39.40625 
Q 19.671875 43.65625 24.015625 45.921875 
Q 28.375 48.1875 33.59375 48.1875 
Q 44.578125 48.1875 50.953125 41.515625 
Q 57.328125 34.859375 57.328125 23.390625 
Q 57.328125 12.15625 50.6875 5.359375 
Q 44.046875 -1.421875 33.015625 -1.421875 
Q 20.359375 -1.421875 13.671875 8.265625 
Q 6.984375 17.96875 6.984375 36.375 
Q 6.984375 53.65625 15.1875 63.9375 
Q 23.390625 74.21875 37.203125 74.21875 
Q 40.921875 74.21875 44.703125 73.484375 
Q 48.484375 72.75 52.59375 71.296875 
z
" id="DejaVuSans-54"/>
      </defs>
      <g transform="translate(25.557751 97.375731)scale(0.088 -0.088)">
       <use xlink:href="#DejaVuSans-54"/>
       <use x="63.623047" xlink:href="#DejaVuSans-48"/>
      </g>
     </g>
    </g>
    <g id="ytick_8">
     <g id="line2d_17">
      <g>
       <use style="stroke:#000000;" x="45.055751" xlink:href="#mb52261094b" y="56.769813"/>
      </g>
     </g>
     <g id="text_11">
      <!-- 70 -->
      <defs>
       <path d="M 8.203125 72.90625 
L 55.078125 72.90625 
L 55.078125 68.703125 
L 28.609375 0 
L 18.3125 0 
L 43.21875 64.59375 
L 8.203125 64.59375 
z
" id="DejaVuSans-55"/>
      </defs>
      <g transform="translate(25.557751 60.113126)scale(0.088 -0.088)">
       <use xlink:href="#DejaVuSans-55"/>
       <use x="63.623047" xlink:href="#DejaVuSans-48"/>
      </g>
     </g>
    </g>
    <g id="text_12">
     <!-- # eclosing adults -->
     <defs>
      <path d="M 51.125 44 
L 36.921875 44 
L 32.8125 27.6875 
L 47.125 27.6875 
z
M 43.796875 71.78125 
L 38.71875 51.515625 
L 52.984375 51.515625 
L 58.109375 71.78125 
L 65.921875 71.78125 
L 60.890625 51.515625 
L 76.125 51.515625 
L 76.125 44 
L 58.984375 44 
L 54.984375 27.6875 
L 70.515625 27.6875 
L 70.515625 20.21875 
L 53.078125 20.21875 
L 48 0 
L 40.1875 0 
L 45.21875 20.21875 
L 30.90625 20.21875 
L 25.875 0 
L 18.015625 0 
L 23.09375 20.21875 
L 7.71875 20.21875 
L 7.71875 27.6875 
L 24.90625 27.6875 
L 29 44 
L 13.28125 44 
L 13.28125 51.515625 
L 30.90625 51.515625 
L 35.890625 71.78125 
z
" id="DejaVuSans-35"/>
      <path id="DejaVuSans-32"/>
      <path d="M 56.203125 29.59375 
L 56.203125 25.203125 
L 14.890625 25.203125 
Q 15.484375 15.921875 20.484375 11.0625 
Q 25.484375 6.203125 34.421875 6.203125 
Q 39.59375 6.203125 44.453125 7.46875 
Q 49.3125 8.734375 54.109375 11.28125 
L 54.109375 2.78125 
Q 49.265625 0.734375 44.1875 -0.34375 
Q 39.109375 -1.421875 33.890625 -1.421875 
Q 20.796875 -1.421875 13.15625 6.1875 
Q 5.515625 13.8125 5.515625 26.8125 
Q 5.515625 40.234375 12.765625 48.109375 
Q 20.015625 56 32.328125 56 
Q 43.359375 56 49.78125 48.890625 
Q 56.203125 41.796875 56.203125 29.59375 
z
M 47.21875 32.234375 
Q 47.125 39.59375 43.09375 43.984375 
Q 39.0625 48.390625 32.421875 48.390625 
Q 24.90625 48.390625 20.390625 44.140625 
Q 15.875 39.890625 15.1875 32.171875 
z
" id="DejaVuSans-101"/>
      <path d="M 48.78125 52.59375 
L 48.78125 44.1875 
Q 44.96875 46.296875 41.140625 47.34375 
Q 37.3125 48.390625 33.40625 48.390625 
Q 24.65625 48.390625 19.8125 42.84375 
Q 14.984375 37.3125 14.984375 27.296875 
Q 14.984375 17.28125 19.8125 11.734375 
Q 24.65625 6.203125 33.40625 6.203125 
Q 37.3125 6.203125 41.140625 7.25 
Q 44.96875 8.296875 48.78125 10.40625 
L 48.78125 2.09375 
Q 45.015625 0.34375 40.984375 -0.53125 
Q 36.96875 -1.421875 32.421875 -1.421875 
Q 20.0625 -1.421875 12.78125 6.34375 
Q 5.515625 14.109375 5.515625 27.296875 
Q 5.515625 40.671875 12.859375 48.328125 
Q 20.21875 56 33.015625 56 
Q 37.15625 56 41.109375 55.140625 
Q 45.0625 54.296875 48.78125 52.59375 
z
" id="DejaVuSans-99"/>
      <path d="M 9.421875 75.984375 
L 18.40625 75.984375 
L 18.40625 0 
L 9.421875 0 
z
" id="DejaVuSans-108"/>
      <path d="M 44.28125 53.078125 
L 44.28125 44.578125 
Q 40.484375 46.53125 36.375 47.5 
Q 32.28125 48.484375 27.875 48.484375 
Q 21.1875 48.484375 17.84375 46.4375 
Q 14.5 44.390625 14.5 40.28125 
Q 14.5 37.15625 16.890625 35.375 
Q 19.28125 33.59375 26.515625 31.984375 
L 29.59375 31.296875 
Q 39.15625 29.25 43.1875 25.515625 
Q 47.21875 21.78125 47.21875 15.09375 
Q 47.21875 7.46875 41.1875 3.015625 
Q 35.15625 -1.421875 24.609375 -1.421875 
Q 20.21875 -1.421875 15.453125 -0.5625 
Q 10.6875 0.296875 5.421875 2 
L 5.421875 11.28125 
Q 10.40625 8.6875 15.234375 7.390625 
Q 20.0625 6.109375 24.8125 6.109375 
Q 31.15625 6.109375 34.5625 8.28125 
Q 37.984375 10.453125 37.984375 14.40625 
Q 37.984375 18.0625 35.515625 20.015625 
Q 33.0625 21.96875 24.703125 23.78125 
L 21.578125 24.515625 
Q 13.234375 26.265625 9.515625 29.90625 
Q 5.8125 33.546875 5.8125 39.890625 
Q 5.8125 47.609375 11.28125 51.796875 
Q 16.75 56 26.8125 56 
Q 31.78125 56 36.171875 55.265625 
Q 40.578125 54.546875 44.28125 53.078125 
z
" id="DejaVuSans-115"/>
      <path d="M 9.421875 54.6875 
L 18.40625 54.6875 
L 18.40625 0 
L 9.421875 0 
z
M 9.421875 75.984375 
L 18.40625 75.984375 
L 18.40625 64.59375 
L 9.421875 64.59375 
z
" id="DejaVuSans-105"/>
      <path d="M 45.40625 27.984375 
Q 45.40625 37.75 41.375 43.109375 
Q 37.359375 48.484375 30.078125 48.484375 
Q 22.859375 48.484375 18.828125 43.109375 
Q 14.796875 37.75 14.796875 27.984375 
Q 14.796875 18.265625 18.828125 12.890625 
Q 22.859375 7.515625 30.078125 7.515625 
Q 37.359375 7.515625 41.375 12.890625 
Q 45.40625 18.265625 45.40625 27.984375 
z
M 54.390625 6.78125 
Q 54.390625 -7.171875 48.1875 -13.984375 
Q 42 -20.796875 29.203125 -20.796875 
Q 24.46875 -20.796875 20.265625 -20.09375 
Q 16.0625 -19.390625 12.109375 -17.921875 
L 12.109375 -9.1875 
Q 16.0625 -11.328125 19.921875 -12.34375 
Q 23.78125 -13.375 27.78125 -13.375 
Q 36.625 -13.375 41.015625 -8.765625 
Q 45.40625 -4.15625 45.40625 5.171875 
L 45.40625 9.625 
Q 42.625 4.78125 38.28125 2.390625 
Q 33.9375 0 27.875 0 
Q 17.828125 0 11.671875 7.65625 
Q 5.515625 15.328125 5.515625 27.984375 
Q 5.515625 40.671875 11.671875 48.328125 
Q 17.828125 56 27.875 56 
Q 33.9375 56 38.28125 53.609375 
Q 42.625 51.21875 45.40625 46.390625 
L 45.40625 54.6875 
L 54.390625 54.6875 
z
" id="DejaVuSans-103"/>
      <path d="M 34.28125 27.484375 
Q 23.390625 27.484375 19.1875 25 
Q 14.984375 22.515625 14.984375 16.5 
Q 14.984375 11.71875 18.140625 8.90625 
Q 21.296875 6.109375 26.703125 6.109375 
Q 34.1875 6.109375 38.703125 11.40625 
Q 43.21875 16.703125 43.21875 25.484375 
L 43.21875 27.484375 
z
M 52.203125 31.203125 
L 52.203125 0 
L 43.21875 0 
L 43.21875 8.296875 
Q 40.140625 3.328125 35.546875 0.953125 
Q 30.953125 -1.421875 24.3125 -1.421875 
Q 15.921875 -1.421875 10.953125 3.296875 
Q 6 8.015625 6 15.921875 
Q 6 25.140625 12.171875 29.828125 
Q 18.359375 34.515625 30.609375 34.515625 
L 43.21875 34.515625 
L 43.21875 35.40625 
Q 43.21875 41.609375 39.140625 45 
Q 35.0625 48.390625 27.6875 48.390625 
Q 23 48.390625 18.546875 47.265625 
Q 14.109375 46.140625 10.015625 43.890625 
L 10.015625 52.203125 
Q 14.9375 54.109375 19.578125 55.046875 
Q 24.21875 56 28.609375 56 
Q 40.484375 56 46.34375 49.84375 
Q 52.203125 43.703125 52.203125 31.203125 
z
" id="DejaVuSans-97"/>
      <path d="M 45.40625 46.390625 
L 45.40625 75.984375 
L 54.390625 75.984375 
L 54.390625 0 
L 45.40625 0 
L 45.40625 8.203125 
Q 42.578125 3.328125 38.25 0.953125 
Q 33.9375 -1.421875 27.875 -1.421875 
Q 17.96875 -1.421875 11.734375 6.484375 
Q 5.515625 14.40625 5.515625 27.296875 
Q 5.515625 40.1875 11.734375 48.09375 
Q 17.96875 56 27.875 56 
Q 33.9375 56 38.25 53.625 
Q 42.578125 51.265625 45.40625 46.390625 
z
M 14.796875 27.296875 
Q 14.796875 17.390625 18.875 11.75 
Q 22.953125 6.109375 30.078125 6.109375 
Q 37.203125 6.109375 41.296875 11.75 
Q 45.40625 17.390625 45.40625 27.296875 
Q 45.40625 37.203125 41.296875 42.84375 
Q 37.203125 48.484375 30.078125 48.484375 
Q 22.953125 48.484375 18.875 42.84375 
Q 14.796875 37.203125 14.796875 27.296875 
z
" id="DejaVuSans-100"/>
      <path d="M 8.5 21.578125 
L 8.5 54.6875 
L 17.484375 54.6875 
L 17.484375 21.921875 
Q 17.484375 14.15625 20.5 10.265625 
Q 23.53125 6.390625 29.59375 6.390625 
Q 36.859375 6.390625 41.078125 11.03125 
Q 45.3125 15.671875 45.3125 23.6875 
L 45.3125 54.6875 
L 54.296875 54.6875 
L 54.296875 0 
L 45.3125 0 
L 45.3125 8.40625 
Q 42.046875 3.421875 37.71875 1 
Q 33.40625 -1.421875 27.6875 -1.421875 
Q 18.265625 -1.421875 13.375 4.4375 
Q 8.5 10.296875 8.5 21.578125 
z
M 31.109375 56 
z
" id="DejaVuSans-117"/>
      <path d="M 18.3125 70.21875 
L 18.3125 54.6875 
L 36.8125 54.6875 
L 36.8125 47.703125 
L 18.3125 47.703125 
L 18.3125 18.015625 
Q 18.3125 11.328125 20.140625 9.421875 
Q 21.96875 7.515625 27.59375 7.515625 
L 36.8125 7.515625 
L 36.8125 0 
L 27.59375 0 
Q 17.1875 0 13.234375 3.875 
Q 9.28125 7.765625 9.28125 18.015625 
L 9.28125 47.703125 
L 2.6875 47.703125 
L 2.6875 54.6875 
L 9.28125 54.6875 
L 9.28125 70.21875 
z
" id="DejaVuSans-116"/>
     </defs>
     <g transform="translate(18.438219 236.359766)rotate(-90)scale(0.15 -0.15)">
      <use xlink:href="#DejaVuSans-35"/>
      <use x="83.789062" xlink:href="#DejaVuSans-32"/>
      <use x="115.576172" xlink:href="#DejaVuSans-101"/>
      <use x="177.099609" xlink:href="#DejaVuSans-99"/>
      <use x="232.080078" xlink:href="#DejaVuSans-108"/>
      <use x="259.863281" xlink:href="#DejaVuSans-111"/>
      <use x="321.044922" xlink:href="#DejaVuSans-115"/>
      <use x="373.144531" xlink:href="#DejaVuSans-105"/>
      <use x="400.927734" xlink:href="#DejaVuSans-110"/>
      <use x="464.306641" xlink:href="#DejaVuSans-103"/>
      <use x="527.783203" xlink:href="#DejaVuSans-32"/>
      <use x="559.570312" xlink:href="#DejaVuSans-97"/>
      <use x="620.849609" xlink:href="#DejaVuSans-100"/>
      <use x="684.326172" xlink:href="#DejaVuSans-117"/>
      <use x="747.705078" xlink:href="#DejaVuSans-108"/>
      <use x="775.488281" xlink:href="#DejaVuSans-116"/>
      <use x="814.697266" xlink:href="#DejaVuSans-115"/>
     </g>
    </g>
   </g>
   <g id="PathCollection_2">
    <defs>
     <path d="M 0 2.707159 
C 0.717947 2.707159 1.406585 2.421915 1.91425 1.91425 
C 2.421915 1.406585 2.707159 0.717947 2.707159 0 
C 2.707159 -0.717947 2.421915 -1.406585 1.91425 -1.91425 
C 1.406585 -2.421915 0.717947 -2.707159 0 -2.707159 
C -0.717947 -2.707159 -1.406585 -2.421915 -1.91425 -1.91425 
C -2.421915 -1.406585 -2.707159 -0.717947 -2.707159 0 
C -2.707159 0.717947 -2.421915 1.406585 -1.91425 1.91425 
C -1.406585 2.421915 -0.717947 2.707159 0 2.707159 
z
" id="mdee2fbc2be" style="stroke:#ff7f0e;stroke-width:1.62;"/>
    </defs>
    <g clip-path="url(#pcff7a3983b)">
     <use style="fill:#ff7f0e;stroke:#ff7f0e;stroke-width:1.62;" x="125.702891" xlink:href="#mdee2fbc2be" y="283.116255"/>
     <use style="fill:#ff7f0e;stroke:#ff7f0e;stroke-width:1.62;" x="292.559042" xlink:href="#mdee2fbc2be" y="281.205352"/>
    </g>
   </g>
   <g id="line2d_18">
    <path clip-path="url(#pcff7a3983b)" d="M 125.702891 283.116255 
L 292.559042 281.205352 
" style="fill:none;stroke:#ff7f0e;stroke-linecap:square;stroke-width:2.16;"/>
   </g>
   <g id="line2d_19">
    <path clip-path="url(#pcff7a3983b)" d="M 125.702891 304.97 
L 125.702891 261.26251 
" style="fill:none;stroke:#ff7f0e;stroke-linecap:square;stroke-width:2.16;"/>
   </g>
   <g id="line2d_20">
    <path clip-path="url(#pcff7a3983b)" d="M 117.360083 304.97 
L 134.045698 304.97 
" style="fill:none;stroke:#ff7f0e;stroke-linecap:square;stroke-width:2.16;"/>
   </g>
   <g id="line2d_21">
    <path clip-path="url(#pcff7a3983b)" d="M 117.360083 261.26251 
L 134.045698 261.26251 
" style="fill:none;stroke:#ff7f0e;stroke-linecap:square;stroke-width:2.16;"/>
   </g>
   <g id="line2d_22">
    <path clip-path="url(#pcff7a3983b)" d="M 292.559042 298.528822 
L 292.559042 263.881882 
" style="fill:none;stroke:#ff7f0e;stroke-linecap:square;stroke-width:2.16;"/>
   </g>
   <g id="line2d_23">
    <path clip-path="url(#pcff7a3983b)" d="M 284.216235 298.528822 
L 300.90185 298.528822 
" style="fill:none;stroke:#ff7f0e;stroke-linecap:square;stroke-width:2.16;"/>
   </g>
   <g id="line2d_24">
    <path clip-path="url(#pcff7a3983b)" d="M 284.216235 263.881882 
L 300.90185 263.881882 
" style="fill:none;stroke:#ff7f0e;stroke-linecap:square;stroke-width:2.16;"/>
   </g>
   <g id="patch_3">
    <path d="M 45.055751 318.332 
L 45.055751 24.368 
" style="fill:none;stroke:#000000;stroke-linecap:square;stroke-linejoin:miter;"/>
   </g>
   <g id="patch_4">
    <path d="M 45.055751 318.332 
L 378.768054 318.332 
" style="fill:none;stroke:#000000;stroke-linecap:square;stroke-linejoin:miter;"/>
   </g>
   <g id="PathCollection_3">
    <defs>
     <path d="M 0 2.707159 
C 0.717947 2.707159 1.406585 2.421915 1.91425 1.91425 
C 2.421915 1.406585 2.707159 0.717947 2.707159 0 
C 2.707159 -0.717947 2.421915 -1.406585 1.91425 -1.91425 
C 1.406585 -2.421915 0.717947 -2.707159 0 -2.707159 
C -0.717947 -2.707159 -1.406585 -2.421915 -1.91425 -1.91425 
C -2.421915 -1.406585 -2.707159 -0.717947 -2.707159 0 
C -2.707159 0.717947 -2.421915 1.406585 -1.91425 1.91425 
C -1.406585 2.421915 -0.717947 2.707159 0 2.707159 
z
" id="me39d6ececd" style="stroke:#2ca02c;stroke-width:1.62;"/>
    </defs>
    <g clip-path="url(#pcff7a3983b)">
     <use style="fill:#2ca02c;stroke:#2ca02c;stroke-width:1.62;" x="131.264762" xlink:href="#me39d6ececd" y="289.102158"/>
     <use style="fill:#2ca02c;stroke:#2ca02c;stroke-width:1.62;" x="298.120914" xlink:href="#me39d6ececd" y="283.605924"/>
    </g>
   </g>
   <g id="line2d_25">
    <path clip-path="url(#pcff7a3983b)" d="M 131.264762 289.102158 
L 298.120914 283.605924 
" style="fill:none;stroke:#2ca02c;stroke-linecap:square;stroke-width:2.16;"/>
   </g>
   <g id="line2d_26">
    <path clip-path="url(#pcff7a3983b)" d="M 131.264762 304.410469 
L 131.264762 273.793847 
" style="fill:none;stroke:#2ca02c;stroke-linecap:square;stroke-width:2.16;"/>
   </g>
   <g id="line2d_27">
    <path clip-path="url(#pcff7a3983b)" d="M 122.921955 304.410469 
L 139.60757 304.410469 
" style="fill:none;stroke:#2ca02c;stroke-linecap:square;stroke-width:2.16;"/>
   </g>
   <g id="line2d_28">
    <path clip-path="url(#pcff7a3983b)" d="M 122.921955 273.793847 
L 139.60757 273.793847 
" style="fill:none;stroke:#2ca02c;stroke-linecap:square;stroke-width:2.16;"/>
   </g>
   <g id="line2d_29">
    <path clip-path="url(#pcff7a3983b)" d="M 298.120914 297.77521 
L 298.120914 269.436637 
" style="fill:none;stroke:#2ca02c;stroke-linecap:square;stroke-width:2.16;"/>
   </g>
   <g id="line2d_30">
    <path clip-path="url(#pcff7a3983b)" d="M 289.778106 297.77521 
L 306.463722 297.77521 
" style="fill:none;stroke:#2ca02c;stroke-linecap:square;stroke-width:2.16;"/>
   </g>
   <g id="line2d_31">
    <path clip-path="url(#pcff7a3983b)" d="M 289.778106 269.436637 
L 306.463722 269.436637 
" style="fill:none;stroke:#2ca02c;stroke-linecap:square;stroke-width:2.16;"/>
   </g>
   <g id="text_13">
    <!-- Diet = lowY -->
    <defs>
     <path d="M 19.671875 64.796875 
L 19.671875 8.109375 
L 31.59375 8.109375 
Q 46.6875 8.109375 53.6875 14.9375 
Q 60.6875 21.78125 60.6875 36.53125 
Q 60.6875 51.171875 53.6875 57.984375 
Q 46.6875 64.796875 31.59375 64.796875 
z
M 9.8125 72.90625 
L 30.078125 72.90625 
Q 51.265625 72.90625 61.171875 64.09375 
Q 71.09375 55.28125 71.09375 36.53125 
Q 71.09375 17.671875 61.125 8.828125 
Q 51.171875 0 30.078125 0 
L 9.8125 0 
z
" id="DejaVuSans-68"/>
     <path d="M 10.59375 45.40625 
L 73.1875 45.40625 
L 73.1875 37.203125 
L 10.59375 37.203125 
z
M 10.59375 25.484375 
L 73.1875 25.484375 
L 73.1875 17.1875 
L 10.59375 17.1875 
z
" id="DejaVuSans-61"/>
     <path d="M 4.203125 54.6875 
L 13.1875 54.6875 
L 24.421875 12.015625 
L 35.59375 54.6875 
L 46.1875 54.6875 
L 57.421875 12.015625 
L 68.609375 54.6875 
L 77.59375 54.6875 
L 63.28125 0 
L 52.6875 0 
L 40.921875 44.828125 
L 29.109375 0 
L 18.5 0 
z
" id="DejaVuSans-119"/>
     <path d="M -0.203125 72.90625 
L 10.40625 72.90625 
L 30.609375 42.921875 
L 50.6875 72.90625 
L 61.28125 72.90625 
L 35.5 34.71875 
L 35.5 0 
L 25.59375 0 
L 25.59375 34.71875 
z
" id="DejaVuSans-89"/>
    </defs>
    <g transform="translate(183.846152 18.368)scale(0.096 -0.096)">
     <use xlink:href="#DejaVuSans-68"/>
     <use x="77.001953" xlink:href="#DejaVuSans-105"/>
     <use x="104.785156" xlink:href="#DejaVuSans-101"/>
     <use x="166.308594" xlink:href="#DejaVuSans-116"/>
     <use x="205.517578" xlink:href="#DejaVuSans-32"/>
     <use x="237.304688" xlink:href="#DejaVuSans-61"/>
     <use x="321.09375" xlink:href="#DejaVuSans-32"/>
     <use x="352.880859" xlink:href="#DejaVuSans-108"/>
     <use x="380.664062" xlink:href="#DejaVuSans-111"/>
     <use x="441.845703" xlink:href="#DejaVuSans-119"/>
     <use x="523.632812" xlink:href="#DejaVuSans-89"/>
    </g>
   </g>
   <g id="PathCollection_4">
    <defs>
     <path d="M 0 2.707159 
C 0.717947 2.707159 1.406585 2.421915 1.91425 1.91425 
C 2.421915 1.406585 2.707159 0.717947 2.707159 0 
C 2.707159 -0.717947 2.421915 -1.406585 1.91425 -1.91425 
C 1.406585 -2.421915 0.717947 -2.707159 0 -2.707159 
C -0.717947 -2.707159 -1.406585 -2.421915 -1.91425 -1.91425 
C -2.421915 -1.406585 -2.707159 -0.717947 -2.707159 0 
C -2.707159 0.717947 -2.421915 1.406585 -1.91425 1.91425 
C -1.406585 2.421915 -0.717947 2.707159 0 2.707159 
z
" id="m93591355be" style="stroke:#d62728;stroke-width:1.62;"/>
    </defs>
    <g clip-path="url(#pcff7a3983b)">
     <use style="fill:#d62728;stroke:#d62728;stroke-width:1.62;" x="136.826634" xlink:href="#m93591355be" y="278.389159"/>
     <use style="fill:#d62728;stroke:#d62728;stroke-width:1.62;" x="303.682786" xlink:href="#m93591355be" y="279.879663"/>
    </g>
   </g>
   <g id="line2d_32">
    <path clip-path="url(#pcff7a3983b)" d="M 136.826634 278.389159 
L 303.682786 279.879663 
" style="fill:none;stroke:#d62728;stroke-linecap:square;stroke-width:2.16;"/>
   </g>
   <g id="line2d_33">
    <path clip-path="url(#pcff7a3983b)" d="M 136.826634 300.418065 
L 136.826634 256.360253 
" style="fill:none;stroke:#d62728;stroke-linecap:square;stroke-width:2.16;"/>
   </g>
   <g id="line2d_34">
    <path clip-path="url(#pcff7a3983b)" d="M 128.483827 300.418065 
L 145.169442 300.418065 
" style="fill:none;stroke:#d62728;stroke-linecap:square;stroke-width:2.16;"/>
   </g>
   <g id="line2d_35">
    <path clip-path="url(#pcff7a3983b)" d="M 128.483827 256.360253 
L 145.169442 256.360253 
" style="fill:none;stroke:#d62728;stroke-linecap:square;stroke-width:2.16;"/>
   </g>
   <g id="line2d_36">
    <path clip-path="url(#pcff7a3983b)" d="M 303.682786 294.812335 
L 303.682786 264.946991 
" style="fill:none;stroke:#d62728;stroke-linecap:square;stroke-width:2.16;"/>
   </g>
   <g id="line2d_37">
    <path clip-path="url(#pcff7a3983b)" d="M 295.339978 294.812335 
L 312.025593 294.812335 
" style="fill:none;stroke:#d62728;stroke-linecap:square;stroke-width:2.16;"/>
   </g>
   <g id="line2d_38">
    <path clip-path="url(#pcff7a3983b)" d="M 295.339978 264.946991 
L 312.025593 264.946991 
" style="fill:none;stroke:#d62728;stroke-linecap:square;stroke-width:2.16;"/>
   </g>
  </g>
  <g id="axes_2">
   <g id="patch_5">
    <path d="M 393.875383 318.332 
L 727.587686 318.332 
L 727.587686 24.368 
L 393.875383 24.368 
z
" style="fill:#ffffff;"/>
   </g>
   <g id="PathCollection_5">
    <g clip-path="url(#pc653600f77)">
     <use style="fill:#1f77b4;stroke:#1f77b4;stroke-width:1.62;" x="468.960651" xlink:href="#m391d238e4b" y="177.314342"/>
     <use style="fill:#1f77b4;stroke:#1f77b4;stroke-width:1.62;" x="635.816803" xlink:href="#m391d238e4b" y="163.99296"/>
    </g>
   </g>
   <g id="line2d_39">
    <path clip-path="url(#pc653600f77)" d="M 468.960651 177.314342 
L 635.816803 163.99296 
" style="fill:none;stroke:#1f77b4;stroke-linecap:square;stroke-width:2.16;"/>
   </g>
   <g id="line2d_40">
    <path clip-path="url(#pc653600f77)" d="M 468.960651 220.981203 
L 468.960651 133.647481 
" style="fill:none;stroke:#1f77b4;stroke-linecap:square;stroke-width:2.16;"/>
   </g>
   <g id="line2d_41">
    <path clip-path="url(#pc653600f77)" d="M 460.617843 220.981203 
L 477.303459 220.981203 
" style="fill:none;stroke:#1f77b4;stroke-linecap:square;stroke-width:2.16;"/>
   </g>
   <g id="line2d_42">
    <path clip-path="url(#pc653600f77)" d="M 460.617843 133.647481 
L 477.303459 133.647481 
" style="fill:none;stroke:#1f77b4;stroke-linecap:square;stroke-width:2.16;"/>
   </g>
   <g id="line2d_43">
    <path clip-path="url(#pc653600f77)" d="M 635.816803 204.225251 
L 635.816803 123.760669 
" style="fill:none;stroke:#1f77b4;stroke-linecap:square;stroke-width:2.16;"/>
   </g>
   <g id="line2d_44">
    <path clip-path="url(#pc653600f77)" d="M 627.473995 204.225251 
L 644.15961 204.225251 
" style="fill:none;stroke:#1f77b4;stroke-linecap:square;stroke-width:2.16;"/>
   </g>
   <g id="line2d_45">
    <path clip-path="url(#pc653600f77)" d="M 627.473995 123.760669 
L 644.15961 123.760669 
" style="fill:none;stroke:#1f77b4;stroke-linecap:square;stroke-width:2.16;"/>
   </g>
   <g id="matplotlib.axis_3">
    <g id="xtick_3">
     <g id="line2d_46">
      <g>
       <use style="stroke:#000000;" x="477.303459" xlink:href="#m4857183f93" y="318.332"/>
      </g>
     </g>
     <g id="text_14">
      <!-- MC -->
      <g transform="translate(470.434646 333.318625)scale(0.088 -0.088)">
       <use xlink:href="#DejaVuSans-77"/>
       <use x="86.279297" xlink:href="#DejaVuSans-67"/>
      </g>
     </g>
    </g>
    <g id="xtick_4">
     <g id="line2d_47">
      <g>
       <use style="stroke:#000000;" x="644.15961" xlink:href="#m4857183f93" y="318.332"/>
      </g>
     </g>
     <g id="text_15">
      <!-- VBC -->
      <g transform="translate(635.135485 333.318625)scale(0.088 -0.088)">
       <use xlink:href="#DejaVuSans-86"/>
       <use x="68.408203" xlink:href="#DejaVuSans-66"/>
       <use x="135.261719" xlink:href="#DejaVuSans-67"/>
      </g>
     </g>
    </g>
    <g id="text_16">
     <!-- Popn -->
     <g transform="translate(548.985034 346.44325)scale(0.096 -0.096)">
      <use xlink:href="#DejaVuSans-80"/>
      <use x="56.677734" xlink:href="#DejaVuSans-111"/>
      <use x="117.859375" xlink:href="#DejaVuSans-112"/>
      <use x="181.335938" xlink:href="#DejaVuSans-110"/>
     </g>
    </g>
   </g>
   <g id="matplotlib.axis_4">
    <g id="ytick_9">
     <g id="line2d_48">
      <g>
       <use style="stroke:#000000;" x="393.875383" xlink:href="#mb52261094b" y="317.608051"/>
      </g>
     </g>
    </g>
    <g id="ytick_10">
     <g id="line2d_49">
      <g>
       <use style="stroke:#000000;" x="393.875383" xlink:href="#mb52261094b" y="280.345446"/>
      </g>
     </g>
    </g>
    <g id="ytick_11">
     <g id="line2d_50">
      <g>
       <use style="stroke:#000000;" x="393.875383" xlink:href="#mb52261094b" y="243.08284"/>
      </g>
     </g>
    </g>
    <g id="ytick_12">
     <g id="line2d_51">
      <g>
       <use style="stroke:#000000;" x="393.875383" xlink:href="#mb52261094b" y="205.820235"/>
      </g>
     </g>
    </g>
    <g id="ytick_13">
     <g id="line2d_52">
      <g>
       <use style="stroke:#000000;" x="393.875383" xlink:href="#mb52261094b" y="168.557629"/>
      </g>
     </g>
    </g>
    <g id="ytick_14">
     <g id="line2d_53">
      <g>
       <use style="stroke:#000000;" x="393.875383" xlink:href="#mb52261094b" y="131.295024"/>
      </g>
     </g>
    </g>
    <g id="ytick_15">
     <g id="line2d_54">
      <g>
       <use style="stroke:#000000;" x="393.875383" xlink:href="#mb52261094b" y="94.032419"/>
      </g>
     </g>
    </g>
    <g id="ytick_16">
     <g id="line2d_55">
      <g>
       <use style="stroke:#000000;" x="393.875383" xlink:href="#mb52261094b" y="56.769813"/>
      </g>
     </g>
    </g>
   </g>
   <g id="PathCollection_6">
    <g clip-path="url(#pc653600f77)">
     <use style="fill:#ff7f0e;stroke:#ff7f0e;stroke-width:1.62;" x="474.522523" xlink:href="#mdee2fbc2be" y="184.58055"/>
     <use style="fill:#ff7f0e;stroke:#ff7f0e;stroke-width:1.62;" x="641.378674" xlink:href="#mdee2fbc2be" y="180.947446"/>
    </g>
   </g>
   <g id="line2d_56">
    <path clip-path="url(#pc653600f77)" d="M 474.522523 184.58055 
L 641.378674 180.947446 
" style="fill:none;stroke:#ff7f0e;stroke-linecap:square;stroke-width:2.16;"/>
   </g>
   <g id="line2d_57">
    <path clip-path="url(#pc653600f77)" d="M 474.522523 221.779755 
L 474.522523 147.381345 
" style="fill:none;stroke:#ff7f0e;stroke-linecap:square;stroke-width:2.16;"/>
   </g>
   <g id="line2d_58">
    <path clip-path="url(#pc653600f77)" d="M 466.179715 221.779755 
L 482.86533 221.779755 
" style="fill:none;stroke:#ff7f0e;stroke-linecap:square;stroke-width:2.16;"/>
   </g>
   <g id="line2d_59">
    <path clip-path="url(#pc653600f77)" d="M 466.179715 147.381345 
L 482.86533 147.381345 
" style="fill:none;stroke:#ff7f0e;stroke-linecap:square;stroke-width:2.16;"/>
   </g>
   <g id="line2d_60">
    <path clip-path="url(#pc653600f77)" d="M 641.378674 225.928732 
L 641.378674 135.96616 
" style="fill:none;stroke:#ff7f0e;stroke-linecap:square;stroke-width:2.16;"/>
   </g>
   <g id="line2d_61">
    <path clip-path="url(#pc653600f77)" d="M 633.035867 225.928732 
L 649.721482 225.928732 
" style="fill:none;stroke:#ff7f0e;stroke-linecap:square;stroke-width:2.16;"/>
   </g>
   <g id="line2d_62">
    <path clip-path="url(#pc653600f77)" d="M 633.035867 135.96616 
L 649.721482 135.96616 
" style="fill:none;stroke:#ff7f0e;stroke-linecap:square;stroke-width:2.16;"/>
   </g>
   <g id="patch_6">
    <path d="M 393.875383 318.332 
L 393.875383 24.368 
" style="fill:none;stroke:#000000;stroke-linecap:square;stroke-linejoin:miter;"/>
   </g>
   <g id="patch_7">
    <path d="M 393.875383 318.332 
L 727.587686 318.332 
" style="fill:none;stroke:#000000;stroke-linecap:square;stroke-linejoin:miter;"/>
   </g>
   <g id="PathCollection_7">
    <g clip-path="url(#pc653600f77)">
     <use style="fill:#2ca02c;stroke:#2ca02c;stroke-width:1.62;" x="480.084394" xlink:href="#me39d6ececd" y="216.812703"/>
     <use style="fill:#2ca02c;stroke:#2ca02c;stroke-width:1.62;" x="646.940546" xlink:href="#me39d6ececd" y="190.915193"/>
    </g>
   </g>
   <g id="line2d_63">
    <path clip-path="url(#pc653600f77)" d="M 480.084394 216.812703 
L 646.940546 190.915193 
" style="fill:none;stroke:#2ca02c;stroke-linecap:square;stroke-width:2.16;"/>
   </g>
   <g id="line2d_64">
    <path clip-path="url(#pc653600f77)" d="M 480.084394 258.895946 
L 480.084394 174.729461 
" style="fill:none;stroke:#2ca02c;stroke-linecap:square;stroke-width:2.16;"/>
   </g>
   <g id="line2d_65">
    <path clip-path="url(#pc653600f77)" d="M 471.741587 258.895946 
L 488.427202 258.895946 
" style="fill:none;stroke:#2ca02c;stroke-linecap:square;stroke-width:2.16;"/>
   </g>
   <g id="line2d_66">
    <path clip-path="url(#pc653600f77)" d="M 471.741587 174.729461 
L 488.427202 174.729461 
" style="fill:none;stroke:#2ca02c;stroke-linecap:square;stroke-width:2.16;"/>
   </g>
   <g id="line2d_67">
    <path clip-path="url(#pc653600f77)" d="M 646.940546 239.198673 
L 646.940546 142.631713 
" style="fill:none;stroke:#2ca02c;stroke-linecap:square;stroke-width:2.16;"/>
   </g>
   <g id="line2d_68">
    <path clip-path="url(#pc653600f77)" d="M 638.597738 239.198673 
L 655.283354 239.198673 
" style="fill:none;stroke:#2ca02c;stroke-linecap:square;stroke-width:2.16;"/>
   </g>
   <g id="line2d_69">
    <path clip-path="url(#pc653600f77)" d="M 638.597738 142.631713 
L 655.283354 142.631713 
" style="fill:none;stroke:#2ca02c;stroke-linecap:square;stroke-width:2.16;"/>
   </g>
   <g id="text_17">
    <!-- Diet = eqY -->
    <defs>
     <path d="M 14.796875 27.296875 
Q 14.796875 17.390625 18.875 11.75 
Q 22.953125 6.109375 30.078125 6.109375 
Q 37.203125 6.109375 41.296875 11.75 
Q 45.40625 17.390625 45.40625 27.296875 
Q 45.40625 37.203125 41.296875 42.84375 
Q 37.203125 48.484375 30.078125 48.484375 
Q 22.953125 48.484375 18.875 42.84375 
Q 14.796875 37.203125 14.796875 27.296875 
z
M 45.40625 8.203125 
Q 42.578125 3.328125 38.25 0.953125 
Q 33.9375 -1.421875 27.875 -1.421875 
Q 17.96875 -1.421875 11.734375 6.484375 
Q 5.515625 14.40625 5.515625 27.296875 
Q 5.515625 40.1875 11.734375 48.09375 
Q 17.96875 56 27.875 56 
Q 33.9375 56 38.25 53.625 
Q 42.578125 51.265625 45.40625 46.390625 
L 45.40625 54.6875 
L 54.390625 54.6875 
L 54.390625 -20.796875 
L 45.40625 -20.796875 
z
" id="DejaVuSans-113"/>
    </defs>
    <g transform="translate(534.861034 18.368)scale(0.096 -0.096)">
     <use xlink:href="#DejaVuSans-68"/>
     <use x="77.001953" xlink:href="#DejaVuSans-105"/>
     <use x="104.785156" xlink:href="#DejaVuSans-101"/>
     <use x="166.308594" xlink:href="#DejaVuSans-116"/>
     <use x="205.517578" xlink:href="#DejaVuSans-32"/>
     <use x="237.304688" xlink:href="#DejaVuSans-61"/>
     <use x="321.09375" xlink:href="#DejaVuSans-32"/>
     <use x="352.880859" xlink:href="#DejaVuSans-101"/>
     <use x="414.404297" xlink:href="#DejaVuSans-113"/>
     <use x="477.880859" xlink:href="#DejaVuSans-89"/>
    </g>
   </g>
   <g id="PathCollection_8">
    <g clip-path="url(#pc653600f77)">
     <use style="fill:#d62728;stroke:#d62728;stroke-width:1.62;" x="485.646266" xlink:href="#m93591355be" y="156.726752"/>
     <use style="fill:#d62728;stroke:#d62728;stroke-width:1.62;" x="652.502418" xlink:href="#m93591355be" y="164.179273"/>
    </g>
   </g>
   <g id="line2d_70">
    <path clip-path="url(#pc653600f77)" d="M 485.646266 156.726752 
L 652.502418 164.179273 
" style="fill:none;stroke:#d62728;stroke-linecap:square;stroke-width:2.16;"/>
   </g>
   <g id="line2d_71">
    <path clip-path="url(#pc653600f77)" d="M 485.646266 210.331102 
L 485.646266 103.122403 
" style="fill:none;stroke:#d62728;stroke-linecap:square;stroke-width:2.16;"/>
   </g>
   <g id="line2d_72">
    <path clip-path="url(#pc653600f77)" d="M 477.303459 210.331102 
L 493.989074 210.331102 
" style="fill:none;stroke:#d62728;stroke-linecap:square;stroke-width:2.16;"/>
   </g>
   <g id="line2d_73">
    <path clip-path="url(#pc653600f77)" d="M 477.303459 103.122403 
L 493.989074 103.122403 
" style="fill:none;stroke:#d62728;stroke-linecap:square;stroke-width:2.16;"/>
   </g>
   <g id="line2d_74">
    <path clip-path="url(#pc653600f77)" d="M 652.502418 196.641478 
L 652.502418 131.717069 
" style="fill:none;stroke:#d62728;stroke-linecap:square;stroke-width:2.16;"/>
   </g>
   <g id="line2d_75">
    <path clip-path="url(#pc653600f77)" d="M 644.15961 196.641478 
L 660.845225 196.641478 
" style="fill:none;stroke:#d62728;stroke-linecap:square;stroke-width:2.16;"/>
   </g>
   <g id="line2d_76">
    <path clip-path="url(#pc653600f77)" d="M 644.15961 131.717069 
L 660.845225 131.717069 
" style="fill:none;stroke:#d62728;stroke-linecap:square;stroke-width:2.16;"/>
   </g>
  </g>
  <g id="axes_3">
   <g id="patch_8">
    <path d="M 742.695015 318.332 
L 1076.407318 318.332 
L 1076.407318 24.368 
L 742.695015 24.368 
z
" style="fill:#ffffff;"/>
   </g>
   <g id="PathCollection_9">
    <g clip-path="url(#p7cd9800459)">
     <use style="fill:#1f77b4;stroke:#1f77b4;stroke-width:1.62;" x="817.780283" xlink:href="#m391d238e4b" y="116.389982"/>
     <use style="fill:#1f77b4;stroke:#1f77b4;stroke-width:1.62;" x="984.636435" xlink:href="#m391d238e4b" y="98.690244"/>
    </g>
   </g>
   <g id="line2d_77">
    <path clip-path="url(#p7cd9800459)" d="M 817.780283 116.389982 
L 984.636435 98.690244 
" style="fill:none;stroke:#1f77b4;stroke-linecap:square;stroke-width:2.16;"/>
   </g>
   <g id="line2d_78">
    <path clip-path="url(#p7cd9800459)" d="M 817.780283 186.201451 
L 817.780283 46.578513 
" style="fill:none;stroke:#1f77b4;stroke-linecap:square;stroke-width:2.16;"/>
   </g>
   <g id="line2d_79">
    <path clip-path="url(#p7cd9800459)" d="M 809.437475 186.201451 
L 826.12309 186.201451 
" style="fill:none;stroke:#1f77b4;stroke-linecap:square;stroke-width:2.16;"/>
   </g>
   <g id="line2d_80">
    <path clip-path="url(#p7cd9800459)" d="M 809.437475 46.578513 
L 826.12309 46.578513 
" style="fill:none;stroke:#1f77b4;stroke-linecap:square;stroke-width:2.16;"/>
   </g>
   <g id="line2d_81">
    <path clip-path="url(#p7cd9800459)" d="M 984.636435 159.650489 
L 984.636435 37.73 
" style="fill:none;stroke:#1f77b4;stroke-linecap:square;stroke-width:2.16;"/>
   </g>
   <g id="line2d_82">
    <path clip-path="url(#p7cd9800459)" d="M 976.293627 159.650489 
L 992.979242 159.650489 
" style="fill:none;stroke:#1f77b4;stroke-linecap:square;stroke-width:2.16;"/>
   </g>
   <g id="line2d_83">
    <path clip-path="url(#p7cd9800459)" d="M 976.293627 37.73 
L 992.979242 37.73 
" style="fill:none;stroke:#1f77b4;stroke-linecap:square;stroke-width:2.16;"/>
   </g>
   <g id="matplotlib.axis_5">
    <g id="xtick_5">
     <g id="line2d_84">
      <g>
       <use style="stroke:#000000;" x="826.12309" xlink:href="#m4857183f93" y="318.332"/>
      </g>
     </g>
     <g id="text_18">
      <!-- MC -->
      <g transform="translate(819.254278 333.318625)scale(0.088 -0.088)">
       <use xlink:href="#DejaVuSans-77"/>
       <use x="86.279297" xlink:href="#DejaVuSans-67"/>
      </g>
     </g>
    </g>
    <g id="xtick_6">
     <g id="line2d_85">
      <g>
       <use style="stroke:#000000;" x="992.979242" xlink:href="#m4857183f93" y="318.332"/>
      </g>
     </g>
     <g id="text_19">
      <!-- VBC -->
      <g transform="translate(983.955117 333.318625)scale(0.088 -0.088)">
       <use xlink:href="#DejaVuSans-86"/>
       <use x="68.408203" xlink:href="#DejaVuSans-66"/>
       <use x="135.261719" xlink:href="#DejaVuSans-67"/>
      </g>
     </g>
    </g>
    <g id="text_20">
     <!-- Popn -->
     <g transform="translate(897.804666 346.44325)scale(0.096 -0.096)">
      <use xlink:href="#DejaVuSans-80"/>
      <use x="56.677734" xlink:href="#DejaVuSans-111"/>
      <use x="117.859375" xlink:href="#DejaVuSans-112"/>
      <use x="181.335938" xlink:href="#DejaVuSans-110"/>
     </g>
    </g>
   </g>
   <g id="matplotlib.axis_6">
    <g id="ytick_17">
     <g id="line2d_86">
      <g>
       <use style="stroke:#000000;" x="742.695015" xlink:href="#mb52261094b" y="317.608051"/>
      </g>
     </g>
    </g>
    <g id="ytick_18">
     <g id="line2d_87">
      <g>
       <use style="stroke:#000000;" x="742.695015" xlink:href="#mb52261094b" y="280.345446"/>
      </g>
     </g>
    </g>
    <g id="ytick_19">
     <g id="line2d_88">
      <g>
       <use style="stroke:#000000;" x="742.695015" xlink:href="#mb52261094b" y="243.08284"/>
      </g>
     </g>
    </g>
    <g id="ytick_20">
     <g id="line2d_89">
      <g>
       <use style="stroke:#000000;" x="742.695015" xlink:href="#mb52261094b" y="205.820235"/>
      </g>
     </g>
    </g>
    <g id="ytick_21">
     <g id="line2d_90">
      <g>
       <use style="stroke:#000000;" x="742.695015" xlink:href="#mb52261094b" y="168.557629"/>
      </g>
     </g>
    </g>
    <g id="ytick_22">
     <g id="line2d_91">
      <g>
       <use style="stroke:#000000;" x="742.695015" xlink:href="#mb52261094b" y="131.295024"/>
      </g>
     </g>
    </g>
    <g id="ytick_23">
     <g id="line2d_92">
      <g>
       <use style="stroke:#000000;" x="742.695015" xlink:href="#mb52261094b" y="94.032419"/>
      </g>
     </g>
    </g>
    <g id="ytick_24">
     <g id="line2d_93">
      <g>
       <use style="stroke:#000000;" x="742.695015" xlink:href="#mb52261094b" y="56.769813"/>
      </g>
     </g>
    </g>
   </g>
   <g id="PathCollection_10">
    <g clip-path="url(#p7cd9800459)">
     <use style="fill:#ff7f0e;stroke:#ff7f0e;stroke-width:1.62;" x="823.342155" xlink:href="#mdee2fbc2be" y="149.553701"/>
     <use style="fill:#ff7f0e;stroke:#ff7f0e;stroke-width:1.62;" x="990.198306" xlink:href="#mdee2fbc2be" y="141.169615"/>
    </g>
   </g>
   <g id="line2d_94">
    <path clip-path="url(#p7cd9800459)" d="M 823.342155 149.553701 
L 990.198306 141.169615 
" style="fill:none;stroke:#ff7f0e;stroke-linecap:square;stroke-width:2.16;"/>
   </g>
   <g id="line2d_95">
    <path clip-path="url(#p7cd9800459)" d="M 823.342155 220.518178 
L 823.342155 78.589223 
" style="fill:none;stroke:#ff7f0e;stroke-linecap:square;stroke-width:2.16;"/>
   </g>
   <g id="line2d_96">
    <path clip-path="url(#p7cd9800459)" d="M 814.999347 220.518178 
L 831.684962 220.518178 
" style="fill:none;stroke:#ff7f0e;stroke-linecap:square;stroke-width:2.16;"/>
   </g>
   <g id="line2d_97">
    <path clip-path="url(#p7cd9800459)" d="M 814.999347 78.589223 
L 831.684962 78.589223 
" style="fill:none;stroke:#ff7f0e;stroke-linecap:square;stroke-width:2.16;"/>
   </g>
   <g id="line2d_98">
    <path clip-path="url(#p7cd9800459)" d="M 990.198306 220.546617 
L 990.198306 61.792612 
" style="fill:none;stroke:#ff7f0e;stroke-linecap:square;stroke-width:2.16;"/>
   </g>
   <g id="line2d_99">
    <path clip-path="url(#p7cd9800459)" d="M 981.855499 220.546617 
L 998.541114 220.546617 
" style="fill:none;stroke:#ff7f0e;stroke-linecap:square;stroke-width:2.16;"/>
   </g>
   <g id="line2d_100">
    <path clip-path="url(#p7cd9800459)" d="M 981.855499 61.792612 
L 998.541114 61.792612 
" style="fill:none;stroke:#ff7f0e;stroke-linecap:square;stroke-width:2.16;"/>
   </g>
   <g id="patch_9">
    <path d="M 742.695015 318.332 
L 742.695015 24.368 
" style="fill:none;stroke:#000000;stroke-linecap:square;stroke-linejoin:miter;"/>
   </g>
   <g id="patch_10">
    <path d="M 742.695015 318.332 
L 1076.407318 318.332 
" style="fill:none;stroke:#000000;stroke-linecap:square;stroke-linejoin:miter;"/>
   </g>
   <g id="PathCollection_11">
    <g clip-path="url(#p7cd9800459)">
     <use style="fill:#2ca02c;stroke:#2ca02c;stroke-width:1.62;" x="828.904026" xlink:href="#me39d6ececd" y="182.344793"/>
     <use style="fill:#2ca02c;stroke:#2ca02c;stroke-width:1.62;" x="995.760178" xlink:href="#me39d6ececd" y="198.554027"/>
    </g>
   </g>
   <g id="line2d_101">
    <path clip-path="url(#p7cd9800459)" d="M 828.904026 182.344793 
L 995.760178 198.554027 
" style="fill:none;stroke:#2ca02c;stroke-linecap:square;stroke-width:2.16;"/>
   </g>
   <g id="line2d_102">
    <path clip-path="url(#p7cd9800459)" d="M 828.904026 260.951229 
L 828.904026 103.738358 
" style="fill:none;stroke:#2ca02c;stroke-linecap:square;stroke-width:2.16;"/>
   </g>
   <g id="line2d_103">
    <path clip-path="url(#p7cd9800459)" d="M 820.561219 260.951229 
L 837.246834 260.951229 
" style="fill:none;stroke:#2ca02c;stroke-linecap:square;stroke-width:2.16;"/>
   </g>
   <g id="line2d_104">
    <path clip-path="url(#p7cd9800459)" d="M 820.561219 103.738358 
L 837.246834 103.738358 
" style="fill:none;stroke:#2ca02c;stroke-linecap:square;stroke-width:2.16;"/>
   </g>
   <g id="line2d_105">
    <path clip-path="url(#p7cd9800459)" d="M 995.760178 275.309341 
L 995.760178 121.798713 
" style="fill:none;stroke:#2ca02c;stroke-linecap:square;stroke-width:2.16;"/>
   </g>
   <g id="line2d_106">
    <path clip-path="url(#p7cd9800459)" d="M 987.41737 275.309341 
L 1004.102986 275.309341 
" style="fill:none;stroke:#2ca02c;stroke-linecap:square;stroke-width:2.16;"/>
   </g>
   <g id="line2d_107">
    <path clip-path="url(#p7cd9800459)" d="M 987.41737 121.798713 
L 1004.102986 121.798713 
" style="fill:none;stroke:#2ca02c;stroke-linecap:square;stroke-width:2.16;"/>
   </g>
   <g id="text_21">
    <!-- Diet = highY -->
    <defs>
     <path d="M 54.890625 33.015625 
L 54.890625 0 
L 45.90625 0 
L 45.90625 32.71875 
Q 45.90625 40.484375 42.875 44.328125 
Q 39.84375 48.1875 33.796875 48.1875 
Q 26.515625 48.1875 22.3125 43.546875 
Q 18.109375 38.921875 18.109375 30.90625 
L 18.109375 0 
L 9.078125 0 
L 9.078125 75.984375 
L 18.109375 75.984375 
L 18.109375 46.1875 
Q 21.34375 51.125 25.703125 53.5625 
Q 30.078125 56 35.796875 56 
Q 45.21875 56 50.046875 50.171875 
Q 54.890625 44.34375 54.890625 33.015625 
z
" id="DejaVuSans-104"/>
    </defs>
    <g transform="translate(879.216666 18.368)scale(0.096 -0.096)">
     <use xlink:href="#DejaVuSans-68"/>
     <use x="77.001953" xlink:href="#DejaVuSans-105"/>
     <use x="104.785156" xlink:href="#DejaVuSans-101"/>
     <use x="166.308594" xlink:href="#DejaVuSans-116"/>
     <use x="205.517578" xlink:href="#DejaVuSans-32"/>
     <use x="237.304688" xlink:href="#DejaVuSans-61"/>
     <use x="321.09375" xlink:href="#DejaVuSans-32"/>
     <use x="352.880859" xlink:href="#DejaVuSans-104"/>
     <use x="416.259766" xlink:href="#DejaVuSans-105"/>
     <use x="444.042969" xlink:href="#DejaVuSans-103"/>
     <use x="507.519531" xlink:href="#DejaVuSans-104"/>
     <use x="570.898438" xlink:href="#DejaVuSans-89"/>
    </g>
   </g>
   <g id="PathCollection_12">
    <g clip-path="url(#p7cd9800459)">
     <use style="fill:#d62728;stroke:#d62728;stroke-width:1.62;" x="834.465898" xlink:href="#m93591355be" y="159.521448"/>
     <use style="fill:#d62728;stroke:#d62728;stroke-width:1.62;" x="1001.32205" xlink:href="#m93591355be" y="153.373118"/>
    </g>
   </g>
   <g id="line2d_108">
    <path clip-path="url(#p7cd9800459)" d="M 834.465898 159.521448 
L 1001.32205 153.373118 
" style="fill:none;stroke:#d62728;stroke-linecap:square;stroke-width:2.16;"/>
   </g>
   <g id="line2d_109">
    <path clip-path="url(#p7cd9800459)" d="M 834.465898 223.905405 
L 834.465898 95.137491 
" style="fill:none;stroke:#d62728;stroke-linecap:square;stroke-width:2.16;"/>
   </g>
   <g id="line2d_110">
    <path clip-path="url(#p7cd9800459)" d="M 826.12309 223.905405 
L 842.808706 223.905405 
" style="fill:none;stroke:#d62728;stroke-linecap:square;stroke-width:2.16;"/>
   </g>
   <g id="line2d_111">
    <path clip-path="url(#p7cd9800459)" d="M 826.12309 95.137491 
L 842.808706 95.137491 
" style="fill:none;stroke:#d62728;stroke-linecap:square;stroke-width:2.16;"/>
   </g>
   <g id="line2d_112">
    <path clip-path="url(#p7cd9800459)" d="M 1001.32205 210.242175 
L 1001.32205 96.504061 
" style="fill:none;stroke:#d62728;stroke-linecap:square;stroke-width:2.16;"/>
   </g>
   <g id="line2d_113">
    <path clip-path="url(#p7cd9800459)" d="M 992.979242 210.242175 
L 1009.664857 210.242175 
" style="fill:none;stroke:#d62728;stroke-linecap:square;stroke-width:2.16;"/>
   </g>
   <g id="line2d_114">
    <path clip-path="url(#p7cd9800459)" d="M 992.979242 96.504061 
L 1009.664857 96.504061 
" style="fill:none;stroke:#d62728;stroke-linecap:square;stroke-width:2.16;"/>
   </g>
  </g>
  <g id="axes_4">
   <g id="patch_11">
    <path d="M 1091.514647 318.332 
L 1425.22695 318.332 
L 1425.22695 24.368 
L 1091.514647 24.368 
z
" style="fill:#ffffff;"/>
   </g>
   <g id="PathCollection_13">
    <g clip-path="url(#p3653a3fcb9)">
     <use style="fill:#1f77b4;stroke:#1f77b4;stroke-width:1.62;" x="1166.599915" xlink:href="#m391d238e4b" y="179.550098"/>
     <use style="fill:#1f77b4;stroke:#1f77b4;stroke-width:1.62;" x="1333.456067" xlink:href="#m391d238e4b" y="116.669452"/>
    </g>
   </g>
   <g id="line2d_115">
    <path clip-path="url(#p3653a3fcb9)" d="M 1166.599915 179.550098 
L 1333.456067 116.669452 
" style="fill:none;stroke:#1f77b4;stroke-linecap:square;stroke-width:2.16;"/>
   </g>
   <g id="line2d_116">
    <path clip-path="url(#p3653a3fcb9)" d="M 1166.599915 261.430169 
L 1166.599915 97.670027 
" style="fill:none;stroke:#1f77b4;stroke-linecap:square;stroke-width:2.16;"/>
   </g>
   <g id="line2d_117">
    <path clip-path="url(#p3653a3fcb9)" d="M 1158.257107 261.430169 
L 1174.942722 261.430169 
" style="fill:none;stroke:#1f77b4;stroke-linecap:square;stroke-width:2.16;"/>
   </g>
   <g id="line2d_118">
    <path clip-path="url(#p3653a3fcb9)" d="M 1158.257107 97.670027 
L 1174.942722 97.670027 
" style="fill:none;stroke:#1f77b4;stroke-linecap:square;stroke-width:2.16;"/>
   </g>
   <g id="line2d_119">
    <path clip-path="url(#p3653a3fcb9)" d="M 1333.456067 176.698037 
L 1333.456067 56.640866 
" style="fill:none;stroke:#1f77b4;stroke-linecap:square;stroke-width:2.16;"/>
   </g>
   <g id="line2d_120">
    <path clip-path="url(#p3653a3fcb9)" d="M 1325.113259 176.698037 
L 1341.798874 176.698037 
" style="fill:none;stroke:#1f77b4;stroke-linecap:square;stroke-width:2.16;"/>
   </g>
   <g id="line2d_121">
    <path clip-path="url(#p3653a3fcb9)" d="M 1325.113259 56.640866 
L 1341.798874 56.640866 
" style="fill:none;stroke:#1f77b4;stroke-linecap:square;stroke-width:2.16;"/>
   </g>
   <g id="matplotlib.axis_7">
    <g id="xtick_7">
     <g id="line2d_122">
      <g>
       <use style="stroke:#000000;" x="1174.942722" xlink:href="#m4857183f93" y="318.332"/>
      </g>
     </g>
     <g id="text_22">
      <!-- MC -->
      <g transform="translate(1168.07391 333.318625)scale(0.088 -0.088)">
       <use xlink:href="#DejaVuSans-77"/>
       <use x="86.279297" xlink:href="#DejaVuSans-67"/>
      </g>
     </g>
    </g>
    <g id="xtick_8">
     <g id="line2d_123">
      <g>
       <use style="stroke:#000000;" x="1341.798874" xlink:href="#m4857183f93" y="318.332"/>
      </g>
     </g>
     <g id="text_23">
      <!-- VBC -->
      <g transform="translate(1332.774749 333.318625)scale(0.088 -0.088)">
       <use xlink:href="#DejaVuSans-86"/>
       <use x="68.408203" xlink:href="#DejaVuSans-66"/>
       <use x="135.261719" xlink:href="#DejaVuSans-67"/>
      </g>
     </g>
    </g>
    <g id="text_24">
     <!-- Popn -->
     <g transform="translate(1246.624298 346.44325)scale(0.096 -0.096)">
      <use xlink:href="#DejaVuSans-80"/>
      <use x="56.677734" xlink:href="#DejaVuSans-111"/>
      <use x="117.859375" xlink:href="#DejaVuSans-112"/>
      <use x="181.335938" xlink:href="#DejaVuSans-110"/>
     </g>
    </g>
   </g>
   <g id="matplotlib.axis_8">
    <g id="ytick_25">
     <g id="line2d_124">
      <g>
       <use style="stroke:#000000;" x="1091.514647" xlink:href="#mb52261094b" y="317.608051"/>
      </g>
     </g>
    </g>
    <g id="ytick_26">
     <g id="line2d_125">
      <g>
       <use style="stroke:#000000;" x="1091.514647" xlink:href="#mb52261094b" y="280.345446"/>
      </g>
     </g>
    </g>
    <g id="ytick_27">
     <g id="line2d_126">
      <g>
       <use style="stroke:#000000;" x="1091.514647" xlink:href="#mb52261094b" y="243.08284"/>
      </g>
     </g>
    </g>
    <g id="ytick_28">
     <g id="line2d_127">
      <g>
       <use style="stroke:#000000;" x="1091.514647" xlink:href="#mb52261094b" y="205.820235"/>
      </g>
     </g>
    </g>
    <g id="ytick_29">
     <g id="line2d_128">
      <g>
       <use style="stroke:#000000;" x="1091.514647" xlink:href="#mb52261094b" y="168.557629"/>
      </g>
     </g>
    </g>
    <g id="ytick_30">
     <g id="line2d_129">
      <g>
       <use style="stroke:#000000;" x="1091.514647" xlink:href="#mb52261094b" y="131.295024"/>
      </g>
     </g>
    </g>
    <g id="ytick_31">
     <g id="line2d_130">
      <g>
       <use style="stroke:#000000;" x="1091.514647" xlink:href="#mb52261094b" y="94.032419"/>
      </g>
     </g>
    </g>
    <g id="ytick_32">
     <g id="line2d_131">
      <g>
       <use style="stroke:#000000;" x="1091.514647" xlink:href="#mb52261094b" y="56.769813"/>
      </g>
     </g>
    </g>
   </g>
   <g id="PathCollection_14">
    <g clip-path="url(#p3653a3fcb9)">
     <use style="fill:#ff7f0e;stroke:#ff7f0e;stroke-width:1.62;" x="1172.161787" xlink:href="#mdee2fbc2be" y="163.527178"/>
     <use style="fill:#ff7f0e;stroke:#ff7f0e;stroke-width:1.62;" x="1339.017938" xlink:href="#mdee2fbc2be" y="119.65046"/>
    </g>
   </g>
   <g id="line2d_132">
    <path clip-path="url(#p3653a3fcb9)" d="M 1172.161787 163.527178 
L 1339.017938 119.65046 
" style="fill:none;stroke:#ff7f0e;stroke-linecap:square;stroke-width:2.16;"/>
   </g>
   <g id="line2d_133">
    <path clip-path="url(#p3653a3fcb9)" d="M 1172.161787 240.96955 
L 1172.161787 86.084806 
" style="fill:none;stroke:#ff7f0e;stroke-linecap:square;stroke-width:2.16;"/>
   </g>
   <g id="line2d_134">
    <path clip-path="url(#p3653a3fcb9)" d="M 1163.818979 240.96955 
L 1180.504594 240.96955 
" style="fill:none;stroke:#ff7f0e;stroke-linecap:square;stroke-width:2.16;"/>
   </g>
   <g id="line2d_135">
    <path clip-path="url(#p3653a3fcb9)" d="M 1163.818979 86.084806 
L 1180.504594 86.084806 
" style="fill:none;stroke:#ff7f0e;stroke-linecap:square;stroke-width:2.16;"/>
   </g>
   <g id="line2d_136">
    <path clip-path="url(#p3653a3fcb9)" d="M 1339.017938 190.982745 
L 1339.017938 48.318175 
" style="fill:none;stroke:#ff7f0e;stroke-linecap:square;stroke-width:2.16;"/>
   </g>
   <g id="line2d_137">
    <path clip-path="url(#p3653a3fcb9)" d="M 1330.675131 190.982745 
L 1347.360746 190.982745 
" style="fill:none;stroke:#ff7f0e;stroke-linecap:square;stroke-width:2.16;"/>
   </g>
   <g id="line2d_138">
    <path clip-path="url(#p3653a3fcb9)" d="M 1330.675131 48.318175 
L 1347.360746 48.318175 
" style="fill:none;stroke:#ff7f0e;stroke-linecap:square;stroke-width:2.16;"/>
   </g>
   <g id="patch_12">
    <path d="M 1091.514647 318.332 
L 1091.514647 24.368 
" style="fill:none;stroke:#000000;stroke-linecap:square;stroke-linejoin:miter;"/>
   </g>
   <g id="patch_13">
    <path d="M 1091.514647 318.332 
L 1425.22695 318.332 
" style="fill:none;stroke:#000000;stroke-linecap:square;stroke-linejoin:miter;"/>
   </g>
   <g id="PathCollection_15">
    <g clip-path="url(#p3653a3fcb9)">
     <use style="fill:#2ca02c;stroke:#2ca02c;stroke-width:1.62;" x="1177.723658" xlink:href="#me39d6ececd" y="153.279961"/>
     <use style="fill:#2ca02c;stroke:#2ca02c;stroke-width:1.62;" x="1344.57981" xlink:href="#me39d6ececd" y="170.607073"/>
    </g>
   </g>
   <g id="line2d_139">
    <path clip-path="url(#p3653a3fcb9)" d="M 1177.723658 153.279961 
L 1344.57981 170.607073 
" style="fill:none;stroke:#2ca02c;stroke-linecap:square;stroke-width:2.16;"/>
   </g>
   <g id="line2d_140">
    <path clip-path="url(#p3653a3fcb9)" d="M 1177.723658 225.984069 
L 1177.723658 80.575853 
" style="fill:none;stroke:#2ca02c;stroke-linecap:square;stroke-width:2.16;"/>
   </g>
   <g id="line2d_141">
    <path clip-path="url(#p3653a3fcb9)" d="M 1169.380851 225.984069 
L 1186.066466 225.984069 
" style="fill:none;stroke:#2ca02c;stroke-linecap:square;stroke-width:2.16;"/>
   </g>
   <g id="line2d_142">
    <path clip-path="url(#p3653a3fcb9)" d="M 1169.380851 80.575853 
L 1186.066466 80.575853 
" style="fill:none;stroke:#2ca02c;stroke-linecap:square;stroke-width:2.16;"/>
   </g>
   <g id="line2d_143">
    <path clip-path="url(#p3653a3fcb9)" d="M 1344.57981 244.354796 
L 1344.57981 96.85935 
" style="fill:none;stroke:#2ca02c;stroke-linecap:square;stroke-width:2.16;"/>
   </g>
   <g id="line2d_144">
    <path clip-path="url(#p3653a3fcb9)" d="M 1336.237002 244.354796 
L 1352.922618 244.354796 
" style="fill:none;stroke:#2ca02c;stroke-linecap:square;stroke-width:2.16;"/>
   </g>
   <g id="line2d_145">
    <path clip-path="url(#p3653a3fcb9)" d="M 1336.237002 96.85935 
L 1352.922618 96.85935 
" style="fill:none;stroke:#2ca02c;stroke-linecap:square;stroke-width:2.16;"/>
   </g>
   <g id="text_25">
    <!-- Diet = onlyY -->
    <defs>
     <path d="M 32.171875 -5.078125 
Q 28.375 -14.84375 24.75 -17.8125 
Q 21.140625 -20.796875 15.09375 -20.796875 
L 7.90625 -20.796875 
L 7.90625 -13.28125 
L 13.1875 -13.28125 
Q 16.890625 -13.28125 18.9375 -11.515625 
Q 21 -9.765625 23.484375 -3.21875 
L 25.09375 0.875 
L 2.984375 54.6875 
L 12.5 54.6875 
L 29.59375 11.921875 
L 46.6875 54.6875 
L 56.203125 54.6875 
z
" id="DejaVuSans-121"/>
    </defs>
    <g transform="translate(1228.347548 18.368)scale(0.096 -0.096)">
     <use xlink:href="#DejaVuSans-68"/>
     <use x="77.001953" xlink:href="#DejaVuSans-105"/>
     <use x="104.785156" xlink:href="#DejaVuSans-101"/>
     <use x="166.308594" xlink:href="#DejaVuSans-116"/>
     <use x="205.517578" xlink:href="#DejaVuSans-32"/>
     <use x="237.304688" xlink:href="#DejaVuSans-61"/>
     <use x="321.09375" xlink:href="#DejaVuSans-32"/>
     <use x="352.880859" xlink:href="#DejaVuSans-111"/>
     <use x="414.0625" xlink:href="#DejaVuSans-110"/>
     <use x="477.441406" xlink:href="#DejaVuSans-108"/>
     <use x="505.224609" xlink:href="#DejaVuSans-121"/>
     <use x="564.404297" xlink:href="#DejaVuSans-89"/>
    </g>
   </g>
   <g id="PathCollection_16">
    <g clip-path="url(#p3653a3fcb9)">
     <use style="fill:#d62728;stroke:#d62728;stroke-width:1.62;" x="0" xlink:href="#m93591355be" y="0"/>
    </g>
   </g>
   <g id="line2d_146">
    <path clip-path="url(#p3653a3fcb9)" d="M 0 0 
" style="fill:none;stroke:#d62728;stroke-linecap:square;stroke-width:2.16;"/>
   </g>
   <g id="line2d_147">
    <path clip-path="url(#p3653a3fcb9)" d="M 0 0 
" style="fill:none;stroke:#d62728;stroke-linecap:square;stroke-width:2.16;"/>
   </g>
   <g id="line2d_148">
    <path clip-path="url(#p3653a3fcb9)" d="M 0 0 
" style="fill:none;stroke:#d62728;stroke-linecap:square;stroke-width:2.16;"/>
   </g>
   <g id="line2d_149">
    <path clip-path="url(#p3653a3fcb9)" d="M 0 0 
" style="fill:none;stroke:#d62728;stroke-linecap:square;stroke-width:2.16;"/>
   </g>
   <g id="line2d_150">
    <path clip-path="url(#p3653a3fcb9)" d="M 0 0 
" style="fill:none;stroke:#d62728;stroke-linecap:square;stroke-width:2.16;"/>
   </g>
   <g id="line2d_151">
    <path clip-path="url(#p3653a3fcb9)" d="M 0 0 
" style="fill:none;stroke:#d62728;stroke-linecap:square;stroke-width:2.16;"/>
   </g>
   <g id="line2d_152">
    <path clip-path="url(#p3653a3fcb9)" d="M 0 0 
" style="fill:none;stroke:#d62728;stroke-linecap:square;stroke-width:2.16;"/>
   </g>
  </g>
  <g id="legend_1">
   <g id="text_26">
    <!-- Block -->
    <defs>
     <path d="M 9.078125 75.984375 
L 18.109375 75.984375 
L 18.109375 31.109375 
L 44.921875 54.6875 
L 56.390625 54.6875 
L 27.390625 29.109375 
L 57.625 0 
L 45.90625 0 
L 18.109375 26.703125 
L 18.109375 0 
L 9.078125 0 
z
" id="DejaVuSans-107"/>
    </defs>
    <g transform="translate(1441.283 156.8155)scale(0.096 -0.096)">
     <use xlink:href="#DejaVuSans-66"/>
     <use x="68.603516" xlink:href="#DejaVuSans-108"/>
     <use x="96.386719" xlink:href="#DejaVuSans-111"/>
     <use x="157.568359" xlink:href="#DejaVuSans-99"/>
     <use x="212.548828" xlink:href="#DejaVuSans-107"/>
    </g>
   </g>
   <g id="PathCollection_17">
    <g>
     <use style="fill:#1f77b4;stroke:#1f77b4;stroke-width:1.62;" x="1447.946" xlink:href="#m391d238e4b" y="167.588625"/>
    </g>
   </g>
   <g id="text_27">
    <!-- 1 -->
    <g transform="translate(1463.786 169.898625)scale(0.088 -0.088)">
     <use xlink:href="#DejaVuSans-49"/>
    </g>
   </g>
   <g id="PathCollection_18">
    <g>
     <use style="fill:#ff7f0e;stroke:#ff7f0e;stroke-width:1.62;" x="1447.946" xlink:href="#mdee2fbc2be" y="180.505375"/>
    </g>
   </g>
   <g id="text_28">
    <!-- 2 -->
    <g transform="translate(1463.786 182.815375)scale(0.088 -0.088)">
     <use xlink:href="#DejaVuSans-50"/>
    </g>
   </g>
   <g id="PathCollection_19">
    <g>
     <use style="fill:#2ca02c;stroke:#2ca02c;stroke-width:1.62;" x="1447.946" xlink:href="#me39d6ececd" y="193.422125"/>
    </g>
   </g>
   <g id="text_29">
    <!-- 3 -->
    <g transform="translate(1463.786 195.732125)scale(0.088 -0.088)">
     <use xlink:href="#DejaVuSans-51"/>
    </g>
   </g>
   <g id="PathCollection_20">
    <g>
     <use style="fill:#d62728;stroke:#d62728;stroke-width:1.62;" x="1447.946" xlink:href="#m93591355be" y="206.338875"/>
    </g>
   </g>
   <g id="text_30">
    <!-- 4 -->
    <g transform="translate(1463.786 208.648875)scale(0.088 -0.088)">
     <use xlink:href="#DejaVuSans-52"/>
    </g>
   </g>
  </g>
 </g>
 <defs>
  <clipPath id="pcff7a3983b">
   <rect height="293.964" width="333.712303" x="45.055751" y="24.368"/>
  </clipPath>
  <clipPath id="pc653600f77">
   <rect height="293.964" width="333.712303" x="393.875383" y="24.368"/>
  </clipPath>
  <clipPath id="p7cd9800459">
   <rect height="293.964" width="333.712303" x="742.695015" y="24.368"/>
  </clipPath>
  <clipPath id="p3653a3fcb9">
   <rect height="293.964" width="333.712303" x="1091.514647" y="24.368"/>
  </clipPath>
 </defs>
</svg>
