<?xml version="1.0" encoding="utf-8" standalone="no"?>
<!DOCTYPE svg PUBLIC "-//W3C//DTD SVG 1.1//EN"
  "http://www.w3.org/Graphics/SVG/1.1/DTD/svg11.dtd">
<!-- Created with matplotlib (https://matplotlib.org/) -->
<svg height="360pt" version="1.1" viewBox="0 0 1477.305 360" width="1477.305pt" xmlns="http://www.w3.org/2000/svg" xmlns:xlink="http://www.w3.org/1999/xlink">
 <defs>
  <style type="text/css">
*{stroke-linecap:butt;stroke-linejoin:round;}
  </style>
 </defs>
 <g id="figure_1">
  <g id="patch_1">
   <path d="M 0 360 
L 1477.305 360 
L 1477.305 0 
L 0 0 
z
" style="fill:#ffffff;"/>
  </g>
  <g id="axes_1">
   <g id="patch_2">
    <path d="M 45.055751 318.332 
L 378.768054 318.332 
L 378.768054 24.368 
L 45.055751 24.368 
z
" style="fill:#ffffff;"/>
   </g>
   <g id="PathCollection_1">
    <defs>
     <path d="M 0 2.707159 
C 0.717947 2.707159 1.406585 2.421915 1.91425 1.91425 
C 2.421915 1.406585 2.707159 0.717947 2.707159 0 
C 2.707159 -0.717947 2.421915 -1.406585 1.91425 -1.91425 
C 1.406585 -2.421915 0.717947 -2.707159 0 -2.707159 
C -0.717947 -2.707159 -1.406585 -2.421915 -1.91425 -1.91425 
C -2.421915 -1.406585 -2.707159 -0.717947 -2.707159 0 
C -2.707159 0.717947 -2.421915 1.406585 -1.91425 1.91425 
C -1.406585 2.421915 -0.717947 2.707159 0 2.707159 
z
" id="m126dcfc7be" style="stroke:#1f77b4;stroke-width:1.62;"/>
    </defs>
    <g clip-path="url(#pe02be7aacd)">
     <use style="fill:#1f77b4;stroke:#1f77b4;stroke-width:1.62;" x="120.141019" xlink:href="#m126dcfc7be" y="155.45744"/>
     <use style="fill:#1f77b4;stroke:#1f77b4;stroke-width:1.62;" x="286.997171" xlink:href="#m126dcfc7be" y="117.628961"/>
    </g>
   </g>
   <g id="line2d_1">
    <path clip-path="url(#pe02be7aacd)" d="M 120.141019 155.45744 
L 286.997171 117.628961 
" style="fill:none;stroke:#1f77b4;stroke-linecap:square;stroke-width:2.16;"/>
   </g>
   <g id="line2d_2">
    <path clip-path="url(#pe02be7aacd)" d="M 120.141019 208.559268 
L 120.141019 102.355611 
" style="fill:none;stroke:#1f77b4;stroke-linecap:square;stroke-width:2.16;"/>
   </g>
   <g id="line2d_3">
    <path clip-path="url(#pe02be7aacd)" d="M 111.798211 208.559268 
L 128.483827 208.559268 
" style="fill:none;stroke:#1f77b4;stroke-linecap:square;stroke-width:2.16;"/>
   </g>
   <g id="line2d_4">
    <path clip-path="url(#pe02be7aacd)" d="M 111.798211 102.355611 
L 128.483827 102.355611 
" style="fill:none;stroke:#1f77b4;stroke-linecap:square;stroke-width:2.16;"/>
   </g>
   <g id="line2d_5">
    <path clip-path="url(#pe02be7aacd)" d="M 286.997171 153.656084 
L 286.997171 81.601838 
" style="fill:none;stroke:#1f77b4;stroke-linecap:square;stroke-width:2.16;"/>
   </g>
   <g id="line2d_6">
    <path clip-path="url(#pe02be7aacd)" d="M 278.654363 153.656084 
L 295.339978 153.656084 
" style="fill:none;stroke:#1f77b4;stroke-linecap:square;stroke-width:2.16;"/>
   </g>
   <g id="line2d_7">
    <path clip-path="url(#pe02be7aacd)" d="M 278.654363 81.601838 
L 295.339978 81.601838 
" style="fill:none;stroke:#1f77b4;stroke-linecap:square;stroke-width:2.16;"/>
   </g>
   <g id="matplotlib.axis_1">
    <g id="xtick_1">
     <g id="line2d_8">
      <defs>
       <path d="M 0 0 
L 0 4.8 
" id="md4d7efc7e3" style="stroke:#000000;"/>
      </defs>
      <g>
       <use style="stroke:#000000;" x="128.483827" xlink:href="#md4d7efc7e3" y="318.332"/>
      </g>
     </g>
     <g id="text_1">
      <!-- MC -->
      <defs>
       <path d="M 9.8125 72.90625 
L 24.515625 72.90625 
L 43.109375 23.296875 
L 61.8125 72.90625 
L 76.515625 72.90625 
L 76.515625 0 
L 66.890625 0 
L 66.890625 64.015625 
L 48.09375 14.015625 
L 38.1875 14.015625 
L 19.390625 64.015625 
L 19.390625 0 
L 9.8125 0 
z
" id="DejaVuSans-77"/>
       <path d="M 64.40625 67.28125 
L 64.40625 56.890625 
Q 59.421875 61.53125 53.78125 63.8125 
Q 48.140625 66.109375 41.796875 66.109375 
Q 29.296875 66.109375 22.65625 58.46875 
Q 16.015625 50.828125 16.015625 36.375 
Q 16.015625 21.96875 22.65625 14.328125 
Q 29.296875 6.6875 41.796875 6.6875 
Q 48.140625 6.6875 53.78125 8.984375 
Q 59.421875 11.28125 64.40625 15.921875 
L 64.40625 5.609375 
Q 59.234375 2.09375 53.4375 0.328125 
Q 47.65625 -1.421875 41.21875 -1.421875 
Q 24.65625 -1.421875 15.125 8.703125 
Q 5.609375 18.84375 5.609375 36.375 
Q 5.609375 53.953125 15.125 64.078125 
Q 24.65625 74.21875 41.21875 74.21875 
Q 47.75 74.21875 53.53125 72.484375 
Q 59.328125 70.75 64.40625 67.28125 
z
" id="DejaVuSans-67"/>
      </defs>
      <g transform="translate(121.615014 333.318625)scale(0.088 -0.088)">
       <use xlink:href="#DejaVuSans-77"/>
       <use x="86.279297" xlink:href="#DejaVuSans-67"/>
      </g>
     </g>
    </g>
    <g id="xtick_2">
     <g id="line2d_9">
      <g>
       <use style="stroke:#000000;" x="295.339978" xlink:href="#md4d7efc7e3" y="318.332"/>
      </g>
     </g>
     <g id="text_2">
      <!-- VBC -->
      <defs>
       <path d="M 28.609375 0 
L 0.78125 72.90625 
L 11.078125 72.90625 
L 34.1875 11.53125 
L 57.328125 72.90625 
L 67.578125 72.90625 
L 39.796875 0 
z
" id="DejaVuSans-86"/>
       <path d="M 19.671875 34.8125 
L 19.671875 8.109375 
L 35.5 8.109375 
Q 43.453125 8.109375 47.28125 11.40625 
Q 51.125 14.703125 51.125 21.484375 
Q 51.125 28.328125 47.28125 31.5625 
Q 43.453125 34.8125 35.5 34.8125 
z
M 19.671875 64.796875 
L 19.671875 42.828125 
L 34.28125 42.828125 
Q 41.5 42.828125 45.03125 45.53125 
Q 48.578125 48.25 48.578125 53.8125 
Q 48.578125 59.328125 45.03125 62.0625 
Q 41.5 64.796875 34.28125 64.796875 
z
M 9.8125 72.90625 
L 35.015625 72.90625 
Q 46.296875 72.90625 52.390625 68.21875 
Q 58.5 63.53125 58.5 54.890625 
Q 58.5 48.1875 55.375 44.234375 
Q 52.25 40.28125 46.1875 39.3125 
Q 53.46875 37.75 57.5 32.78125 
Q 61.53125 27.828125 61.53125 20.40625 
Q 61.53125 10.640625 54.890625 5.3125 
Q 48.25 0 35.984375 0 
L 9.8125 0 
z
" id="DejaVuSans-66"/>
      </defs>
      <g transform="translate(286.315853 333.318625)scale(0.088 -0.088)">
       <use xlink:href="#DejaVuSans-86"/>
       <use x="68.408203" xlink:href="#DejaVuSans-66"/>
       <use x="135.261719" xlink:href="#DejaVuSans-67"/>
      </g>
     </g>
    </g>
    <g id="text_3">
     <!-- Popn -->
     <defs>
      <path d="M 19.671875 64.796875 
L 19.671875 37.40625 
L 32.078125 37.40625 
Q 38.96875 37.40625 42.71875 40.96875 
Q 46.484375 44.53125 46.484375 51.125 
Q 46.484375 57.671875 42.71875 61.234375 
Q 38.96875 64.796875 32.078125 64.796875 
z
M 9.8125 72.90625 
L 32.078125 72.90625 
Q 44.34375 72.90625 50.609375 67.359375 
Q 56.890625 61.8125 56.890625 51.125 
Q 56.890625 40.328125 50.609375 34.8125 
Q 44.34375 29.296875 32.078125 29.296875 
L 19.671875 29.296875 
L 19.671875 0 
L 9.8125 0 
z
" id="DejaVuSans-80"/>
      <path d="M 30.609375 48.390625 
Q 23.390625 48.390625 19.1875 42.75 
Q 14.984375 37.109375 14.984375 27.296875 
Q 14.984375 17.484375 19.15625 11.84375 
Q 23.34375 6.203125 30.609375 6.203125 
Q 37.796875 6.203125 41.984375 11.859375 
Q 46.1875 17.53125 46.1875 27.296875 
Q 46.1875 37.015625 41.984375 42.703125 
Q 37.796875 48.390625 30.609375 48.390625 
z
M 30.609375 56 
Q 42.328125 56 49.015625 48.375 
Q 55.71875 40.765625 55.71875 27.296875 
Q 55.71875 13.875 49.015625 6.21875 
Q 42.328125 -1.421875 30.609375 -1.421875 
Q 18.84375 -1.421875 12.171875 6.21875 
Q 5.515625 13.875 5.515625 27.296875 
Q 5.515625 40.765625 12.171875 48.375 
Q 18.84375 56 30.609375 56 
z
" id="DejaVuSans-111"/>
      <path d="M 18.109375 8.203125 
L 18.109375 -20.796875 
L 9.078125 -20.796875 
L 9.078125 54.6875 
L 18.109375 54.6875 
L 18.109375 46.390625 
Q 20.953125 51.265625 25.265625 53.625 
Q 29.59375 56 35.59375 56 
Q 45.5625 56 51.78125 48.09375 
Q 58.015625 40.1875 58.015625 27.296875 
Q 58.015625 14.40625 51.78125 6.484375 
Q 45.5625 -1.421875 35.59375 -1.421875 
Q 29.59375 -1.421875 25.265625 0.953125 
Q 20.953125 3.328125 18.109375 8.203125 
z
M 48.6875 27.296875 
Q 48.6875 37.203125 44.609375 42.84375 
Q 40.53125 48.484375 33.40625 48.484375 
Q 26.265625 48.484375 22.1875 42.84375 
Q 18.109375 37.203125 18.109375 27.296875 
Q 18.109375 17.390625 22.1875 11.75 
Q 26.265625 6.109375 33.40625 6.109375 
Q 40.53125 6.109375 44.609375 11.75 
Q 48.6875 17.390625 48.6875 27.296875 
z
" id="DejaVuSans-112"/>
      <path d="M 54.890625 33.015625 
L 54.890625 0 
L 45.90625 0 
L 45.90625 32.71875 
Q 45.90625 40.484375 42.875 44.328125 
Q 39.84375 48.1875 33.796875 48.1875 
Q 26.515625 48.1875 22.3125 43.546875 
Q 18.109375 38.921875 18.109375 30.90625 
L 18.109375 0 
L 9.078125 0 
L 9.078125 54.6875 
L 18.109375 54.6875 
L 18.109375 46.1875 
Q 21.34375 51.125 25.703125 53.5625 
Q 30.078125 56 35.796875 56 
Q 45.21875 56 50.046875 50.171875 
Q 54.890625 44.34375 54.890625 33.015625 
z
" id="DejaVuSans-110"/>
     </defs>
     <g transform="translate(200.165402 346.44325)scale(0.096 -0.096)">
      <use xlink:href="#DejaVuSans-80"/>
      <use x="56.677734" xlink:href="#DejaVuSans-111"/>
      <use x="117.859375" xlink:href="#DejaVuSans-112"/>
      <use x="181.335938" xlink:href="#DejaVuSans-110"/>
     </g>
    </g>
   </g>
   <g id="matplotlib.axis_2">
    <g id="ytick_1">
     <g id="line2d_10">
      <defs>
       <path d="M 0 0 
L -4.8 0 
" id="m066c2954cf" style="stroke:#000000;"/>
      </defs>
      <g>
       <use style="stroke:#000000;" x="45.055751" xlink:href="#m066c2954cf" y="315.778137"/>
      </g>
     </g>
     <g id="text_4">
      <!-- 14 -->
      <defs>
       <path d="M 12.40625 8.296875 
L 28.515625 8.296875 
L 28.515625 63.921875 
L 10.984375 60.40625 
L 10.984375 69.390625 
L 28.421875 72.90625 
L 38.28125 72.90625 
L 38.28125 8.296875 
L 54.390625 8.296875 
L 54.390625 0 
L 12.40625 0 
z
" id="DejaVuSans-49"/>
       <path d="M 37.796875 64.3125 
L 12.890625 25.390625 
L 37.796875 25.390625 
z
M 35.203125 72.90625 
L 47.609375 72.90625 
L 47.609375 25.390625 
L 58.015625 25.390625 
L 58.015625 17.1875 
L 47.609375 17.1875 
L 47.609375 0 
L 37.796875 0 
L 37.796875 17.1875 
L 4.890625 17.1875 
L 4.890625 26.703125 
z
" id="DejaVuSans-52"/>
      </defs>
      <g transform="translate(25.557751 319.121449)scale(0.088 -0.088)">
       <use xlink:href="#DejaVuSans-49"/>
       <use x="63.623047" xlink:href="#DejaVuSans-52"/>
      </g>
     </g>
    </g>
    <g id="ytick_2">
     <g id="line2d_11">
      <g>
       <use style="stroke:#000000;" x="45.055751" xlink:href="#m066c2954cf" y="279.751014"/>
      </g>
     </g>
     <g id="text_5">
      <!-- 16 -->
      <defs>
       <path d="M 33.015625 40.375 
Q 26.375 40.375 22.484375 35.828125 
Q 18.609375 31.296875 18.609375 23.390625 
Q 18.609375 15.53125 22.484375 10.953125 
Q 26.375 6.390625 33.015625 6.390625 
Q 39.65625 6.390625 43.53125 10.953125 
Q 47.40625 15.53125 47.40625 23.390625 
Q 47.40625 31.296875 43.53125 35.828125 
Q 39.65625 40.375 33.015625 40.375 
z
M 52.59375 71.296875 
L 52.59375 62.3125 
Q 48.875 64.0625 45.09375 64.984375 
Q 41.3125 65.921875 37.59375 65.921875 
Q 27.828125 65.921875 22.671875 59.328125 
Q 17.53125 52.734375 16.796875 39.40625 
Q 19.671875 43.65625 24.015625 45.921875 
Q 28.375 48.1875 33.59375 48.1875 
Q 44.578125 48.1875 50.953125 41.515625 
Q 57.328125 34.859375 57.328125 23.390625 
Q 57.328125 12.15625 50.6875 5.359375 
Q 44.046875 -1.421875 33.015625 -1.421875 
Q 20.359375 -1.421875 13.671875 8.265625 
Q 6.984375 17.96875 6.984375 36.375 
Q 6.984375 53.65625 15.1875 63.9375 
Q 23.390625 74.21875 37.203125 74.21875 
Q 40.921875 74.21875 44.703125 73.484375 
Q 48.484375 72.75 52.59375 71.296875 
z
" id="DejaVuSans-54"/>
      </defs>
      <g transform="translate(25.557751 283.094326)scale(0.088 -0.088)">
       <use xlink:href="#DejaVuSans-49"/>
       <use x="63.623047" xlink:href="#DejaVuSans-54"/>
      </g>
     </g>
    </g>
    <g id="ytick_3">
     <g id="line2d_12">
      <g>
       <use style="stroke:#000000;" x="45.055751" xlink:href="#m066c2954cf" y="243.723891"/>
      </g>
     </g>
     <g id="text_6">
      <!-- 18 -->
      <defs>
       <path d="M 31.78125 34.625 
Q 24.75 34.625 20.71875 30.859375 
Q 16.703125 27.09375 16.703125 20.515625 
Q 16.703125 13.921875 20.71875 10.15625 
Q 24.75 6.390625 31.78125 6.390625 
Q 38.8125 6.390625 42.859375 10.171875 
Q 46.921875 13.96875 46.921875 20.515625 
Q 46.921875 27.09375 42.890625 30.859375 
Q 38.875 34.625 31.78125 34.625 
z
M 21.921875 38.8125 
Q 15.578125 40.375 12.03125 44.71875 
Q 8.5 49.078125 8.5 55.328125 
Q 8.5 64.0625 14.71875 69.140625 
Q 20.953125 74.21875 31.78125 74.21875 
Q 42.671875 74.21875 48.875 69.140625 
Q 55.078125 64.0625 55.078125 55.328125 
Q 55.078125 49.078125 51.53125 44.71875 
Q 48 40.375 41.703125 38.8125 
Q 48.828125 37.15625 52.796875 32.3125 
Q 56.78125 27.484375 56.78125 20.515625 
Q 56.78125 9.90625 50.3125 4.234375 
Q 43.84375 -1.421875 31.78125 -1.421875 
Q 19.734375 -1.421875 13.25 4.234375 
Q 6.78125 9.90625 6.78125 20.515625 
Q 6.78125 27.484375 10.78125 32.3125 
Q 14.796875 37.15625 21.921875 38.8125 
z
M 18.3125 54.390625 
Q 18.3125 48.734375 21.84375 45.5625 
Q 25.390625 42.390625 31.78125 42.390625 
Q 38.140625 42.390625 41.71875 45.5625 
Q 45.3125 48.734375 45.3125 54.390625 
Q 45.3125 60.0625 41.71875 63.234375 
Q 38.140625 66.40625 31.78125 66.40625 
Q 25.390625 66.40625 21.84375 63.234375 
Q 18.3125 60.0625 18.3125 54.390625 
z
" id="DejaVuSans-56"/>
      </defs>
      <g transform="translate(25.557751 247.067203)scale(0.088 -0.088)">
       <use xlink:href="#DejaVuSans-49"/>
       <use x="63.623047" xlink:href="#DejaVuSans-56"/>
      </g>
     </g>
    </g>
    <g id="ytick_4">
     <g id="line2d_13">
      <g>
       <use style="stroke:#000000;" x="45.055751" xlink:href="#m066c2954cf" y="207.696768"/>
      </g>
     </g>
     <g id="text_7">
      <!-- 20 -->
      <defs>
       <path d="M 19.1875 8.296875 
L 53.609375 8.296875 
L 53.609375 0 
L 7.328125 0 
L 7.328125 8.296875 
Q 12.9375 14.109375 22.625 23.890625 
Q 32.328125 33.6875 34.8125 36.53125 
Q 39.546875 41.84375 41.421875 45.53125 
Q 43.3125 49.21875 43.3125 52.78125 
Q 43.3125 58.59375 39.234375 62.25 
Q 35.15625 65.921875 28.609375 65.921875 
Q 23.96875 65.921875 18.8125 64.3125 
Q 13.671875 62.703125 7.8125 59.421875 
L 7.8125 69.390625 
Q 13.765625 71.78125 18.9375 73 
Q 24.125 74.21875 28.421875 74.21875 
Q 39.75 74.21875 46.484375 68.546875 
Q 53.21875 62.890625 53.21875 53.421875 
Q 53.21875 48.921875 51.53125 44.890625 
Q 49.859375 40.875 45.40625 35.40625 
Q 44.1875 33.984375 37.640625 27.21875 
Q 31.109375 20.453125 19.1875 8.296875 
z
" id="DejaVuSans-50"/>
       <path d="M 31.78125 66.40625 
Q 24.171875 66.40625 20.328125 58.90625 
Q 16.5 51.421875 16.5 36.375 
Q 16.5 21.390625 20.328125 13.890625 
Q 24.171875 6.390625 31.78125 6.390625 
Q 39.453125 6.390625 43.28125 13.890625 
Q 47.125 21.390625 47.125 36.375 
Q 47.125 51.421875 43.28125 58.90625 
Q 39.453125 66.40625 31.78125 66.40625 
z
M 31.78125 74.21875 
Q 44.046875 74.21875 50.515625 64.515625 
Q 56.984375 54.828125 56.984375 36.375 
Q 56.984375 17.96875 50.515625 8.265625 
Q 44.046875 -1.421875 31.78125 -1.421875 
Q 19.53125 -1.421875 13.0625 8.265625 
Q 6.59375 17.96875 6.59375 36.375 
Q 6.59375 54.828125 13.0625 64.515625 
Q 19.53125 74.21875 31.78125 74.21875 
z
" id="DejaVuSans-48"/>
      </defs>
      <g transform="translate(25.557751 211.04008)scale(0.088 -0.088)">
       <use xlink:href="#DejaVuSans-50"/>
       <use x="63.623047" xlink:href="#DejaVuSans-48"/>
      </g>
     </g>
    </g>
    <g id="ytick_5">
     <g id="line2d_14">
      <g>
       <use style="stroke:#000000;" x="45.055751" xlink:href="#m066c2954cf" y="171.669645"/>
      </g>
     </g>
     <g id="text_8">
      <!-- 22 -->
      <g transform="translate(25.557751 175.012958)scale(0.088 -0.088)">
       <use xlink:href="#DejaVuSans-50"/>
       <use x="63.623047" xlink:href="#DejaVuSans-50"/>
      </g>
     </g>
    </g>
    <g id="ytick_6">
     <g id="line2d_15">
      <g>
       <use style="stroke:#000000;" x="45.055751" xlink:href="#m066c2954cf" y="135.642522"/>
      </g>
     </g>
     <g id="text_9">
      <!-- 24 -->
      <g transform="translate(25.557751 138.985835)scale(0.088 -0.088)">
       <use xlink:href="#DejaVuSans-50"/>
       <use x="63.623047" xlink:href="#DejaVuSans-52"/>
      </g>
     </g>
    </g>
    <g id="ytick_7">
     <g id="line2d_16">
      <g>
       <use style="stroke:#000000;" x="45.055751" xlink:href="#m066c2954cf" y="99.615399"/>
      </g>
     </g>
     <g id="text_10">
      <!-- 26 -->
      <g transform="translate(25.557751 102.958712)scale(0.088 -0.088)">
       <use xlink:href="#DejaVuSans-50"/>
       <use x="63.623047" xlink:href="#DejaVuSans-54"/>
      </g>
     </g>
    </g>
    <g id="ytick_8">
     <g id="line2d_17">
      <g>
       <use style="stroke:#000000;" x="45.055751" xlink:href="#m066c2954cf" y="63.588276"/>
      </g>
     </g>
     <g id="text_11">
      <!-- 28 -->
      <g transform="translate(25.557751 66.931589)scale(0.088 -0.088)">
       <use xlink:href="#DejaVuSans-50"/>
       <use x="63.623047" xlink:href="#DejaVuSans-56"/>
      </g>
     </g>
    </g>
    <g id="ytick_9">
     <g id="line2d_18">
      <g>
       <use style="stroke:#000000;" x="45.055751" xlink:href="#m066c2954cf" y="27.561153"/>
      </g>
     </g>
     <g id="text_12">
      <!-- 30 -->
      <defs>
       <path d="M 40.578125 39.3125 
Q 47.65625 37.796875 51.625 33 
Q 55.609375 28.21875 55.609375 21.1875 
Q 55.609375 10.40625 48.1875 4.484375 
Q 40.765625 -1.421875 27.09375 -1.421875 
Q 22.515625 -1.421875 17.65625 -0.515625 
Q 12.796875 0.390625 7.625 2.203125 
L 7.625 11.71875 
Q 11.71875 9.328125 16.59375 8.109375 
Q 21.484375 6.890625 26.8125 6.890625 
Q 36.078125 6.890625 40.9375 10.546875 
Q 45.796875 14.203125 45.796875 21.1875 
Q 45.796875 27.640625 41.28125 31.265625 
Q 36.765625 34.90625 28.71875 34.90625 
L 20.21875 34.90625 
L 20.21875 43.015625 
L 29.109375 43.015625 
Q 36.375 43.015625 40.234375 45.921875 
Q 44.09375 48.828125 44.09375 54.296875 
Q 44.09375 59.90625 40.109375 62.90625 
Q 36.140625 65.921875 28.71875 65.921875 
Q 24.65625 65.921875 20.015625 65.03125 
Q 15.375 64.15625 9.8125 62.3125 
L 9.8125 71.09375 
Q 15.4375 72.65625 20.34375 73.4375 
Q 25.25 74.21875 29.59375 74.21875 
Q 40.828125 74.21875 47.359375 69.109375 
Q 53.90625 64.015625 53.90625 55.328125 
Q 53.90625 49.265625 50.4375 45.09375 
Q 46.96875 40.921875 40.578125 39.3125 
z
" id="DejaVuSans-51"/>
      </defs>
      <g transform="translate(25.557751 30.904466)scale(0.088 -0.088)">
       <use xlink:href="#DejaVuSans-51"/>
       <use x="63.623047" xlink:href="#DejaVuSans-48"/>
      </g>
     </g>
    </g>
    <g id="text_13">
     <!-- # eclosing adults -->
     <defs>
      <path d="M 51.125 44 
L 36.921875 44 
L 32.8125 27.6875 
L 47.125 27.6875 
z
M 43.796875 71.78125 
L 38.71875 51.515625 
L 52.984375 51.515625 
L 58.109375 71.78125 
L 65.921875 71.78125 
L 60.890625 51.515625 
L 76.125 51.515625 
L 76.125 44 
L 58.984375 44 
L 54.984375 27.6875 
L 70.515625 27.6875 
L 70.515625 20.21875 
L 53.078125 20.21875 
L 48 0 
L 40.1875 0 
L 45.21875 20.21875 
L 30.90625 20.21875 
L 25.875 0 
L 18.015625 0 
L 23.09375 20.21875 
L 7.71875 20.21875 
L 7.71875 27.6875 
L 24.90625 27.6875 
L 29 44 
L 13.28125 44 
L 13.28125 51.515625 
L 30.90625 51.515625 
L 35.890625 71.78125 
z
" id="DejaVuSans-35"/>
      <path id="DejaVuSans-32"/>
      <path d="M 56.203125 29.59375 
L 56.203125 25.203125 
L 14.890625 25.203125 
Q 15.484375 15.921875 20.484375 11.0625 
Q 25.484375 6.203125 34.421875 6.203125 
Q 39.59375 6.203125 44.453125 7.46875 
Q 49.3125 8.734375 54.109375 11.28125 
L 54.109375 2.78125 
Q 49.265625 0.734375 44.1875 -0.34375 
Q 39.109375 -1.421875 33.890625 -1.421875 
Q 20.796875 -1.421875 13.15625 6.1875 
Q 5.515625 13.8125 5.515625 26.8125 
Q 5.515625 40.234375 12.765625 48.109375 
Q 20.015625 56 32.328125 56 
Q 43.359375 56 49.78125 48.890625 
Q 56.203125 41.796875 56.203125 29.59375 
z
M 47.21875 32.234375 
Q 47.125 39.59375 43.09375 43.984375 
Q 39.0625 48.390625 32.421875 48.390625 
Q 24.90625 48.390625 20.390625 44.140625 
Q 15.875 39.890625 15.1875 32.171875 
z
" id="DejaVuSans-101"/>
      <path d="M 48.78125 52.59375 
L 48.78125 44.1875 
Q 44.96875 46.296875 41.140625 47.34375 
Q 37.3125 48.390625 33.40625 48.390625 
Q 24.65625 48.390625 19.8125 42.84375 
Q 14.984375 37.3125 14.984375 27.296875 
Q 14.984375 17.28125 19.8125 11.734375 
Q 24.65625 6.203125 33.40625 6.203125 
Q 37.3125 6.203125 41.140625 7.25 
Q 44.96875 8.296875 48.78125 10.40625 
L 48.78125 2.09375 
Q 45.015625 0.34375 40.984375 -0.53125 
Q 36.96875 -1.421875 32.421875 -1.421875 
Q 20.0625 -1.421875 12.78125 6.34375 
Q 5.515625 14.109375 5.515625 27.296875 
Q 5.515625 40.671875 12.859375 48.328125 
Q 20.21875 56 33.015625 56 
Q 37.15625 56 41.109375 55.140625 
Q 45.0625 54.296875 48.78125 52.59375 
z
" id="DejaVuSans-99"/>
      <path d="M 9.421875 75.984375 
L 18.40625 75.984375 
L 18.40625 0 
L 9.421875 0 
z
" id="DejaVuSans-108"/>
      <path d="M 44.28125 53.078125 
L 44.28125 44.578125 
Q 40.484375 46.53125 36.375 47.5 
Q 32.28125 48.484375 27.875 48.484375 
Q 21.1875 48.484375 17.84375 46.4375 
Q 14.5 44.390625 14.5 40.28125 
Q 14.5 37.15625 16.890625 35.375 
Q 19.28125 33.59375 26.515625 31.984375 
L 29.59375 31.296875 
Q 39.15625 29.25 43.1875 25.515625 
Q 47.21875 21.78125 47.21875 15.09375 
Q 47.21875 7.46875 41.1875 3.015625 
Q 35.15625 -1.421875 24.609375 -1.421875 
Q 20.21875 -1.421875 15.453125 -0.5625 
Q 10.6875 0.296875 5.421875 2 
L 5.421875 11.28125 
Q 10.40625 8.6875 15.234375 7.390625 
Q 20.0625 6.109375 24.8125 6.109375 
Q 31.15625 6.109375 34.5625 8.28125 
Q 37.984375 10.453125 37.984375 14.40625 
Q 37.984375 18.0625 35.515625 20.015625 
Q 33.0625 21.96875 24.703125 23.78125 
L 21.578125 24.515625 
Q 13.234375 26.265625 9.515625 29.90625 
Q 5.8125 33.546875 5.8125 39.890625 
Q 5.8125 47.609375 11.28125 51.796875 
Q 16.75 56 26.8125 56 
Q 31.78125 56 36.171875 55.265625 
Q 40.578125 54.546875 44.28125 53.078125 
z
" id="DejaVuSans-115"/>
      <path d="M 9.421875 54.6875 
L 18.40625 54.6875 
L 18.40625 0 
L 9.421875 0 
z
M 9.421875 75.984375 
L 18.40625 75.984375 
L 18.40625 64.59375 
L 9.421875 64.59375 
z
" id="DejaVuSans-105"/>
      <path d="M 45.40625 27.984375 
Q 45.40625 37.75 41.375 43.109375 
Q 37.359375 48.484375 30.078125 48.484375 
Q 22.859375 48.484375 18.828125 43.109375 
Q 14.796875 37.75 14.796875 27.984375 
Q 14.796875 18.265625 18.828125 12.890625 
Q 22.859375 7.515625 30.078125 7.515625 
Q 37.359375 7.515625 41.375 12.890625 
Q 45.40625 18.265625 45.40625 27.984375 
z
M 54.390625 6.78125 
Q 54.390625 -7.171875 48.1875 -13.984375 
Q 42 -20.796875 29.203125 -20.796875 
Q 24.46875 -20.796875 20.265625 -20.09375 
Q 16.0625 -19.390625 12.109375 -17.921875 
L 12.109375 -9.1875 
Q 16.0625 -11.328125 19.921875 -12.34375 
Q 23.78125 -13.375 27.78125 -13.375 
Q 36.625 -13.375 41.015625 -8.765625 
Q 45.40625 -4.15625 45.40625 5.171875 
L 45.40625 9.625 
Q 42.625 4.78125 38.28125 2.390625 
Q 33.9375 0 27.875 0 
Q 17.828125 0 11.671875 7.65625 
Q 5.515625 15.328125 5.515625 27.984375 
Q 5.515625 40.671875 11.671875 48.328125 
Q 17.828125 56 27.875 56 
Q 33.9375 56 38.28125 53.609375 
Q 42.625 51.21875 45.40625 46.390625 
L 45.40625 54.6875 
L 54.390625 54.6875 
z
" id="DejaVuSans-103"/>
      <path d="M 34.28125 27.484375 
Q 23.390625 27.484375 19.1875 25 
Q 14.984375 22.515625 14.984375 16.5 
Q 14.984375 11.71875 18.140625 8.90625 
Q 21.296875 6.109375 26.703125 6.109375 
Q 34.1875 6.109375 38.703125 11.40625 
Q 43.21875 16.703125 43.21875 25.484375 
L 43.21875 27.484375 
z
M 52.203125 31.203125 
L 52.203125 0 
L 43.21875 0 
L 43.21875 8.296875 
Q 40.140625 3.328125 35.546875 0.953125 
Q 30.953125 -1.421875 24.3125 -1.421875 
Q 15.921875 -1.421875 10.953125 3.296875 
Q 6 8.015625 6 15.921875 
Q 6 25.140625 12.171875 29.828125 
Q 18.359375 34.515625 30.609375 34.515625 
L 43.21875 34.515625 
L 43.21875 35.40625 
Q 43.21875 41.609375 39.140625 45 
Q 35.0625 48.390625 27.6875 48.390625 
Q 23 48.390625 18.546875 47.265625 
Q 14.109375 46.140625 10.015625 43.890625 
L 10.015625 52.203125 
Q 14.9375 54.109375 19.578125 55.046875 
Q 24.21875 56 28.609375 56 
Q 40.484375 56 46.34375 49.84375 
Q 52.203125 43.703125 52.203125 31.203125 
z
" id="DejaVuSans-97"/>
      <path d="M 45.40625 46.390625 
L 45.40625 75.984375 
L 54.390625 75.984375 
L 54.390625 0 
L 45.40625 0 
L 45.40625 8.203125 
Q 42.578125 3.328125 38.25 0.953125 
Q 33.9375 -1.421875 27.875 -1.421875 
Q 17.96875 -1.421875 11.734375 6.484375 
Q 5.515625 14.40625 5.515625 27.296875 
Q 5.515625 40.1875 11.734375 48.09375 
Q 17.96875 56 27.875 56 
Q 33.9375 56 38.25 53.625 
Q 42.578125 51.265625 45.40625 46.390625 
z
M 14.796875 27.296875 
Q 14.796875 17.390625 18.875 11.75 
Q 22.953125 6.109375 30.078125 6.109375 
Q 37.203125 6.109375 41.296875 11.75 
Q 45.40625 17.390625 45.40625 27.296875 
Q 45.40625 37.203125 41.296875 42.84375 
Q 37.203125 48.484375 30.078125 48.484375 
Q 22.953125 48.484375 18.875 42.84375 
Q 14.796875 37.203125 14.796875 27.296875 
z
" id="DejaVuSans-100"/>
      <path d="M 8.5 21.578125 
L 8.5 54.6875 
L 17.484375 54.6875 
L 17.484375 21.921875 
Q 17.484375 14.15625 20.5 10.265625 
Q 23.53125 6.390625 29.59375 6.390625 
Q 36.859375 6.390625 41.078125 11.03125 
Q 45.3125 15.671875 45.3125 23.6875 
L 45.3125 54.6875 
L 54.296875 54.6875 
L 54.296875 0 
L 45.3125 0 
L 45.3125 8.40625 
Q 42.046875 3.421875 37.71875 1 
Q 33.40625 -1.421875 27.6875 -1.421875 
Q 18.265625 -1.421875 13.375 4.4375 
Q 8.5 10.296875 8.5 21.578125 
z
M 31.109375 56 
z
" id="DejaVuSans-117"/>
      <path d="M 18.3125 70.21875 
L 18.3125 54.6875 
L 36.8125 54.6875 
L 36.8125 47.703125 
L 18.3125 47.703125 
L 18.3125 18.015625 
Q 18.3125 11.328125 20.140625 9.421875 
Q 21.96875 7.515625 27.59375 7.515625 
L 36.8125 7.515625 
L 36.8125 0 
L 27.59375 0 
Q 17.1875 0 13.234375 3.875 
Q 9.28125 7.765625 9.28125 18.015625 
L 9.28125 47.703125 
L 2.6875 47.703125 
L 2.6875 54.6875 
L 9.28125 54.6875 
L 9.28125 70.21875 
z
" id="DejaVuSans-116"/>
     </defs>
     <g transform="translate(18.438219 236.359766)rotate(-90)scale(0.15 -0.15)">
      <use xlink:href="#DejaVuSans-35"/>
      <use x="83.789062" xlink:href="#DejaVuSans-32"/>
      <use x="115.576172" xlink:href="#DejaVuSans-101"/>
      <use x="177.099609" xlink:href="#DejaVuSans-99"/>
      <use x="232.080078" xlink:href="#DejaVuSans-108"/>
      <use x="259.863281" xlink:href="#DejaVuSans-111"/>
      <use x="321.044922" xlink:href="#DejaVuSans-115"/>
      <use x="373.144531" xlink:href="#DejaVuSans-105"/>
      <use x="400.927734" xlink:href="#DejaVuSans-110"/>
      <use x="464.306641" xlink:href="#DejaVuSans-103"/>
      <use x="527.783203" xlink:href="#DejaVuSans-32"/>
      <use x="559.570312" xlink:href="#DejaVuSans-97"/>
      <use x="620.849609" xlink:href="#DejaVuSans-100"/>
      <use x="684.326172" xlink:href="#DejaVuSans-117"/>
      <use x="747.705078" xlink:href="#DejaVuSans-108"/>
      <use x="775.488281" xlink:href="#DejaVuSans-116"/>
      <use x="814.697266" xlink:href="#DejaVuSans-115"/>
     </g>
    </g>
   </g>
   <g id="PathCollection_2">
    <defs>
     <path d="M 0 2.707159 
C 0.717947 2.707159 1.406585 2.421915 1.91425 1.91425 
C 2.421915 1.406585 2.707159 0.717947 2.707159 0 
C 2.707159 -0.717947 2.421915 -1.406585 1.91425 -1.91425 
C 1.406585 -2.421915 0.717947 -2.707159 0 -2.707159 
C -0.717947 -2.707159 -1.406585 -2.421915 -1.91425 -1.91425 
C -2.421915 -1.406585 -2.707159 -0.717947 -2.707159 0 
C -2.707159 0.717947 -2.421915 1.406585 -1.91425 1.91425 
C -1.406585 2.421915 -0.717947 2.707159 0 2.707159 
z
" id="m52fcb13da8" style="stroke:#ff7f0e;stroke-width:1.62;"/>
    </defs>
    <g clip-path="url(#pe02be7aacd)">
     <use style="fill:#ff7f0e;stroke:#ff7f0e;stroke-width:1.62;" x="125.702891" xlink:href="#m52fcb13da8" y="126.635741"/>
     <use style="fill:#ff7f0e;stroke:#ff7f0e;stroke-width:1.62;" x="292.559042" xlink:href="#m52fcb13da8" y="110.423536"/>
    </g>
   </g>
   <g id="line2d_19">
    <path clip-path="url(#pe02be7aacd)" d="M 125.702891 126.635741 
L 292.559042 110.423536 
" style="fill:none;stroke:#ff7f0e;stroke-linecap:square;stroke-width:2.16;"/>
   </g>
   <g id="line2d_20">
    <path clip-path="url(#pe02be7aacd)" d="M 125.702891 148.326942 
L 125.702891 104.944541 
" style="fill:none;stroke:#ff7f0e;stroke-linecap:square;stroke-width:2.16;"/>
   </g>
   <g id="line2d_21">
    <path clip-path="url(#pe02be7aacd)" d="M 117.360083 148.326942 
L 134.045698 148.326942 
" style="fill:none;stroke:#ff7f0e;stroke-linecap:square;stroke-width:2.16;"/>
   </g>
   <g id="line2d_22">
    <path clip-path="url(#pe02be7aacd)" d="M 117.360083 104.944541 
L 134.045698 104.944541 
" style="fill:none;stroke:#ff7f0e;stroke-linecap:square;stroke-width:2.16;"/>
   </g>
   <g id="line2d_23">
    <path clip-path="url(#pe02be7aacd)" d="M 292.559042 147.515729 
L 292.559042 73.331343 
" style="fill:none;stroke:#ff7f0e;stroke-linecap:square;stroke-width:2.16;"/>
   </g>
   <g id="line2d_24">
    <path clip-path="url(#pe02be7aacd)" d="M 284.216235 147.515729 
L 300.90185 147.515729 
" style="fill:none;stroke:#ff7f0e;stroke-linecap:square;stroke-width:2.16;"/>
   </g>
   <g id="line2d_25">
    <path clip-path="url(#pe02be7aacd)" d="M 284.216235 73.331343 
L 300.90185 73.331343 
" style="fill:none;stroke:#ff7f0e;stroke-linecap:square;stroke-width:2.16;"/>
   </g>
   <g id="patch_3">
    <path d="M 45.055751 318.332 
L 45.055751 24.368 
" style="fill:none;stroke:#000000;stroke-linecap:square;stroke-linejoin:miter;"/>
   </g>
   <g id="patch_4">
    <path d="M 45.055751 318.332 
L 378.768054 318.332 
" style="fill:none;stroke:#000000;stroke-linecap:square;stroke-linejoin:miter;"/>
   </g>
   <g id="PathCollection_3">
    <defs>
     <path d="M 0 2.707159 
C 0.717947 2.707159 1.406585 2.421915 1.91425 1.91425 
C 2.421915 1.406585 2.707159 0.717947 2.707159 0 
C 2.707159 -0.717947 2.421915 -1.406585 1.91425 -1.91425 
C 1.406585 -2.421915 0.717947 -2.707159 0 -2.707159 
C -0.717947 -2.707159 -1.406585 -2.421915 -1.91425 -1.91425 
C -2.421915 -1.406585 -2.707159 -0.717947 -2.707159 0 
C -2.707159 0.717947 -2.421915 1.406585 -1.91425 1.91425 
C -1.406585 2.421915 -0.717947 2.707159 0 2.707159 
z
" id="m701d36c5ea" style="stroke:#2ca02c;stroke-width:1.62;"/>
    </defs>
    <g clip-path="url(#pe02be7aacd)">
     <use style="fill:#2ca02c;stroke:#2ca02c;stroke-width:1.62;" x="131.264762" xlink:href="#m701d36c5ea" y="123.033029"/>
     <use style="fill:#2ca02c;stroke:#2ca02c;stroke-width:1.62;" x="298.120914" xlink:href="#m701d36c5ea" y="114.026248"/>
    </g>
   </g>
   <g id="line2d_26">
    <path clip-path="url(#pe02be7aacd)" d="M 131.264762 123.033029 
L 298.120914 114.026248 
" style="fill:none;stroke:#2ca02c;stroke-linecap:square;stroke-width:2.16;"/>
   </g>
   <g id="line2d_27">
    <path clip-path="url(#pe02be7aacd)" d="M 131.264762 162.539854 
L 131.264762 83.526204 
" style="fill:none;stroke:#2ca02c;stroke-linecap:square;stroke-width:2.16;"/>
   </g>
   <g id="line2d_28">
    <path clip-path="url(#pe02be7aacd)" d="M 122.921955 162.539854 
L 139.60757 162.539854 
" style="fill:none;stroke:#2ca02c;stroke-linecap:square;stroke-width:2.16;"/>
   </g>
   <g id="line2d_29">
    <path clip-path="url(#pe02be7aacd)" d="M 122.921955 83.526204 
L 139.60757 83.526204 
" style="fill:none;stroke:#2ca02c;stroke-linecap:square;stroke-width:2.16;"/>
   </g>
   <g id="line2d_30">
    <path clip-path="url(#pe02be7aacd)" d="M 298.120914 151.639669 
L 298.120914 76.412828 
" style="fill:none;stroke:#2ca02c;stroke-linecap:square;stroke-width:2.16;"/>
   </g>
   <g id="line2d_31">
    <path clip-path="url(#pe02be7aacd)" d="M 289.778106 151.639669 
L 306.463722 151.639669 
" style="fill:none;stroke:#2ca02c;stroke-linecap:square;stroke-width:2.16;"/>
   </g>
   <g id="line2d_32">
    <path clip-path="url(#pe02be7aacd)" d="M 289.778106 76.412828 
L 306.463722 76.412828 
" style="fill:none;stroke:#2ca02c;stroke-linecap:square;stroke-width:2.16;"/>
   </g>
   <g id="text_14">
    <!-- Diet = lowY -->
    <defs>
     <path d="M 19.671875 64.796875 
L 19.671875 8.109375 
L 31.59375 8.109375 
Q 46.6875 8.109375 53.6875 14.9375 
Q 60.6875 21.78125 60.6875 36.53125 
Q 60.6875 51.171875 53.6875 57.984375 
Q 46.6875 64.796875 31.59375 64.796875 
z
M 9.8125 72.90625 
L 30.078125 72.90625 
Q 51.265625 72.90625 61.171875 64.09375 
Q 71.09375 55.28125 71.09375 36.53125 
Q 71.09375 17.671875 61.125 8.828125 
Q 51.171875 0 30.078125 0 
L 9.8125 0 
z
" id="DejaVuSans-68"/>
     <path d="M 10.59375 45.40625 
L 73.1875 45.40625 
L 73.1875 37.203125 
L 10.59375 37.203125 
z
M 10.59375 25.484375 
L 73.1875 25.484375 
L 73.1875 17.1875 
L 10.59375 17.1875 
z
" id="DejaVuSans-61"/>
     <path d="M 4.203125 54.6875 
L 13.1875 54.6875 
L 24.421875 12.015625 
L 35.59375 54.6875 
L 46.1875 54.6875 
L 57.421875 12.015625 
L 68.609375 54.6875 
L 77.59375 54.6875 
L 63.28125 0 
L 52.6875 0 
L 40.921875 44.828125 
L 29.109375 0 
L 18.5 0 
z
" id="DejaVuSans-119"/>
     <path d="M -0.203125 72.90625 
L 10.40625 72.90625 
L 30.609375 42.921875 
L 50.6875 72.90625 
L 61.28125 72.90625 
L 35.5 34.71875 
L 35.5 0 
L 25.59375 0 
L 25.59375 34.71875 
z
" id="DejaVuSans-89"/>
    </defs>
    <g transform="translate(183.846152 18.368)scale(0.096 -0.096)">
     <use xlink:href="#DejaVuSans-68"/>
     <use x="77.001953" xlink:href="#DejaVuSans-105"/>
     <use x="104.785156" xlink:href="#DejaVuSans-101"/>
     <use x="166.308594" xlink:href="#DejaVuSans-116"/>
     <use x="205.517578" xlink:href="#DejaVuSans-32"/>
     <use x="237.304688" xlink:href="#DejaVuSans-61"/>
     <use x="321.09375" xlink:href="#DejaVuSans-32"/>
     <use x="352.880859" xlink:href="#DejaVuSans-108"/>
     <use x="380.664062" xlink:href="#DejaVuSans-111"/>
     <use x="441.845703" xlink:href="#DejaVuSans-119"/>
     <use x="523.632812" xlink:href="#DejaVuSans-89"/>
    </g>
   </g>
   <g id="PathCollection_4">
    <defs>
     <path d="M 0 2.707159 
C 0.717947 2.707159 1.406585 2.421915 1.91425 1.91425 
C 2.421915 1.406585 2.707159 0.717947 2.707159 0 
C 2.707159 -0.717947 2.421915 -1.406585 1.91425 -1.91425 
C 1.406585 -2.421915 0.717947 -2.707159 0 -2.707159 
C -0.717947 -2.707159 -1.406585 -2.421915 -1.91425 -1.91425 
C -2.421915 -1.406585 -2.707159 -0.717947 -2.707159 0 
C -2.707159 0.717947 -2.421915 1.406585 -1.91425 1.91425 
C -1.406585 2.421915 -0.717947 2.707159 0 2.707159 
z
" id="m816c036f5b" style="stroke:#d62728;stroke-width:1.62;"/>
    </defs>
    <g clip-path="url(#pe02be7aacd)">
     <use style="fill:#d62728;stroke:#d62728;stroke-width:1.62;" x="136.826634" xlink:href="#m816c036f5b" y="108.62218"/>
     <use style="fill:#d62728;stroke:#d62728;stroke-width:1.62;" x="303.682786" xlink:href="#m816c036f5b" y="90.608618"/>
    </g>
   </g>
   <g id="line2d_33">
    <path clip-path="url(#pe02be7aacd)" d="M 136.826634 108.62218 
L 303.682786 90.608618 
" style="fill:none;stroke:#d62728;stroke-linecap:square;stroke-width:2.16;"/>
   </g>
   <g id="line2d_34">
    <path clip-path="url(#pe02be7aacd)" d="M 136.826634 146.621829 
L 136.826634 70.62253 
" style="fill:none;stroke:#d62728;stroke-linecap:square;stroke-width:2.16;"/>
   </g>
   <g id="line2d_35">
    <path clip-path="url(#pe02be7aacd)" d="M 128.483827 146.621829 
L 145.169442 146.621829 
" style="fill:none;stroke:#d62728;stroke-linecap:square;stroke-width:2.16;"/>
   </g>
   <g id="line2d_36">
    <path clip-path="url(#pe02be7aacd)" d="M 128.483827 70.62253 
L 145.169442 70.62253 
" style="fill:none;stroke:#d62728;stroke-linecap:square;stroke-width:2.16;"/>
   </g>
   <g id="line2d_37">
    <path clip-path="url(#pe02be7aacd)" d="M 303.682786 138.437932 
L 303.682786 42.779305 
" style="fill:none;stroke:#d62728;stroke-linecap:square;stroke-width:2.16;"/>
   </g>
   <g id="line2d_38">
    <path clip-path="url(#pe02be7aacd)" d="M 295.339978 138.437932 
L 312.025593 138.437932 
" style="fill:none;stroke:#d62728;stroke-linecap:square;stroke-width:2.16;"/>
   </g>
   <g id="line2d_39">
    <path clip-path="url(#pe02be7aacd)" d="M 295.339978 42.779305 
L 312.025593 42.779305 
" style="fill:none;stroke:#d62728;stroke-linecap:square;stroke-width:2.16;"/>
   </g>
  </g>
  <g id="axes_2">
   <g id="patch_5">
    <path d="M 393.875383 318.332 
L 727.587686 318.332 
L 727.587686 24.368 
L 393.875383 24.368 
z
" style="fill:#ffffff;"/>
   </g>
   <g id="PathCollection_5">
    <g clip-path="url(#p54c27741e1)">
     <use style="fill:#1f77b4;stroke:#1f77b4;stroke-width:1.62;" x="468.960651" xlink:href="#m126dcfc7be" y="119.430317"/>
     <use style="fill:#1f77b4;stroke:#1f77b4;stroke-width:1.62;" x="635.816803" xlink:href="#m126dcfc7be" y="141.046591"/>
    </g>
   </g>
   <g id="line2d_40">
    <path clip-path="url(#p54c27741e1)" d="M 468.960651 119.430317 
L 635.816803 141.046591 
" style="fill:none;stroke:#1f77b4;stroke-linecap:square;stroke-width:2.16;"/>
   </g>
   <g id="line2d_41">
    <path clip-path="url(#p54c27741e1)" d="M 468.960651 147.855237 
L 468.960651 91.005396 
" style="fill:none;stroke:#1f77b4;stroke-linecap:square;stroke-width:2.16;"/>
   </g>
   <g id="line2d_42">
    <path clip-path="url(#p54c27741e1)" d="M 460.617843 147.855237 
L 477.303459 147.855237 
" style="fill:none;stroke:#1f77b4;stroke-linecap:square;stroke-width:2.16;"/>
   </g>
   <g id="line2d_43">
    <path clip-path="url(#p54c27741e1)" d="M 460.617843 91.005396 
L 477.303459 91.005396 
" style="fill:none;stroke:#1f77b4;stroke-linecap:square;stroke-width:2.16;"/>
   </g>
   <g id="line2d_44">
    <path clip-path="url(#p54c27741e1)" d="M 635.816803 195.117289 
L 635.816803 86.975892 
" style="fill:none;stroke:#1f77b4;stroke-linecap:square;stroke-width:2.16;"/>
   </g>
   <g id="line2d_45">
    <path clip-path="url(#p54c27741e1)" d="M 627.473995 195.117289 
L 644.15961 195.117289 
" style="fill:none;stroke:#1f77b4;stroke-linecap:square;stroke-width:2.16;"/>
   </g>
   <g id="line2d_46">
    <path clip-path="url(#p54c27741e1)" d="M 627.473995 86.975892 
L 644.15961 86.975892 
" style="fill:none;stroke:#1f77b4;stroke-linecap:square;stroke-width:2.16;"/>
   </g>
   <g id="matplotlib.axis_3">
    <g id="xtick_3">
     <g id="line2d_47">
      <g>
       <use style="stroke:#000000;" x="477.303459" xlink:href="#md4d7efc7e3" y="318.332"/>
      </g>
     </g>
     <g id="text_15">
      <!-- MC -->
      <g transform="translate(470.434646 333.318625)scale(0.088 -0.088)">
       <use xlink:href="#DejaVuSans-77"/>
       <use x="86.279297" xlink:href="#DejaVuSans-67"/>
      </g>
     </g>
    </g>
    <g id="xtick_4">
     <g id="line2d_48">
      <g>
       <use style="stroke:#000000;" x="644.15961" xlink:href="#md4d7efc7e3" y="318.332"/>
      </g>
     </g>
     <g id="text_16">
      <!-- VBC -->
      <g transform="translate(635.135485 333.318625)scale(0.088 -0.088)">
       <use xlink:href="#DejaVuSans-86"/>
       <use x="68.408203" xlink:href="#DejaVuSans-66"/>
       <use x="135.261719" xlink:href="#DejaVuSans-67"/>
      </g>
     </g>
    </g>
    <g id="text_17">
     <!-- Popn -->
     <g transform="translate(548.985034 346.44325)scale(0.096 -0.096)">
      <use xlink:href="#DejaVuSans-80"/>
      <use x="56.677734" xlink:href="#DejaVuSans-111"/>
      <use x="117.859375" xlink:href="#DejaVuSans-112"/>
      <use x="181.335938" xlink:href="#DejaVuSans-110"/>
     </g>
    </g>
   </g>
   <g id="matplotlib.axis_4">
    <g id="ytick_10">
     <g id="line2d_49">
      <g>
       <use style="stroke:#000000;" x="393.875383" xlink:href="#m066c2954cf" y="315.778137"/>
      </g>
     </g>
    </g>
    <g id="ytick_11">
     <g id="line2d_50">
      <g>
       <use style="stroke:#000000;" x="393.875383" xlink:href="#m066c2954cf" y="279.751014"/>
      </g>
     </g>
    </g>
    <g id="ytick_12">
     <g id="line2d_51">
      <g>
       <use style="stroke:#000000;" x="393.875383" xlink:href="#m066c2954cf" y="243.723891"/>
      </g>
     </g>
    </g>
    <g id="ytick_13">
     <g id="line2d_52">
      <g>
       <use style="stroke:#000000;" x="393.875383" xlink:href="#m066c2954cf" y="207.696768"/>
      </g>
     </g>
    </g>
    <g id="ytick_14">
     <g id="line2d_53">
      <g>
       <use style="stroke:#000000;" x="393.875383" xlink:href="#m066c2954cf" y="171.669645"/>
      </g>
     </g>
    </g>
    <g id="ytick_15">
     <g id="line2d_54">
      <g>
       <use style="stroke:#000000;" x="393.875383" xlink:href="#m066c2954cf" y="135.642522"/>
      </g>
     </g>
    </g>
    <g id="ytick_16">
     <g id="line2d_55">
      <g>
       <use style="stroke:#000000;" x="393.875383" xlink:href="#m066c2954cf" y="99.615399"/>
      </g>
     </g>
    </g>
    <g id="ytick_17">
     <g id="line2d_56">
      <g>
       <use style="stroke:#000000;" x="393.875383" xlink:href="#m066c2954cf" y="63.588276"/>
      </g>
     </g>
    </g>
    <g id="ytick_18">
     <g id="line2d_57">
      <g>
       <use style="stroke:#000000;" x="393.875383" xlink:href="#m066c2954cf" y="27.561153"/>
      </g>
     </g>
    </g>
   </g>
   <g id="PathCollection_6">
    <g clip-path="url(#p54c27741e1)">
     <use style="fill:#ff7f0e;stroke:#ff7f0e;stroke-width:1.62;" x="474.522523" xlink:href="#m52fcb13da8" y="101.416755"/>
     <use style="fill:#ff7f0e;stroke:#ff7f0e;stroke-width:1.62;" x="641.378674" xlink:href="#m52fcb13da8" y="101.416755"/>
    </g>
   </g>
   <g id="line2d_58">
    <path clip-path="url(#p54c27741e1)" d="M 474.522523 101.416755 
L 641.378674 101.416755 
" style="fill:none;stroke:#ff7f0e;stroke-linecap:square;stroke-width:2.16;"/>
   </g>
   <g id="line2d_59">
    <path clip-path="url(#p54c27741e1)" d="M 474.522523 135.068865 
L 474.522523 67.764645 
" style="fill:none;stroke:#ff7f0e;stroke-linecap:square;stroke-width:2.16;"/>
   </g>
   <g id="line2d_60">
    <path clip-path="url(#p54c27741e1)" d="M 466.179715 135.068865 
L 482.86533 135.068865 
" style="fill:none;stroke:#ff7f0e;stroke-linecap:square;stroke-width:2.16;"/>
   </g>
   <g id="line2d_61">
    <path clip-path="url(#p54c27741e1)" d="M 466.179715 67.764645 
L 482.86533 67.764645 
" style="fill:none;stroke:#ff7f0e;stroke-linecap:square;stroke-width:2.16;"/>
   </g>
   <g id="line2d_62">
    <path clip-path="url(#p54c27741e1)" d="M 641.378674 130.961193 
L 641.378674 71.872318 
" style="fill:none;stroke:#ff7f0e;stroke-linecap:square;stroke-width:2.16;"/>
   </g>
   <g id="line2d_63">
    <path clip-path="url(#p54c27741e1)" d="M 633.035867 130.961193 
L 649.721482 130.961193 
" style="fill:none;stroke:#ff7f0e;stroke-linecap:square;stroke-width:2.16;"/>
   </g>
   <g id="line2d_64">
    <path clip-path="url(#p54c27741e1)" d="M 633.035867 71.872318 
L 649.721482 71.872318 
" style="fill:none;stroke:#ff7f0e;stroke-linecap:square;stroke-width:2.16;"/>
   </g>
   <g id="patch_6">
    <path d="M 393.875383 318.332 
L 393.875383 24.368 
" style="fill:none;stroke:#000000;stroke-linecap:square;stroke-linejoin:miter;"/>
   </g>
   <g id="patch_7">
    <path d="M 393.875383 318.332 
L 727.587686 318.332 
" style="fill:none;stroke:#000000;stroke-linecap:square;stroke-linejoin:miter;"/>
   </g>
   <g id="PathCollection_7">
    <g clip-path="url(#p54c27741e1)">
     <use style="fill:#2ca02c;stroke:#2ca02c;stroke-width:1.62;" x="480.084394" xlink:href="#m701d36c5ea" y="153.656084"/>
     <use style="fill:#2ca02c;stroke:#2ca02c;stroke-width:1.62;" x="646.940546" xlink:href="#m701d36c5ea" y="121.231673"/>
    </g>
   </g>
   <g id="line2d_65">
    <path clip-path="url(#p54c27741e1)" d="M 480.084394 153.656084 
L 646.940546 121.231673 
" style="fill:none;stroke:#2ca02c;stroke-linecap:square;stroke-width:2.16;"/>
   </g>
   <g id="line2d_66">
    <path clip-path="url(#p54c27741e1)" d="M 480.084394 186.87145 
L 480.084394 120.440717 
" style="fill:none;stroke:#2ca02c;stroke-linecap:square;stroke-width:2.16;"/>
   </g>
   <g id="line2d_67">
    <path clip-path="url(#p54c27741e1)" d="M 471.741587 186.87145 
L 488.427202 186.87145 
" style="fill:none;stroke:#2ca02c;stroke-linecap:square;stroke-width:2.16;"/>
   </g>
   <g id="line2d_68">
    <path clip-path="url(#p54c27741e1)" d="M 471.741587 120.440717 
L 488.427202 120.440717 
" style="fill:none;stroke:#2ca02c;stroke-linecap:square;stroke-width:2.16;"/>
   </g>
   <g id="line2d_69">
    <path clip-path="url(#p54c27741e1)" d="M 646.940546 165.940157 
L 646.940546 76.523189 
" style="fill:none;stroke:#2ca02c;stroke-linecap:square;stroke-width:2.16;"/>
   </g>
   <g id="line2d_70">
    <path clip-path="url(#p54c27741e1)" d="M 638.597738 165.940157 
L 655.283354 165.940157 
" style="fill:none;stroke:#2ca02c;stroke-linecap:square;stroke-width:2.16;"/>
   </g>
   <g id="line2d_71">
    <path clip-path="url(#p54c27741e1)" d="M 638.597738 76.523189 
L 655.283354 76.523189 
" style="fill:none;stroke:#2ca02c;stroke-linecap:square;stroke-width:2.16;"/>
   </g>
   <g id="text_18">
    <!-- Diet = eqY -->
    <defs>
     <path d="M 14.796875 27.296875 
Q 14.796875 17.390625 18.875 11.75 
Q 22.953125 6.109375 30.078125 6.109375 
Q 37.203125 6.109375 41.296875 11.75 
Q 45.40625 17.390625 45.40625 27.296875 
Q 45.40625 37.203125 41.296875 42.84375 
Q 37.203125 48.484375 30.078125 48.484375 
Q 22.953125 48.484375 18.875 42.84375 
Q 14.796875 37.203125 14.796875 27.296875 
z
M 45.40625 8.203125 
Q 42.578125 3.328125 38.25 0.953125 
Q 33.9375 -1.421875 27.875 -1.421875 
Q 17.96875 -1.421875 11.734375 6.484375 
Q 5.515625 14.40625 5.515625 27.296875 
Q 5.515625 40.1875 11.734375 48.09375 
Q 17.96875 56 27.875 56 
Q 33.9375 56 38.25 53.625 
Q 42.578125 51.265625 45.40625 46.390625 
L 45.40625 54.6875 
L 54.390625 54.6875 
L 54.390625 -20.796875 
L 45.40625 -20.796875 
z
" id="DejaVuSans-113"/>
    </defs>
    <g transform="translate(534.861034 18.368)scale(0.096 -0.096)">
     <use xlink:href="#DejaVuSans-68"/>
     <use x="77.001953" xlink:href="#DejaVuSans-105"/>
     <use x="104.785156" xlink:href="#DejaVuSans-101"/>
     <use x="166.308594" xlink:href="#DejaVuSans-116"/>
     <use x="205.517578" xlink:href="#DejaVuSans-32"/>
     <use x="237.304688" xlink:href="#DejaVuSans-61"/>
     <use x="321.09375" xlink:href="#DejaVuSans-32"/>
     <use x="352.880859" xlink:href="#DejaVuSans-101"/>
     <use x="414.404297" xlink:href="#DejaVuSans-113"/>
     <use x="477.880859" xlink:href="#DejaVuSans-89"/>
    </g>
   </g>
   <g id="PathCollection_8">
    <g clip-path="url(#p54c27741e1)">
     <use style="fill:#d62728;stroke:#d62728;stroke-width:1.62;" x="485.646266" xlink:href="#m816c036f5b" y="249.127959"/>
     <use style="fill:#d62728;stroke:#d62728;stroke-width:1.62;" x="652.502418" xlink:href="#m816c036f5b" y="99.615399"/>
    </g>
   </g>
   <g id="line2d_72">
    <path clip-path="url(#p54c27741e1)" d="M 485.646266 249.127959 
L 652.502418 99.615399 
" style="fill:none;stroke:#d62728;stroke-linecap:square;stroke-width:2.16;"/>
   </g>
   <g id="line2d_73">
    <path clip-path="url(#p54c27741e1)" d="M 485.646266 304.97 
L 485.646266 193.285919 
" style="fill:none;stroke:#d62728;stroke-linecap:square;stroke-width:2.16;"/>
   </g>
   <g id="line2d_74">
    <path clip-path="url(#p54c27741e1)" d="M 477.303459 304.97 
L 493.989074 304.97 
" style="fill:none;stroke:#d62728;stroke-linecap:square;stroke-width:2.16;"/>
   </g>
   <g id="line2d_75">
    <path clip-path="url(#p54c27741e1)" d="M 477.303459 193.285919 
L 493.989074 193.285919 
" style="fill:none;stroke:#d62728;stroke-linecap:square;stroke-width:2.16;"/>
   </g>
   <g id="line2d_76">
    <path clip-path="url(#p54c27741e1)" d="M 652.502418 133.793729 
L 652.502418 65.437069 
" style="fill:none;stroke:#d62728;stroke-linecap:square;stroke-width:2.16;"/>
   </g>
   <g id="line2d_77">
    <path clip-path="url(#p54c27741e1)" d="M 644.15961 133.793729 
L 660.845225 133.793729 
" style="fill:none;stroke:#d62728;stroke-linecap:square;stroke-width:2.16;"/>
   </g>
   <g id="line2d_78">
    <path clip-path="url(#p54c27741e1)" d="M 644.15961 65.437069 
L 660.845225 65.437069 
" style="fill:none;stroke:#d62728;stroke-linecap:square;stroke-width:2.16;"/>
   </g>
  </g>
  <g id="axes_3">
   <g id="patch_8">
    <path d="M 742.695015 318.332 
L 1076.407318 318.332 
L 1076.407318 24.368 
L 742.695015 24.368 
z
" style="fill:#ffffff;"/>
   </g>
   <g id="PathCollection_9">
    <g clip-path="url(#pb1b0dedd6d)">
     <use style="fill:#1f77b4;stroke:#1f77b4;stroke-width:1.62;" x="817.780283" xlink:href="#m126dcfc7be" y="101.616906"/>
     <use style="fill:#1f77b4;stroke:#1f77b4;stroke-width:1.62;" x="984.636435" xlink:href="#m126dcfc7be" y="126.635741"/>
    </g>
   </g>
   <g id="line2d_79">
    <path clip-path="url(#pb1b0dedd6d)" d="M 817.780283 101.616906 
L 984.636435 126.635741 
" style="fill:none;stroke:#1f77b4;stroke-linecap:square;stroke-width:2.16;"/>
   </g>
   <g id="line2d_80">
    <path clip-path="url(#pb1b0dedd6d)" d="M 817.780283 129.060185 
L 817.780283 74.173627 
" style="fill:none;stroke:#1f77b4;stroke-linecap:square;stroke-width:2.16;"/>
   </g>
   <g id="line2d_81">
    <path clip-path="url(#pb1b0dedd6d)" d="M 809.437475 129.060185 
L 826.12309 129.060185 
" style="fill:none;stroke:#1f77b4;stroke-linecap:square;stroke-width:2.16;"/>
   </g>
   <g id="line2d_82">
    <path clip-path="url(#pb1b0dedd6d)" d="M 809.437475 74.173627 
L 826.12309 74.173627 
" style="fill:none;stroke:#1f77b4;stroke-linecap:square;stroke-width:2.16;"/>
   </g>
   <g id="line2d_83">
    <path clip-path="url(#pb1b0dedd6d)" d="M 984.636435 155.959695 
L 984.636435 97.311788 
" style="fill:none;stroke:#1f77b4;stroke-linecap:square;stroke-width:2.16;"/>
   </g>
   <g id="line2d_84">
    <path clip-path="url(#pb1b0dedd6d)" d="M 976.293627 155.959695 
L 992.979242 155.959695 
" style="fill:none;stroke:#1f77b4;stroke-linecap:square;stroke-width:2.16;"/>
   </g>
   <g id="line2d_85">
    <path clip-path="url(#pb1b0dedd6d)" d="M 976.293627 97.311788 
L 992.979242 97.311788 
" style="fill:none;stroke:#1f77b4;stroke-linecap:square;stroke-width:2.16;"/>
   </g>
   <g id="matplotlib.axis_5">
    <g id="xtick_5">
     <g id="line2d_86">
      <g>
       <use style="stroke:#000000;" x="826.12309" xlink:href="#md4d7efc7e3" y="318.332"/>
      </g>
     </g>
     <g id="text_19">
      <!-- MC -->
      <g transform="translate(819.254278 333.318625)scale(0.088 -0.088)">
       <use xlink:href="#DejaVuSans-77"/>
       <use x="86.279297" xlink:href="#DejaVuSans-67"/>
      </g>
     </g>
    </g>
    <g id="xtick_6">
     <g id="line2d_87">
      <g>
       <use style="stroke:#000000;" x="992.979242" xlink:href="#md4d7efc7e3" y="318.332"/>
      </g>
     </g>
     <g id="text_20">
      <!-- VBC -->
      <g transform="translate(983.955117 333.318625)scale(0.088 -0.088)">
       <use xlink:href="#DejaVuSans-86"/>
       <use x="68.408203" xlink:href="#DejaVuSans-66"/>
       <use x="135.261719" xlink:href="#DejaVuSans-67"/>
      </g>
     </g>
    </g>
    <g id="text_21">
     <!-- Popn -->
     <g transform="translate(897.804666 346.44325)scale(0.096 -0.096)">
      <use xlink:href="#DejaVuSans-80"/>
      <use x="56.677734" xlink:href="#DejaVuSans-111"/>
      <use x="117.859375" xlink:href="#DejaVuSans-112"/>
      <use x="181.335938" xlink:href="#DejaVuSans-110"/>
     </g>
    </g>
   </g>
   <g id="matplotlib.axis_6">
    <g id="ytick_19">
     <g id="line2d_88">
      <g>
       <use style="stroke:#000000;" x="742.695015" xlink:href="#m066c2954cf" y="315.778137"/>
      </g>
     </g>
    </g>
    <g id="ytick_20">
     <g id="line2d_89">
      <g>
       <use style="stroke:#000000;" x="742.695015" xlink:href="#m066c2954cf" y="279.751014"/>
      </g>
     </g>
    </g>
    <g id="ytick_21">
     <g id="line2d_90">
      <g>
       <use style="stroke:#000000;" x="742.695015" xlink:href="#m066c2954cf" y="243.723891"/>
      </g>
     </g>
    </g>
    <g id="ytick_22">
     <g id="line2d_91">
      <g>
       <use style="stroke:#000000;" x="742.695015" xlink:href="#m066c2954cf" y="207.696768"/>
      </g>
     </g>
    </g>
    <g id="ytick_23">
     <g id="line2d_92">
      <g>
       <use style="stroke:#000000;" x="742.695015" xlink:href="#m066c2954cf" y="171.669645"/>
      </g>
     </g>
    </g>
    <g id="ytick_24">
     <g id="line2d_93">
      <g>
       <use style="stroke:#000000;" x="742.695015" xlink:href="#m066c2954cf" y="135.642522"/>
      </g>
     </g>
    </g>
    <g id="ytick_25">
     <g id="line2d_94">
      <g>
       <use style="stroke:#000000;" x="742.695015" xlink:href="#m066c2954cf" y="99.615399"/>
      </g>
     </g>
    </g>
    <g id="ytick_26">
     <g id="line2d_95">
      <g>
       <use style="stroke:#000000;" x="742.695015" xlink:href="#m066c2954cf" y="63.588276"/>
      </g>
     </g>
    </g>
    <g id="ytick_27">
     <g id="line2d_96">
      <g>
       <use style="stroke:#000000;" x="742.695015" xlink:href="#m066c2954cf" y="27.561153"/>
      </g>
     </g>
    </g>
   </g>
   <g id="PathCollection_10">
    <g clip-path="url(#pb1b0dedd6d)">
     <use style="fill:#ff7f0e;stroke:#ff7f0e;stroke-width:1.62;" x="823.342155" xlink:href="#m52fcb13da8" y="106.820824"/>
     <use style="fill:#ff7f0e;stroke:#ff7f0e;stroke-width:1.62;" x="990.198306" xlink:href="#m52fcb13da8" y="123.033029"/>
    </g>
   </g>
   <g id="line2d_97">
    <path clip-path="url(#pb1b0dedd6d)" d="M 823.342155 106.820824 
L 990.198306 123.033029 
" style="fill:none;stroke:#ff7f0e;stroke-linecap:square;stroke-width:2.16;"/>
   </g>
   <g id="line2d_98">
    <path clip-path="url(#pb1b0dedd6d)" d="M 823.342155 150.352562 
L 823.342155 63.289085 
" style="fill:none;stroke:#ff7f0e;stroke-linecap:square;stroke-width:2.16;"/>
   </g>
   <g id="line2d_99">
    <path clip-path="url(#pb1b0dedd6d)" d="M 814.999347 150.352562 
L 831.684962 150.352562 
" style="fill:none;stroke:#ff7f0e;stroke-linecap:square;stroke-width:2.16;"/>
   </g>
   <g id="line2d_100">
    <path clip-path="url(#pb1b0dedd6d)" d="M 814.999347 63.289085 
L 831.684962 63.289085 
" style="fill:none;stroke:#ff7f0e;stroke-linecap:square;stroke-width:2.16;"/>
   </g>
   <g id="line2d_101">
    <path clip-path="url(#pb1b0dedd6d)" d="M 990.198306 165.698939 
L 990.198306 80.367119 
" style="fill:none;stroke:#ff7f0e;stroke-linecap:square;stroke-width:2.16;"/>
   </g>
   <g id="line2d_102">
    <path clip-path="url(#pb1b0dedd6d)" d="M 981.855499 165.698939 
L 998.541114 165.698939 
" style="fill:none;stroke:#ff7f0e;stroke-linecap:square;stroke-width:2.16;"/>
   </g>
   <g id="line2d_103">
    <path clip-path="url(#pb1b0dedd6d)" d="M 981.855499 80.367119 
L 998.541114 80.367119 
" style="fill:none;stroke:#ff7f0e;stroke-linecap:square;stroke-width:2.16;"/>
   </g>
   <g id="patch_9">
    <path d="M 742.695015 318.332 
L 742.695015 24.368 
" style="fill:none;stroke:#000000;stroke-linecap:square;stroke-linejoin:miter;"/>
   </g>
   <g id="patch_10">
    <path d="M 742.695015 318.332 
L 1076.407318 318.332 
" style="fill:none;stroke:#000000;stroke-linecap:square;stroke-linejoin:miter;"/>
   </g>
   <g id="PathCollection_11">
    <g clip-path="url(#pb1b0dedd6d)">
     <use style="fill:#2ca02c;stroke:#2ca02c;stroke-width:1.62;" x="828.904026" xlink:href="#m701d36c5ea" y="103.218111"/>
     <use style="fill:#2ca02c;stroke:#2ca02c;stroke-width:1.62;" x="995.760178" xlink:href="#m701d36c5ea" y="117.628961"/>
    </g>
   </g>
   <g id="line2d_104">
    <path clip-path="url(#pb1b0dedd6d)" d="M 828.904026 103.218111 
L 995.760178 117.628961 
" style="fill:none;stroke:#2ca02c;stroke-linecap:square;stroke-width:2.16;"/>
   </g>
   <g id="line2d_105">
    <path clip-path="url(#pb1b0dedd6d)" d="M 828.904026 124.225353 
L 828.904026 82.210869 
" style="fill:none;stroke:#2ca02c;stroke-linecap:square;stroke-width:2.16;"/>
   </g>
   <g id="line2d_106">
    <path clip-path="url(#pb1b0dedd6d)" d="M 820.561219 124.225353 
L 837.246834 124.225353 
" style="fill:none;stroke:#2ca02c;stroke-linecap:square;stroke-width:2.16;"/>
   </g>
   <g id="line2d_107">
    <path clip-path="url(#pb1b0dedd6d)" d="M 820.561219 82.210869 
L 837.246834 82.210869 
" style="fill:none;stroke:#2ca02c;stroke-linecap:square;stroke-width:2.16;"/>
   </g>
   <g id="line2d_108">
    <path clip-path="url(#pb1b0dedd6d)" d="M 995.760178 153.656084 
L 995.760178 81.601838 
" style="fill:none;stroke:#2ca02c;stroke-linecap:square;stroke-width:2.16;"/>
   </g>
   <g id="line2d_109">
    <path clip-path="url(#pb1b0dedd6d)" d="M 987.41737 153.656084 
L 1004.102986 153.656084 
" style="fill:none;stroke:#2ca02c;stroke-linecap:square;stroke-width:2.16;"/>
   </g>
   <g id="line2d_110">
    <path clip-path="url(#pb1b0dedd6d)" d="M 987.41737 81.601838 
L 1004.102986 81.601838 
" style="fill:none;stroke:#2ca02c;stroke-linecap:square;stroke-width:2.16;"/>
   </g>
   <g id="text_22">
    <!-- Diet = highY -->
    <defs>
     <path d="M 54.890625 33.015625 
L 54.890625 0 
L 45.90625 0 
L 45.90625 32.71875 
Q 45.90625 40.484375 42.875 44.328125 
Q 39.84375 48.1875 33.796875 48.1875 
Q 26.515625 48.1875 22.3125 43.546875 
Q 18.109375 38.921875 18.109375 30.90625 
L 18.109375 0 
L 9.078125 0 
L 9.078125 75.984375 
L 18.109375 75.984375 
L 18.109375 46.1875 
Q 21.34375 51.125 25.703125 53.5625 
Q 30.078125 56 35.796875 56 
Q 45.21875 56 50.046875 50.171875 
Q 54.890625 44.34375 54.890625 33.015625 
z
" id="DejaVuSans-104"/>
    </defs>
    <g transform="translate(879.216666 18.368)scale(0.096 -0.096)">
     <use xlink:href="#DejaVuSans-68"/>
     <use x="77.001953" xlink:href="#DejaVuSans-105"/>
     <use x="104.785156" xlink:href="#DejaVuSans-101"/>
     <use x="166.308594" xlink:href="#DejaVuSans-116"/>
     <use x="205.517578" xlink:href="#DejaVuSans-32"/>
     <use x="237.304688" xlink:href="#DejaVuSans-61"/>
     <use x="321.09375" xlink:href="#DejaVuSans-32"/>
     <use x="352.880859" xlink:href="#DejaVuSans-104"/>
     <use x="416.259766" xlink:href="#DejaVuSans-105"/>
     <use x="444.042969" xlink:href="#DejaVuSans-103"/>
     <use x="507.519531" xlink:href="#DejaVuSans-104"/>
     <use x="570.898438" xlink:href="#DejaVuSans-89"/>
    </g>
   </g>
   <g id="PathCollection_12">
    <g clip-path="url(#pb1b0dedd6d)">
     <use style="fill:#d62728;stroke:#d62728;stroke-width:1.62;" x="834.465898" xlink:href="#m816c036f5b" y="85.20455"/>
     <use style="fill:#d62728;stroke:#d62728;stroke-width:1.62;" x="1001.32205" xlink:href="#m816c036f5b" y="103.218111"/>
    </g>
   </g>
   <g id="line2d_111">
    <path clip-path="url(#pb1b0dedd6d)" d="M 834.465898 85.20455 
L 1001.32205 103.218111 
" style="fill:none;stroke:#d62728;stroke-linecap:square;stroke-width:2.16;"/>
   </g>
   <g id="line2d_112">
    <path clip-path="url(#pb1b0dedd6d)" d="M 834.465898 112.877508 
L 834.465898 57.531592 
" style="fill:none;stroke:#d62728;stroke-linecap:square;stroke-width:2.16;"/>
   </g>
   <g id="line2d_113">
    <path clip-path="url(#pb1b0dedd6d)" d="M 826.12309 112.877508 
L 842.808706 112.877508 
" style="fill:none;stroke:#d62728;stroke-linecap:square;stroke-width:2.16;"/>
   </g>
   <g id="line2d_114">
    <path clip-path="url(#pb1b0dedd6d)" d="M 826.12309 57.531592 
L 842.808706 57.531592 
" style="fill:none;stroke:#d62728;stroke-linecap:square;stroke-width:2.16;"/>
   </g>
   <g id="line2d_115">
    <path clip-path="url(#pb1b0dedd6d)" d="M 1001.32205 141.684553 
L 1001.32205 64.75167 
" style="fill:none;stroke:#d62728;stroke-linecap:square;stroke-width:2.16;"/>
   </g>
   <g id="line2d_116">
    <path clip-path="url(#pb1b0dedd6d)" d="M 992.979242 141.684553 
L 1009.664857 141.684553 
" style="fill:none;stroke:#d62728;stroke-linecap:square;stroke-width:2.16;"/>
   </g>
   <g id="line2d_117">
    <path clip-path="url(#pb1b0dedd6d)" d="M 992.979242 64.75167 
L 1009.664857 64.75167 
" style="fill:none;stroke:#d62728;stroke-linecap:square;stroke-width:2.16;"/>
   </g>
  </g>
  <g id="axes_4">
   <g id="patch_11">
    <path d="M 1091.514647 318.332 
L 1425.22695 318.332 
L 1425.22695 24.368 
L 1091.514647 24.368 
z
" style="fill:#ffffff;"/>
   </g>
   <g id="PathCollection_13">
    <g clip-path="url(#p897820a042)">
     <use style="fill:#1f77b4;stroke:#1f77b4;stroke-width:1.62;" x="1166.599915" xlink:href="#m126dcfc7be" y="106.820824"/>
     <use style="fill:#1f77b4;stroke:#1f77b4;stroke-width:1.62;" x="1333.456067" xlink:href="#m126dcfc7be" y="119.430317"/>
    </g>
   </g>
   <g id="line2d_118">
    <path clip-path="url(#p897820a042)" d="M 1166.599915 106.820824 
L 1333.456067 119.430317 
" style="fill:none;stroke:#1f77b4;stroke-linecap:square;stroke-width:2.16;"/>
   </g>
   <g id="line2d_119">
    <path clip-path="url(#p897820a042)" d="M 1166.599915 157.258796 
L 1166.599915 56.382852 
" style="fill:none;stroke:#1f77b4;stroke-linecap:square;stroke-width:2.16;"/>
   </g>
   <g id="line2d_120">
    <path clip-path="url(#p897820a042)" d="M 1158.257107 157.258796 
L 1174.942722 157.258796 
" style="fill:none;stroke:#1f77b4;stroke-linecap:square;stroke-width:2.16;"/>
   </g>
   <g id="line2d_121">
    <path clip-path="url(#p897820a042)" d="M 1158.257107 56.382852 
L 1174.942722 56.382852 
" style="fill:none;stroke:#1f77b4;stroke-linecap:square;stroke-width:2.16;"/>
   </g>
   <g id="line2d_122">
    <path clip-path="url(#p897820a042)" d="M 1333.456067 184.103769 
L 1333.456067 54.756864 
" style="fill:none;stroke:#1f77b4;stroke-linecap:square;stroke-width:2.16;"/>
   </g>
   <g id="line2d_123">
    <path clip-path="url(#p897820a042)" d="M 1325.113259 184.103769 
L 1341.798874 184.103769 
" style="fill:none;stroke:#1f77b4;stroke-linecap:square;stroke-width:2.16;"/>
   </g>
   <g id="line2d_124">
    <path clip-path="url(#p897820a042)" d="M 1325.113259 54.756864 
L 1341.798874 54.756864 
" style="fill:none;stroke:#1f77b4;stroke-linecap:square;stroke-width:2.16;"/>
   </g>
   <g id="matplotlib.axis_7">
    <g id="xtick_7">
     <g id="line2d_125">
      <g>
       <use style="stroke:#000000;" x="1174.942722" xlink:href="#md4d7efc7e3" y="318.332"/>
      </g>
     </g>
     <g id="text_23">
      <!-- MC -->
      <g transform="translate(1168.07391 333.318625)scale(0.088 -0.088)">
       <use xlink:href="#DejaVuSans-77"/>
       <use x="86.279297" xlink:href="#DejaVuSans-67"/>
      </g>
     </g>
    </g>
    <g id="xtick_8">
     <g id="line2d_126">
      <g>
       <use style="stroke:#000000;" x="1341.798874" xlink:href="#md4d7efc7e3" y="318.332"/>
      </g>
     </g>
     <g id="text_24">
      <!-- VBC -->
      <g transform="translate(1332.774749 333.318625)scale(0.088 -0.088)">
       <use xlink:href="#DejaVuSans-86"/>
       <use x="68.408203" xlink:href="#DejaVuSans-66"/>
       <use x="135.261719" xlink:href="#DejaVuSans-67"/>
      </g>
     </g>
    </g>
    <g id="text_25">
     <!-- Popn -->
     <g transform="translate(1246.624298 346.44325)scale(0.096 -0.096)">
      <use xlink:href="#DejaVuSans-80"/>
      <use x="56.677734" xlink:href="#DejaVuSans-111"/>
      <use x="117.859375" xlink:href="#DejaVuSans-112"/>
      <use x="181.335938" xlink:href="#DejaVuSans-110"/>
     </g>
    </g>
   </g>
   <g id="matplotlib.axis_8">
    <g id="ytick_28">
     <g id="line2d_127">
      <g>
       <use style="stroke:#000000;" x="1091.514647" xlink:href="#m066c2954cf" y="315.778137"/>
      </g>
     </g>
    </g>
    <g id="ytick_29">
     <g id="line2d_128">
      <g>
       <use style="stroke:#000000;" x="1091.514647" xlink:href="#m066c2954cf" y="279.751014"/>
      </g>
     </g>
    </g>
    <g id="ytick_30">
     <g id="line2d_129">
      <g>
       <use style="stroke:#000000;" x="1091.514647" xlink:href="#m066c2954cf" y="243.723891"/>
      </g>
     </g>
    </g>
    <g id="ytick_31">
     <g id="line2d_130">
      <g>
       <use style="stroke:#000000;" x="1091.514647" xlink:href="#m066c2954cf" y="207.696768"/>
      </g>
     </g>
    </g>
    <g id="ytick_32">
     <g id="line2d_131">
      <g>
       <use style="stroke:#000000;" x="1091.514647" xlink:href="#m066c2954cf" y="171.669645"/>
      </g>
     </g>
    </g>
    <g id="ytick_33">
     <g id="line2d_132">
      <g>
       <use style="stroke:#000000;" x="1091.514647" xlink:href="#m066c2954cf" y="135.642522"/>
      </g>
     </g>
    </g>
    <g id="ytick_34">
     <g id="line2d_133">
      <g>
       <use style="stroke:#000000;" x="1091.514647" xlink:href="#m066c2954cf" y="99.615399"/>
      </g>
     </g>
    </g>
    <g id="ytick_35">
     <g id="line2d_134">
      <g>
       <use style="stroke:#000000;" x="1091.514647" xlink:href="#m066c2954cf" y="63.588276"/>
      </g>
     </g>
    </g>
    <g id="ytick_36">
     <g id="line2d_135">
      <g>
       <use style="stroke:#000000;" x="1091.514647" xlink:href="#m066c2954cf" y="27.561153"/>
      </g>
     </g>
    </g>
   </g>
   <g id="PathCollection_14">
    <g clip-path="url(#p897820a042)">
     <use style="fill:#ff7f0e;stroke:#ff7f0e;stroke-width:1.62;" x="1172.161787" xlink:href="#m52fcb13da8" y="105.019468"/>
     <use style="fill:#ff7f0e;stroke:#ff7f0e;stroke-width:1.62;" x="1339.017938" xlink:href="#m52fcb13da8" y="88.807262"/>
    </g>
   </g>
   <g id="line2d_136">
    <path clip-path="url(#p897820a042)" d="M 1172.161787 105.019468 
L 1339.017938 88.807262 
" style="fill:none;stroke:#ff7f0e;stroke-linecap:square;stroke-width:2.16;"/>
   </g>
   <g id="line2d_137">
    <path clip-path="url(#p897820a042)" d="M 1172.161787 127.876115 
L 1172.161787 82.16282 
" style="fill:none;stroke:#ff7f0e;stroke-linecap:square;stroke-width:2.16;"/>
   </g>
   <g id="line2d_138">
    <path clip-path="url(#p897820a042)" d="M 1163.818979 127.876115 
L 1180.504594 127.876115 
" style="fill:none;stroke:#ff7f0e;stroke-linecap:square;stroke-width:2.16;"/>
   </g>
   <g id="line2d_139">
    <path clip-path="url(#p897820a042)" d="M 1163.818979 82.16282 
L 1180.504594 82.16282 
" style="fill:none;stroke:#ff7f0e;stroke-linecap:square;stroke-width:2.16;"/>
   </g>
   <g id="line2d_140">
    <path clip-path="url(#p897820a042)" d="M 1339.017938 139.884524 
L 1339.017938 37.73 
" style="fill:none;stroke:#ff7f0e;stroke-linecap:square;stroke-width:2.16;"/>
   </g>
   <g id="line2d_141">
    <path clip-path="url(#p897820a042)" d="M 1330.675131 139.884524 
L 1347.360746 139.884524 
" style="fill:none;stroke:#ff7f0e;stroke-linecap:square;stroke-width:2.16;"/>
   </g>
   <g id="line2d_142">
    <path clip-path="url(#p897820a042)" d="M 1330.675131 37.73 
L 1347.360746 37.73 
" style="fill:none;stroke:#ff7f0e;stroke-linecap:square;stroke-width:2.16;"/>
   </g>
   <g id="patch_12">
    <path d="M 1091.514647 318.332 
L 1091.514647 24.368 
" style="fill:none;stroke:#000000;stroke-linecap:square;stroke-linejoin:miter;"/>
   </g>
   <g id="patch_13">
    <path d="M 1091.514647 318.332 
L 1425.22695 318.332 
" style="fill:none;stroke:#000000;stroke-linecap:square;stroke-linejoin:miter;"/>
   </g>
   <g id="PathCollection_15">
    <g clip-path="url(#p897820a042)">
     <use style="fill:#2ca02c;stroke:#2ca02c;stroke-width:1.62;" x="1177.723658" xlink:href="#m701d36c5ea" y="117.628961"/>
     <use style="fill:#2ca02c;stroke:#2ca02c;stroke-width:1.62;" x="1344.57981" xlink:href="#m701d36c5ea" y="101.416755"/>
    </g>
   </g>
   <g id="line2d_143">
    <path clip-path="url(#p897820a042)" d="M 1177.723658 117.628961 
L 1344.57981 101.416755 
" style="fill:none;stroke:#2ca02c;stroke-linecap:square;stroke-width:2.16;"/>
   </g>
   <g id="line2d_144">
    <path clip-path="url(#p897820a042)" d="M 1177.723658 176.827564 
L 1177.723658 58.430357 
" style="fill:none;stroke:#2ca02c;stroke-linecap:square;stroke-width:2.16;"/>
   </g>
   <g id="line2d_145">
    <path clip-path="url(#p897820a042)" d="M 1169.380851 176.827564 
L 1186.066466 176.827564 
" style="fill:none;stroke:#2ca02c;stroke-linecap:square;stroke-width:2.16;"/>
   </g>
   <g id="line2d_146">
    <path clip-path="url(#p897820a042)" d="M 1169.380851 58.430357 
L 1186.066466 58.430357 
" style="fill:none;stroke:#2ca02c;stroke-linecap:square;stroke-width:2.16;"/>
   </g>
   <g id="line2d_147">
    <path clip-path="url(#p897820a042)" d="M 1344.57981 136.945052 
L 1344.57981 65.888459 
" style="fill:none;stroke:#2ca02c;stroke-linecap:square;stroke-width:2.16;"/>
   </g>
   <g id="line2d_148">
    <path clip-path="url(#p897820a042)" d="M 1336.237002 136.945052 
L 1352.922618 136.945052 
" style="fill:none;stroke:#2ca02c;stroke-linecap:square;stroke-width:2.16;"/>
   </g>
   <g id="line2d_149">
    <path clip-path="url(#p897820a042)" d="M 1336.237002 65.888459 
L 1352.922618 65.888459 
" style="fill:none;stroke:#2ca02c;stroke-linecap:square;stroke-width:2.16;"/>
   </g>
   <g id="text_26">
    <!-- Diet = onlyY -->
    <defs>
     <path d="M 32.171875 -5.078125 
Q 28.375 -14.84375 24.75 -17.8125 
Q 21.140625 -20.796875 15.09375 -20.796875 
L 7.90625 -20.796875 
L 7.90625 -13.28125 
L 13.1875 -13.28125 
Q 16.890625 -13.28125 18.9375 -11.515625 
Q 21 -9.765625 23.484375 -3.21875 
L 25.09375 0.875 
L 2.984375 54.6875 
L 12.5 54.6875 
L 29.59375 11.921875 
L 46.6875 54.6875 
L 56.203125 54.6875 
z
" id="DejaVuSans-121"/>
    </defs>
    <g transform="translate(1228.347548 18.368)scale(0.096 -0.096)">
     <use xlink:href="#DejaVuSans-68"/>
     <use x="77.001953" xlink:href="#DejaVuSans-105"/>
     <use x="104.785156" xlink:href="#DejaVuSans-101"/>
     <use x="166.308594" xlink:href="#DejaVuSans-116"/>
     <use x="205.517578" xlink:href="#DejaVuSans-32"/>
     <use x="237.304688" xlink:href="#DejaVuSans-61"/>
     <use x="321.09375" xlink:href="#DejaVuSans-32"/>
     <use x="352.880859" xlink:href="#DejaVuSans-111"/>
     <use x="414.0625" xlink:href="#DejaVuSans-110"/>
     <use x="477.441406" xlink:href="#DejaVuSans-108"/>
     <use x="505.224609" xlink:href="#DejaVuSans-121"/>
     <use x="564.404297" xlink:href="#DejaVuSans-89"/>
    </g>
   </g>
   <g id="PathCollection_16">
    <g clip-path="url(#p897820a042)">
     <use style="fill:#d62728;stroke:#d62728;stroke-width:1.62;" x="1183.28553" xlink:href="#m816c036f5b" y="108.62218"/>
     <use style="fill:#d62728;stroke:#d62728;stroke-width:1.62;" x="1350.141682" xlink:href="#m816c036f5b" y="119.630467"/>
    </g>
   </g>
   <g id="line2d_150">
    <path clip-path="url(#p897820a042)" d="M 1183.28553 108.62218 
L 1350.141682 119.630467 
" style="fill:none;stroke:#d62728;stroke-linecap:square;stroke-width:2.16;"/>
   </g>
   <g id="line2d_151">
    <path clip-path="url(#p897820a042)" d="M 1183.28553 141.09659 
L 1183.28553 76.14777 
" style="fill:none;stroke:#d62728;stroke-linecap:square;stroke-width:2.16;"/>
   </g>
   <g id="line2d_152">
    <path clip-path="url(#p897820a042)" d="M 1174.942722 141.09659 
L 1191.628338 141.09659 
" style="fill:none;stroke:#d62728;stroke-linecap:square;stroke-width:2.16;"/>
   </g>
   <g id="line2d_153">
    <path clip-path="url(#p897820a042)" d="M 1174.942722 76.14777 
L 1191.628338 76.14777 
" style="fill:none;stroke:#d62728;stroke-linecap:square;stroke-width:2.16;"/>
   </g>
   <g id="line2d_154">
    <path clip-path="url(#p897820a042)" d="M 1350.141682 141.187356 
L 1350.141682 98.073579 
" style="fill:none;stroke:#d62728;stroke-linecap:square;stroke-width:2.16;"/>
   </g>
   <g id="line2d_155">
    <path clip-path="url(#p897820a042)" d="M 1341.798874 141.187356 
L 1358.484489 141.187356 
" style="fill:none;stroke:#d62728;stroke-linecap:square;stroke-width:2.16;"/>
   </g>
   <g id="line2d_156">
    <path clip-path="url(#p897820a042)" d="M 1341.798874 98.073579 
L 1358.484489 98.073579 
" style="fill:none;stroke:#d62728;stroke-linecap:square;stroke-width:2.16;"/>
   </g>
  </g>
  <g id="legend_1">
   <g id="text_27">
    <!-- Block -->
    <defs>
     <path d="M 9.078125 75.984375 
L 18.109375 75.984375 
L 18.109375 31.109375 
L 44.921875 54.6875 
L 56.390625 54.6875 
L 27.390625 29.109375 
L 57.625 0 
L 45.90625 0 
L 18.109375 26.703125 
L 18.109375 0 
L 9.078125 0 
z
" id="DejaVuSans-107"/>
    </defs>
    <g transform="translate(1441.283 156.8155)scale(0.096 -0.096)">
     <use xlink:href="#DejaVuSans-66"/>
     <use x="68.603516" xlink:href="#DejaVuSans-108"/>
     <use x="96.386719" xlink:href="#DejaVuSans-111"/>
     <use x="157.568359" xlink:href="#DejaVuSans-99"/>
     <use x="212.548828" xlink:href="#DejaVuSans-107"/>
    </g>
   </g>
   <g id="PathCollection_17">
    <g>
     <use style="fill:#1f77b4;stroke:#1f77b4;stroke-width:1.62;" x="1447.946" xlink:href="#m126dcfc7be" y="167.588625"/>
    </g>
   </g>
   <g id="text_28">
    <!-- 1 -->
    <g transform="translate(1463.786 169.898625)scale(0.088 -0.088)">
     <use xlink:href="#DejaVuSans-49"/>
    </g>
   </g>
   <g id="PathCollection_18">
    <g>
     <use style="fill:#ff7f0e;stroke:#ff7f0e;stroke-width:1.62;" x="1447.946" xlink:href="#m52fcb13da8" y="180.505375"/>
    </g>
   </g>
   <g id="text_29">
    <!-- 2 -->
    <g transform="translate(1463.786 182.815375)scale(0.088 -0.088)">
     <use xlink:href="#DejaVuSans-50"/>
    </g>
   </g>
   <g id="PathCollection_19">
    <g>
     <use style="fill:#2ca02c;stroke:#2ca02c;stroke-width:1.62;" x="1447.946" xlink:href="#m701d36c5ea" y="193.422125"/>
    </g>
   </g>
   <g id="text_30">
    <!-- 3 -->
    <g transform="translate(1463.786 195.732125)scale(0.088 -0.088)">
     <use xlink:href="#DejaVuSans-51"/>
    </g>
   </g>
   <g id="PathCollection_20">
    <g>
     <use style="fill:#d62728;stroke:#d62728;stroke-width:1.62;" x="1447.946" xlink:href="#m816c036f5b" y="206.338875"/>
    </g>
   </g>
   <g id="text_31">
    <!-- 4 -->
    <g transform="translate(1463.786 208.648875)scale(0.088 -0.088)">
     <use xlink:href="#DejaVuSans-52"/>
    </g>
   </g>
  </g>
 </g>
 <defs>
  <clipPath id="pe02be7aacd">
   <rect height="293.964" width="333.712303" x="45.055751" y="24.368"/>
  </clipPath>
  <clipPath id="p54c27741e1">
   <rect height="293.964" width="333.712303" x="393.875383" y="24.368"/>
  </clipPath>
  <clipPath id="pb1b0dedd6d">
   <rect height="293.964" width="333.712303" x="742.695015" y="24.368"/>
  </clipPath>
  <clipPath id="p897820a042">
   <rect height="293.964" width="333.712303" x="1091.514647" y="24.368"/>
  </clipPath>
 </defs>
</svg>
